<svg width="512" height="512" viewBox="0 0 512 512" fill="none" xmlns="http://www.w3.org/2000/svg">
<g clip-path="url(#clip0_416_31)">
<rect width="512" height="512" fill="#3A5058"/>
<g style="mix-blend-mode:multiply">
<path fill-rule="evenodd" clip-rule="evenodd" d="M524.537 1204.59C556.289 1161.14 582.926 1111.88 590.997 1058.5C599.068 1005.11 586.116 947.021 548.56 911.526C520.628 885.12 484.459 874.549 446.801 866.56C439.281 864.964 431.704 863.472 424.12 861.978C393.663 855.979 363.089 849.957 335.649 837.15C235.76 790.525 195.782 653.579 231.505 542.351C255.378 467.995 296.626 400.136 339.505 334.938C392.449 254.46 393.143 178.567 374.109 116.484C355.085 54.437 316.366 6.19466 290.472 -19.1209C249.913 -58.7702 153.602 -102.548 22.1671 -24.1053C-38.7015 12.2208 -58.4409 77.2307 -78.7194 150.608C-79.4937 153.41 -80.2688 156.224 -81.0469 159.049C-100.674 230.306 -122.288 308.779 -182.756 377.111C-194.584 390.472 -205.296 405.155 -215.996 419.822C-217.895 422.425 -219.794 425.028 -221.699 427.623C-234.346 444.854 -247.258 461.744 -262.294 476.221C-315.579 527.521 -390.544 566.751 -462.145 547.926C-508.106 535.84 -543.7 502.686 -579.291 468.862L-581.641 466.628C-616.401 433.579 -651.375 400.326 -696.108 386.404L-696.35 387.162L-696.109 386.404C-767.723 364.133 -845.935 397.021 -912.188 436.815C-924.896 444.448 -937.526 452.392 -950.17 460.344C-970.534 473.152 -990.934 485.984 -1011.76 497.576C-1045.48 516.348 -1080.19 531.8 -1117.35 538.481C-1154.46 545.154 -1195.08 539.12 -1227.94 521.861C-1260.8 504.604 -1285.84 476.165 -1291.97 438.057L-1293.47 438.376C-1287.24 477.083 -1261.81 505.867 -1228.66 523.278C-1195.51 540.687 -1154.57 546.767 -1117.14 540.038C-1079.76 533.316 -1044.88 517.776 -1011.08 498.963C-990.236 487.357 -969.757 474.477 -949.358 461.647C-936.721 453.7 -924.115 445.772 -911.471 438.177C-845.26 398.409 -767.558 365.85 -696.592 387.92C-652.18 401.741 -617.421 434.788 -582.578 467.915L-580.335 470.048C-544.788 503.83 -508.939 537.265 -462.568 549.459C-390.241 568.475 -314.745 528.827 -261.29 477.363C-246.143 462.78 -233.16 445.788 -220.509 428.553C-218.598 425.949 -216.694 423.34 -214.792 420.733C-204.091 406.065 -193.433 391.455 -181.661 378.158C-120.931 309.531 -99.2252 230.719 -79.6135 159.51C-78.8281 156.658 -78.046 153.818 -77.2649 150.992C-56.9581 77.5118 -37.3452 13.2014 22.8812 -22.7412C153.681 -100.806 249.284 -57.1785 289.414 -17.949C315.198 7.25942 353.74 55.2946 372.664 117.017C391.576 178.702 390.902 254.069 338.266 334.079C295.378 399.29 254.018 467.312 230.07 541.902C194.161 653.711 234.259 791.58 334.987 838.596C362.599 851.484 393.392 857.548 423.865 863.548C431.429 865.038 438.974 866.523 446.445 868.108C484.075 876.092 519.898 886.603 547.52 912.715C584.623 947.783 597.515 1005.3 589.501 1058.31C581.486 1111.32 555.02 1160.32 523.345 1203.66L524.537 1204.59Z" fill="#E8DDB5" fill-opacity="0.1"/>
</g>
<g style="mix-blend-mode:multiply">
<path fill-rule="evenodd" clip-rule="evenodd" d="M545.16 1189.46C574.728 1144.41 597.962 1093.59 603.252 1040.8C608.542 987.999 593.986 931.393 555.967 895.876C528.25 869.88 492.79 858.711 456.095 849.91C449.035 848.217 441.931 846.612 434.827 845.006C404.95 838.254 375.063 831.499 348.394 818.203C253.106 770.701 215.517 638.304 250.031 529.84L250.031 529.839C273.349 456.072 312.296 387.955 352.832 323.44L352.203 323.025L352.832 323.44C402.145 244.934 402.101 171.277 383.176 111.184C364.262 51.1246 326.497 4.62184 300.349 -19.7069C258.98 -58.2271 164.171 -98.3768 36.4974 -21.9715L36.8188 -21.3591L36.4971 -21.9713C-23.0167 13.674 -43.0069 77.0217 -63.6393 148.2C-64.3844 150.77 -65.1303 153.351 -65.879 155.941C-85.8861 225.16 -107.856 301.171 -167.562 366.886C-178.427 378.847 -188.651 391.598 -198.832 404.296C-202.394 408.739 -205.951 413.175 -209.529 417.569C-223.345 434.538 -237.484 450.895 -253.487 464.679C-309.311 512.739 -384.335 547.052 -457.261 528.532C-503.094 516.768 -539.112 485.544 -574.945 454.186L-576.081 453.192C-611.481 422.209 -646.806 391.292 -691.22 379.597L-691.22 379.597C-761.511 361.167 -837.048 395.859 -902.059 436.743C-911.767 442.849 -921.472 449.113 -931.205 455.395C-987.495 491.725 -1044.7 528.647 -1108.71 539.071C-1147.11 545.323 -1188.5 538.24 -1222.25 519.888C-1255.99 501.537 -1282.02 471.956 -1289.83 433.247L-1291.31 433.628C-1283.39 472.887 -1257.01 502.791 -1222.99 521.294C-1188.97 539.797 -1147.25 546.936 -1108.53 540.632C-1044.19 530.153 -986.667 493.024 -930.391 456.698C-920.671 450.423 -910.988 444.173 -901.314 438.088C-836.329 397.22 -761.287 362.869 -691.642 381.13C-647.554 392.74 -612.449 423.463 -576.957 454.526L-575.944 455.412C-540.156 486.732 -503.891 518.205 -457.676 530.068L-457.674 530.068C-384.093 548.755 -308.571 514.111 -252.549 465.882C-236.432 451.999 -222.218 435.548 -208.39 418.564C-204.795 414.149 -201.227 409.699 -197.658 405.248C-187.486 392.562 -177.309 379.869 -166.482 367.949C-106.51 301.942 -84.4444 225.594 -64.4529 156.424C-63.6965 153.807 -62.943 151.199 -62.1906 148.604C-41.5295 77.3265 -21.6719 14.6602 37.213 -20.6085C164.269 -96.6441 258.382 -56.6263 299.317 -18.5105L299.792 -19.0608L299.317 -18.5103C325.336 5.69859 362.922 51.9906 381.735 111.728C400.536 171.431 400.594 244.572 351.574 322.61C311.023 387.15 271.98 455.416 248.594 529.396C213.9 638.431 251.601 771.728 347.699 819.634C374.536 833.014 404.635 839.815 434.525 846.568C441.611 848.169 448.686 849.768 455.702 851.451C492.371 860.245 527.507 871.349 554.931 897.068L554.932 897.069C592.524 932.188 606.998 988.262 601.745 1040.69C596.492 1093.13 573.404 1143.68 543.92 1188.6L545.16 1189.46Z" fill="#E8DDB5" fill-opacity="0.1"/>
</g>
<g style="mix-blend-mode:multiply">
<path fill-rule="evenodd" clip-rule="evenodd" d="M565.846 1174.41C593.223 1127.71 613.004 1076.37 615.578 1023.15C618.11 971.001 601.908 915.808 563.446 880.277C535.937 854.678 501.187 842.912 465.456 833.3C458.909 831.539 452.332 829.85 445.759 828.163C416.404 820.627 387.145 813.116 361.201 799.282C270.534 750.91 235.301 623.023 268.605 517.323L268.606 517.32C291.369 444.143 328.01 375.841 366.208 311.935C411.922 235.439 411.13 164.027 392.305 105.92C373.49 47.8446 336.669 3.0647 310.296 -20.2901C268.08 -57.6462 174.801 -94.181 50.8883 -19.8136L51.247 -19.1326L50.8878 -19.8133C-7.27056 15.1509 -27.5684 76.8009 -48.5832 145.763C-49.3112 148.152 -50.04 150.55 -50.7713 152.956C-71.1754 220.083 -93.5131 293.571 -152.308 356.686C-161.535 366.593 -170.483 376.89 -179.391 387.14C-185.349 393.997 -191.289 400.832 -197.282 407.516C-212.26 424.221 -227.625 440.044 -244.629 453.135C-302.895 497.997 -378.134 527.549 -452.338 509.155C-497.923 497.838 -534.287 468.682 -570.25 439.849L-570.59 439.576C-606.616 410.693 -642.279 382.178 -686.305 372.778L-686.306 372.778C-755.291 358.181 -826.595 393.67 -891.921 436.651C-900.016 441.977 -908.079 447.384 -916.143 452.792C-973.221 491.072 -1030.4 529.418 -1100.07 539.64C-1139.77 545.463 -1181.95 537.333 -1216.57 517.891C-1251.2 498.449 -1278.21 467.729 -1287.69 428.41L-1289.16 428.85C-1279.56 468.672 -1252.23 499.695 -1217.33 519.288C-1182.44 538.881 -1139.94 547.076 -1099.92 541.204C-1029.88 530.929 -972.391 492.368 -915.339 454.1C-907.278 448.693 -899.226 443.292 -891.149 437.978C-825.835 395.006 -755.007 359.865 -686.661 374.327C-643.022 383.644 -607.619 411.918 -571.542 440.843L-571.088 441.207C-535.204 469.977 -498.63 499.3 -452.742 510.693C-377.951 529.232 -302.246 499.425 -243.76 454.393C-226.638 441.211 -211.194 425.3 -196.194 408.572C-190.161 401.843 -184.209 394.994 -178.249 388.134C-169.364 377.909 -160.46 367.662 -151.241 357.764C-92.1787 294.362 -69.741 220.54 -49.3533 153.462C-48.6137 151.028 -47.8768 148.604 -47.1409 146.189C-26.0975 77.1322 -5.93846 16.1433 51.6057 -18.4516C174.917 -92.4584 267.513 -56.0366 309.29 -19.0694C335.515 4.15444 372.156 48.7194 390.868 106.476C409.569 164.201 410.366 235.107 364.931 311.137C326.714 375.076 289.991 443.513 267.168 516.882C233.687 623.143 269.024 751.906 360.471 800.694L360.836 799.988L360.471 800.695C386.58 814.617 416.043 822.179 445.407 829.715C451.964 831.398 458.516 833.08 465.025 834.831C500.733 844.437 535.184 856.133 562.415 881.475L562.417 881.477C600.478 916.638 616.58 971.338 614.065 1023.13L614.065 1023.13C611.508 1076 591.853 1127.07 564.562 1173.62L565.846 1174.41Z" fill="#E8DDB5" fill-opacity="0.1"/>
</g>
<g style="mix-blend-mode:multiply">
<path fill-rule="evenodd" clip-rule="evenodd" d="M586.485 1159.28C611.676 1110.99 628.052 1056.95 627.848 1005.46C627.644 953.966 609.706 900.301 570.873 864.635L570.36 865.237L570.873 864.635C543.511 839.506 509.467 827.149 474.714 816.709C468.781 814.927 462.83 813.201 456.887 811.478C427.966 803.092 399.249 794.764 373.955 780.317C287.897 731.169 255.295 607.801 287.119 504.781C309.539 432.247 343.688 363.76 379.543 300.413C421.682 225.987 420.137 156.817 401.401 100.68C382.674 44.5723 346.778 1.48328 320.18 -20.8967C277.145 -57.1029 185.397 -90.0221 65.2465 -17.6931L65.2457 -17.6926C8.44349 16.5901 -12.1996 76.5025 -33.6154 143.23C-34.3342 145.469 -35.0539 147.717 -35.7759 149.971C-56.5882 214.962 -79.3016 285.89 -137.087 346.448L-136.567 346.988L-137.088 346.449C-143.849 353.539 -150.518 360.733 -157.165 367.904C-182.365 395.092 -207.262 421.953 -235.812 441.577C-296.437 483.273 -371.939 507.944 -447.456 489.761C-492.084 479.014 -528.353 452.566 -563.916 426.632L-566.257 424.925C-602.528 398.487 -638.255 372.941 -681.421 365.973L-681.423 365.973C-749.082 355.218 -819.223 393.582 -881.792 436.58C-884.727 438.595 -887.669 440.62 -890.618 442.649C-952.906 485.517 -1018.41 530.595 -1091.45 540.201C-1173.48 550.986 -1263.27 503.44 -1285.57 423.596L-1287.02 424.091C-1264.48 504.817 -1173.89 552.625 -1091.32 541.768C-1017.9 532.113 -952.116 486.836 -889.916 444.026C-886.934 441.974 -883.959 439.927 -880.993 437.889C-818.415 394.885 -748.734 356.881 -681.709 367.535C-638.932 374.44 -603.471 399.761 -567.157 426.232L-564.73 428.001C-529.229 453.89 -492.757 480.487 -447.85 491.302C-371.817 509.608 -295.882 484.75 -235.013 442.886C-206.3 423.151 -181.243 396.115 -156.028 368.909C-149.397 361.755 -142.756 354.589 -136.034 347.541C-77.9791 286.701 -55.1617 215.443 -34.3666 150.5C-33.6359 148.218 -32.9078 145.944 -32.1807 143.679C-10.7361 76.8628 9.7617 17.5894 65.9664 -16.3326C185.534 -88.3101 276.612 -55.4839 319.202 -19.6522C345.633 2.58712 381.346 45.4562 399.968 101.249C418.579 157.012 420.122 225.686 378.246 299.649C342.365 363.042 308.15 431.648 285.679 504.349L286.259 504.523L285.679 504.349C253.687 607.911 286.379 732.132 373.189 781.709C398.644 796.249 427.556 804.631 456.48 813.017C462.41 814.736 468.342 816.456 474.244 818.229C508.976 828.662 542.744 840.947 569.848 865.838C608.31 901.163 626.131 954.378 626.333 1005.53C626.536 1056.68 610.262 1110.45 585.16 1158.57L586.485 1159.28Z" fill="#E8DDB5" fill-opacity="0.1"/>
</g>
<g style="mix-blend-mode:multiply">
<path fill-rule="evenodd" clip-rule="evenodd" d="M607.221 1144.15C630.211 1094.23 643.242 1040.9 640.223 987.736L640.223 987.735C637.324 936.914 617.653 884.653 578.386 848.952C551.221 824.251 517.89 811.317 484.105 800.071C478.85 798.323 473.586 796.615 468.332 794.91C439.76 785.641 411.493 776.47 386.789 761.333C305.357 711.416 275.164 592.479 305.719 492.198C327.633 420.246 359.421 351.653 392.945 288.841C431.537 216.558 429.236 149.642 410.58 95.4652C391.933 41.3163 356.951 -0.111163 330.142 -21.5228C286.239 -56.5731 196.063 -85.8609 79.654 -15.5784L79.6529 -15.5778C24.2115 18.0123 3.18393 76.1523 -18.654 140.63C-19.3727 142.753 -20.0925 144.882 -20.8144 147.018C-42.0468 209.835 -65.1441 278.17 -121.817 336.205C-125.07 339.536 -128.315 342.876 -131.556 346.212C-162.144 377.694 -192.447 408.883 -226.946 430.016C-289.888 468.562 -365.698 488.281 -442.536 470.333C-485.987 460.182 -521.978 436.5 -556.987 413.464C-558.624 412.387 -560.259 411.311 -561.893 410.238C-598.414 386.249 -634.211 363.678 -676.523 359.127L-676.526 359.127C-742.882 352.228 -807.26 390.272 -871.674 436.48C-936.131 482.717 -1005.63 531.765 -1082.83 540.762L-1082.77 541.546L-1082.83 540.762C-1167.46 550.637 -1257.79 499.825 -1283.43 418.763L-1284.87 419.309C-1258.98 501.163 -1167.92 552.275 -1082.72 542.332C-1005.06 533.282 -935.242 483.963 -870.849 437.77C-806.413 391.547 -742.473 353.864 -676.733 360.699C-634.813 365.208 -599.289 387.573 -562.735 411.584C-561.083 412.669 -559.429 413.757 -557.772 414.848C-522.81 437.855 -486.625 461.665 -442.92 471.875C-365.637 489.928 -289.429 470.082 -226.216 431.371L-226.581 430.693L-226.216 431.371C-191.535 410.126 -161.087 378.785 -130.527 347.33C-127.28 343.988 -124.032 340.645 -120.777 337.312C-63.835 279.001 -40.6297 210.342 -19.4149 147.573C-18.6838 145.41 -17.9552 143.254 -17.2275 141.105C4.63858 76.5437 25.5147 19.0194 80.3758 -14.2192C196.22 -84.1604 285.741 -54.9451 329.192 -20.2548C355.814 1.00748 390.612 42.2098 409.152 96.049C427.682 149.86 429.974 216.291 391.628 288.114L392.286 288.478L391.628 288.114C358.076 350.978 326.234 419.678 304.277 491.773C273.561 592.582 303.834 712.346 385.985 762.703C410.846 777.936 439.3 787.166 467.869 796.433C473.114 798.134 478.363 799.837 483.594 801.578C517.364 812.818 550.441 825.678 577.366 850.16L577.876 849.556L577.366 850.16C616.289 885.548 635.83 937.399 638.711 987.889C641.711 1040.73 628.763 1093.78 605.86 1143.51L607.221 1144.15Z" fill="#E8DDB5" fill-opacity="0.1"/>
</g>
<g style="mix-blend-mode:multiply">
<path fill-rule="evenodd" clip-rule="evenodd" d="M627.856 1129.03C648.665 1077.48 658.381 1023.22 652.489 970.044L651.785 970.156L652.489 970.043C646.927 919.934 625.514 869.046 585.812 833.309C558.839 809.022 526.223 795.519 493.411 783.473C488.93 781.827 484.446 780.21 479.973 778.596C451.647 768.376 423.729 758.303 399.545 742.37L399.159 742.984L399.545 742.369C322.747 691.786 294.967 577.208 324.254 479.664C345.673 408.322 375.084 339.665 406.281 277.317C441.365 207.228 438.309 142.562 419.726 90.327C401.151 38.1187 367.066 -1.67899 340.045 -22.1215C295.275 -56.0162 206.659 -81.7017 94.0122 -13.458L94.0108 -13.4572C39.9226 19.4614 18.4743 75.8017 -3.803 138.015C-4.53081 140.047 -5.2595 142.086 -5.99034 144.131C-27.6514 204.738 -51.1346 270.442 -106.605 325.99C-142.099 361.515 -177.878 396.523 -218.129 418.464C-283.292 453.972 -359.494 468.653 -437.653 450.939C-479.625 441.427 -515.07 420.544 -549.292 400.38C-552.06 398.75 -554.819 397.125 -557.572 395.51C-594.345 373.952 -630.209 354.363 -671.666 352.318L-671.723 353.011L-671.667 352.318C-736.694 349.137 -801.413 391.404 -861.565 436.401L-861.139 437.037L-861.565 436.401C-925.549 484.287 -996.32 533.36 -1074.22 541.345C-1161.44 550.289 -1252.31 496.209 -1281.31 413.952L-1282.73 414.547C-1253.48 497.511 -1161.95 551.924 -1074.13 542.918C-995.759 534.884 -924.667 485.536 -860.713 437.673C-800.51 392.638 -736.217 350.745 -671.796 353.896C-630.732 355.922 -595.147 375.324 -558.353 396.895C-555.592 398.513 -552.824 400.144 -550.047 401.78C-515.855 421.927 -480.227 442.92 -438.028 452.484C-359.495 470.282 -282.927 455.528 -217.468 419.858C-176.984 397.791 -141.048 362.61 -105.577 327.11C-49.8396 271.293 -26.2446 205.272 -4.60159 144.712C-3.86124 142.641 -3.12315 140.576 -2.38611 138.517C19.9185 76.2275 41.2094 20.4776 94.7352 -12.0994C206.837 -80.0133 294.812 -54.3794 339.125 -20.8304C365.939 -0.54439 399.837 39.0221 418.303 90.9259C436.759 142.803 439.799 206.997 404.943 276.628C373.717 339.037 344.264 407.786 322.809 479.245C293.369 577.301 321.219 692.68 398.701 743.715C423.038 759.748 451.134 769.884 479.449 780.099C483.918 781.711 488.393 783.325 492.86 784.965C525.661 797.008 558.046 810.435 584.798 834.522C624.182 869.974 645.458 920.49 650.984 970.284C656.84 1023.15 647.188 1077.13 626.463 1128.46L627.856 1129.03Z" fill="#E8DDB5" fill-opacity="0.1"/>
</g>
<g style="mix-blend-mode:multiply">
<path fill-rule="evenodd" clip-rule="evenodd" d="M648.506 1113.86C667.113 1060.69 673.562 1005.49 664.778 952.288C656.624 902.891 633.4 853.375 593.264 817.602C566.498 793.747 534.604 779.691 502.765 766.85C499.168 765.399 495.572 763.964 491.984 762.532C463.78 751.276 436.085 740.222 412.339 723.373L411.897 724.031L412.339 723.373C340.157 672.165 314.804 561.85 342.813 467.066C363.711 396.348 390.775 327.664 419.633 265.748C451.248 197.907 447.423 135.496 428.893 85.1935C410.372 34.9153 377.159 -3.28038 349.946 -22.7705C304.311 -55.4588 217.263 -77.5635 108.379 -11.3589L108.377 -11.358C55.6473 20.878 33.7439 75.3858 11.01 135.318C10.2629 137.288 9.51494 139.263 8.76497 141.244C-13.3324 199.603 -37.2032 262.645 -91.3753 315.732L-90.9249 316.235L-91.3755 315.732C-128.433 352.063 -166.89 386.457 -209.283 406.9L-208.987 407.615L-209.284 406.9C-276.628 439.389 -353.281 449.003 -432.741 431.533C-472.919 422.7 -507.524 404.635 -540.73 387.3C-544.91 385.118 -549.068 382.948 -553.212 380.809C-590.238 361.697 -626.168 345.091 -666.753 345.484C-698.636 345.796 -730.07 357.013 -760.882 373.88C-791.693 390.745 -821.93 413.285 -851.418 436.288C-914.911 485.83 -986.965 534.898 -1065.57 541.893C-1155.39 549.878 -1246.84 492.582 -1279.18 409.122L-1280.59 409.761C-1248 493.853 -1155.95 551.508 -1065.5 543.468C-986.409 536.429 -914.034 487.082 -850.541 437.54C-821.058 414.541 -790.909 392.071 -760.219 375.273C-729.531 358.475 -698.348 347.373 -666.797 347.064C-626.604 346.675 -590.957 363.116 -553.925 382.23C-549.787 384.366 -545.632 386.536 -541.451 388.718C-508.26 406.046 -473.482 424.203 -433.107 433.079C-353.344 450.616 -276.354 440.972 -208.692 408.33C-166.046 387.765 -127.426 353.203 -90.3606 316.864C-35.9229 263.517 -11.9367 200.166 10.142 141.853C10.9018 139.846 11.6594 137.845 12.4159 135.851C35.1763 75.8479 56.9166 21.9035 109.104 -10.0016C217.464 -75.8878 303.885 -53.8137 349.056 -21.4572C376.043 -2.12909 409.065 35.8296 427.476 85.8087C445.878 135.763 449.68 197.713 418.276 265.102C389.388 327.082 362.291 395.844 341.367 466.654C313.211 561.934 338.624 673.021 411.455 724.69C435.349 741.645 463.212 752.764 491.396 764.011C494.985 765.443 498.58 766.877 502.173 768.326C534.007 781.166 565.692 795.146 592.255 818.819C632.101 854.335 655.181 903.517 663.285 952.614C672.018 1005.51 665.612 1060.43 647.085 1113.37L648.506 1113.86Z" fill="#E8DDB5" fill-opacity="0.1"/>
</g>
<g style="mix-blend-mode:multiply">
<path fill-rule="evenodd" clip-rule="evenodd" d="M669.19 1098.79C685.606 1044.02 688.809 987.885 677.092 934.643C666.388 885.975 641.333 837.821 600.743 802.004C574.173 778.552 543 763.944 512.137 750.312C509.527 749.159 506.919 748.013 504.316 746.869C476.113 734.478 448.527 722.357 425.149 704.458C357.57 652.718 334.619 546.609 361.379 454.569C364.558 443.636 367.658 432.65 370.754 421.675C387.551 362.142 404.254 302.945 432.953 254.352C469.216 192.974 464.608 132.77 444.114 83.3304C423.632 33.9202 387.267 -4.79323 359.881 -23.3311C313.341 -54.8288 227.898 -73.3879 122.769 -9.20104L122.768 -9.19997C71.396 22.3529 49.0137 74.9997 25.8109 132.638C25.037 134.56 24.2623 136.488 23.4855 138.421C0.947155 194.505 -23.3103 254.867 -76.1224 305.533C-114.798 342.628 -155.879 376.451 -200.436 395.39C-269.919 424.926 -347.027 429.369 -427.817 412.155C-465.799 404.063 -499.167 388.805 -531.037 374.232C-537.023 371.495 -542.956 368.782 -548.857 366.145C-586.139 349.486 -622.136 335.869 -661.859 338.696C-693.082 340.915 -723.495 353.574 -753.305 371.524C-783.113 389.472 -812.368 412.742 -841.267 436.226C-904.299 487.437 -977.639 536.45 -1056.93 542.463C-1149.35 549.466 -1241.32 488.949 -1277.03 404.301L-1278.42 404.983C-1242.48 490.191 -1149.95 551.091 -1056.88 544.039C-977.09 537.988 -903.426 488.693 -840.365 437.458C-811.46 413.969 -782.286 390.768 -752.586 372.884C-722.888 355.002 -692.713 342.468 -661.813 340.272C-622.48 337.473 -586.767 350.947 -549.498 367.601C-543.618 370.229 -537.698 372.936 -531.721 375.669C-499.851 390.244 -466.323 405.576 -428.175 413.704C-347.155 430.966 -269.732 426.53 -199.91 396.85C-155.084 377.796 -113.832 343.807 -75.1202 306.677C-22.0461 255.759 2.33013 195.098 24.8495 139.059C25.6364 137.1 26.421 135.148 27.2044 133.202C50.4328 75.4997 72.6473 23.387 123.499 -7.84638C228.124 -71.7248 312.953 -53.1755 359.022 -21.9961C386.192 -3.60472 422.36 34.8879 442.72 84.0035C463.067 133.089 467.611 192.731 431.672 253.562C402.851 302.36 386.08 361.807 369.287 421.333C366.194 432.296 363.101 443.262 359.931 454.164C333.032 546.681 356.031 653.535 424.223 705.744C447.745 723.753 475.489 735.942 503.66 748.319C506.271 749.466 508.886 750.615 511.502 751.77C542.368 765.403 573.354 779.937 599.739 803.227L600.241 802.615L599.739 803.227C640.068 838.813 664.973 886.669 675.615 935.052L676.353 934.848L675.615 935.052C687.267 987.999 684.087 1043.85 667.745 1098.37L669.19 1098.79Z" fill="#E8DDB5" fill-opacity="0.1"/>
</g>
<g style="mix-blend-mode:multiply">
<path fill-rule="evenodd" clip-rule="evenodd" d="M689.811 1083.69C704.011 1027.26 704.03 970.221 689.332 916.947C676.106 868.993 649.174 822.207 608.15 786.354L607.668 786.945L608.15 786.354C581.782 763.319 551.326 748.182 521.435 733.771C519.98 733.069 518.526 732.369 517.073 731.67C488.672 717.999 460.999 704.678 437.879 685.513C374.918 633.322 354.361 531.315 379.894 442.027C384.478 426.008 388.744 409.821 392.99 393.705C393.355 392.319 393.72 390.934 394.086 389.549C398.697 372.059 403.318 354.676 408.336 337.684C418.374 303.696 429.994 271.311 446.285 242.838C479.957 183.949 474.569 125.998 453.906 78.4293C433.255 30.8883 397.326 -6.34648 369.763 -23.9367C322.331 -54.2145 238.484 -69.206 137.119 -7.05878L137.117 -7.05759C87.105 23.8118 64.2229 74.5762 40.5404 129.91C39.7336 131.795 38.9258 133.685 38.1159 135.581C15.1323 189.372 -9.50904 247.042 -60.9097 295.318C-101.197 333.158 -144.867 366.447 -191.62 383.844C-263.24 410.48 -340.844 409.681 -422.954 392.754C-458.221 385.483 -489.83 372.976 -519.945 361.06C-528.247 357.776 -536.435 354.536 -544.555 351.463C-582.093 337.257 -618.158 326.63 -657.006 331.895C-687.573 336.032 -716.967 350.137 -745.774 369.17C-774.206 387.955 -802.119 411.575 -830.058 435.218L-831.157 436.148C-893.666 489.051 -968.323 537.973 -1048.32 543.047C-1143.36 549.061 -1235.83 485.328 -1274.9 399.494L-1276.28 400.216C-1236.98 486.543 -1143.99 550.68 -1048.29 544.624C-967.782 539.518 -892.797 490.312 -830.23 437.36L-829.168 436.461C-801.201 412.794 -773.351 389.227 -744.999 370.495C-716.291 351.528 -687.122 337.556 -656.868 333.461L-656.934 332.717L-656.868 333.461C-618.403 328.249 -582.625 338.757 -545.119 352.951C-537.038 356.009 -528.876 359.239 -520.591 362.517C-490.461 374.439 -458.703 387.006 -423.302 394.304C-341.039 411.263 -263.135 412.098 -191.16 385.33C-144.121 367.826 -100.268 334.371 -59.9199 296.474C-8.26209 247.956 16.501 189.997 39.4651 136.25C40.2853 134.33 41.1032 132.416 41.92 130.507C65.6267 75.1168 88.3367 24.8564 137.851 -5.70578C238.735 -67.557 321.982 -52.5534 368.937 -22.5804C396.268 -5.13787 431.996 31.8743 452.522 79.1264C473.035 126.351 478.344 183.738 444.992 242.067C428.605 270.708 416.941 303.237 406.89 337.272C401.863 354.291 397.237 371.696 392.626 389.185C392.261 390.571 391.895 391.956 391.53 393.343C387.283 409.46 383.022 425.629 378.443 441.629C352.78 531.375 373.373 634.097 436.909 686.765C460.169 706.045 487.988 719.436 516.344 733.085C517.814 733.792 519.285 734.5 520.757 735.21C550.659 749.626 580.948 764.69 607.151 787.581C647.942 823.23 674.723 869.754 687.875 917.437C702.494 970.427 702.481 1027.18 688.346 1083.34L689.811 1083.69Z" fill="#E8DDB5" fill-opacity="0.1"/>
</g>
<g style="mix-blend-mode:multiply">
<path fill-rule="evenodd" clip-rule="evenodd" d="M710.516 1068.55C722.532 1010.51 719.383 952.513 701.676 899.218L701.675 899.218C685.969 851.995 657.12 806.56 615.654 770.692C589.493 748.064 559.752 732.403 530.832 717.217L530.415 716.998C501.616 701.874 473.666 687.198 450.716 666.537L450.208 667.144L450.715 666.537C392.298 613.964 374.18 516.003 398.485 429.466C403.333 412.209 407.636 394.726 411.85 377.331C412.393 375.089 412.934 372.849 413.475 370.612C417.134 355.478 420.768 340.443 424.683 325.698C433.671 291.843 444.123 259.575 459.675 231.293C490.707 174.84 484.539 119.155 463.722 73.4786C442.916 27.8283 407.452 -7.89791 379.723 -24.5611C331.356 -53.6352 249.135 -65.0725 151.535 -4.9653L151.533 -4.96396C102.88 25.2214 79.4744 74.0746 55.3001 127.09C54.4501 128.954 53.5992 130.823 52.7462 132.696C29.3151 184.167 4.29453 239.128 -45.6318 285.055C-87.5808 323.648 -133.816 356.46 -182.749 372.274C-256.493 396.09 -334.569 390.004 -418.014 373.334C-449.915 366.966 -479.076 357.112 -506.864 347.722C-518.171 343.901 -529.251 340.157 -540.195 336.756C-577.991 325.011 -614.12 317.382 -652.098 325.07C-682.018 331.12 -710.396 346.669 -738.204 366.783C-762.748 384.537 -786.891 405.882 -811.28 427.443C-814.518 430.306 -817.761 433.173 -821.009 436.036C-883.013 490.673 -958.971 539.461 -1039.67 543.595C-1137.33 548.6 -1230.36 481.698 -1272.77 394.668L-1274.13 395.427C-1231.51 482.889 -1137.99 550.212 -1039.66 545.174C-958.438 541.013 -882.147 491.939 -820.058 437.226C-816.805 434.36 -813.559 431.49 -810.319 428.626C-785.925 407.06 -761.847 385.773 -737.373 368.07C-709.653 348.019 -681.483 332.61 -651.865 326.62L-651.978 325.868L-651.864 326.62C-614.26 319.008 -578.42 326.544 -540.678 338.272C-529.798 341.653 -518.756 345.384 -507.47 349.198C-479.65 358.599 -450.35 368.5 -418.353 374.886C-334.836 391.57 -256.462 397.716 -182.352 373.781C-133.117 357.87 -86.6851 324.89 -44.6544 286.222C5.52275 240.065 30.6675 184.827 54.0787 133.399C54.9423 131.501 55.8036 129.609 56.6637 127.723C80.8607 74.6584 104.091 26.2774 152.27 -3.61407C249.412 -63.4383 331.048 -51.9667 378.929 -23.1845C406.414 -6.66868 441.673 28.8335 462.349 74.2009C483.013 119.542 489.086 174.664 458.368 230.547C442.716 259.01 432.223 291.437 423.224 325.331C419.304 340.097 415.664 355.154 412.006 370.287C411.465 372.523 410.924 374.761 410.382 376.999C406.169 394.394 401.871 411.851 397.033 429.075C372.605 516.049 390.747 614.694 449.701 667.75C472.786 688.531 500.87 703.279 529.608 718.37L530.11 718.633C559.05 733.831 588.644 749.421 614.661 771.923C655.921 807.615 684.621 852.82 700.242 899.786C717.858 952.807 720.994 1010.51 709.035 1068.27L710.516 1068.55Z" fill="#E8DDB5" fill-opacity="0.1"/>
</g>
<g style="mix-blend-mode:multiply">
<path fill-rule="evenodd" clip-rule="evenodd" d="M731.162 1053.44C740.985 993.802 734.726 934.829 713.952 881.541L713.258 881.858L713.952 881.54C695.803 835.013 665.029 790.948 623.101 755.057C598.41 733.904 570.933 718.243 544.25 703.034C542.889 702.259 541.53 701.484 540.174 700.71C512.199 684.746 485.313 669.002 463.495 647.591C409.616 594.707 393.951 500.698 417.028 416.91C423.104 394.861 428.019 372.367 432.875 350.146C435.549 337.908 438.205 325.753 441.027 313.8C448.983 280.101 458.269 247.943 473.017 219.751C501.332 165.655 494.377 112.241 473.422 68.4795C452.477 24.7411 417.515 -9.43681 389.633 -25.1793C340.315 -53.0065 259.729 -60.9112 165.893 -2.84447L165.89 -2.84293C118.595 26.6688 94.6426 73.5951 69.9646 124.284C69.0628 126.136 68.16 127.994 67.2551 129.855C43.3737 178.989 17.9809 231.232 -30.4191 274.841C-74.0643 314.151 -122.799 346.56 -173.945 360.754C-249.774 381.768 -328.353 370.303 -413.13 353.941C-435.494 349.626 -456.666 343.984 -477.009 338.258C-481.839 336.899 -486.623 335.534 -491.366 334.181C-506.59 329.839 -521.387 325.619 -535.894 322.08C-573.954 312.794 -610.15 308.161 -647.247 318.275C-676.503 326.257 -703.855 343.266 -730.66 364.468C-751.524 380.972 -772.096 400.051 -792.989 419.428C-798.931 424.939 -804.899 430.474 -810.907 435.98C-872.397 492.33 -949.675 540.976 -1031.06 544.179C-1131.33 548.123 -1224.87 478.075 -1270.65 389.865L-1271.98 390.658C-1226.01 479.244 -1132.03 549.729 -1031.06 545.758C-949.152 542.534 -871.533 493.601 -809.931 437.149C-803.907 431.627 -797.928 426.083 -791.98 420.567C-771.094 401.196 -750.584 382.175 -729.774 365.714C-703.045 344.571 -675.886 327.707 -646.917 319.803C-610.182 309.787 -574.274 314.353 -536.292 323.619C-521.814 327.151 -507.053 331.361 -491.835 335.702C-487.088 337.056 -482.297 338.422 -477.455 339.785C-457.102 345.514 -435.885 351.168 -413.461 355.494C-328.697 371.854 -249.809 383.396 -173.608 362.28L-173.776 361.517L-173.608 362.28C-122.145 347.998 -73.1986 315.419 -29.4543 276.02L-29.9366 275.43L-29.4542 276.019C19.1893 232.191 44.7083 179.686 68.5692 130.592C69.4849 128.708 70.3981 126.829 71.3101 124.956C96.0085 74.225 119.783 27.7385 166.629 -1.49363C260.032 -59.2928 340.049 -51.3317 388.873 -23.7832C416.497 -8.18656 451.249 25.7668 472.061 69.2281C492.862 112.666 499.705 165.52 471.694 219.036C456.845 247.421 447.52 279.747 439.557 313.478C436.721 325.491 434.059 337.673 431.383 349.921C426.534 372.109 421.638 394.516 415.573 416.527L416.301 416.719L415.573 416.528C392.382 500.727 408.059 595.39 462.435 648.761L462.965 648.176L462.435 648.761C484.406 670.322 511.452 686.149 539.408 702.103C540.754 702.871 542.102 703.639 543.452 704.409C570.161 719.633 597.529 735.232 622.113 756.293L622.589 755.698L622.113 756.294C663.865 792.034 694.491 835.898 712.546 882.183C733.216 935.205 739.445 993.883 729.669 1053.23L731.162 1053.44Z" fill="#E8DDB5" fill-opacity="0.1"/>
</g>
<g style="mix-blend-mode:multiply">
<path fill-rule="evenodd" clip-rule="evenodd" d="M751.745 1038.3C759.372 977.024 750.056 917.118 726.175 863.82L725.487 864.176L726.175 863.82C705.633 817.981 672.865 775.283 630.495 739.377C607.722 720.079 582.925 704.817 558.824 689.984C555.688 688.053 552.563 686.13 549.456 684.206C522.452 667.485 496.791 650.711 476.235 628.631C426.843 575.565 413.672 485.399 435.542 404.367C444.3 371.941 452.478 339.524 460.461 307.878L461.543 303.589C469.87 270.584 478.004 238.46 486.388 208.072C517.058 96.9989 455.556 3.84752 399.494 -25.7915C349.245 -52.3643 270.292 -56.736 180.222 -0.710096L180.219 -0.708437C134.285 28.1184 109.773 73.0931 84.5845 121.444C83.6239 123.288 82.6623 125.136 81.6985 126.99C57.3673 173.771 31.6104 223.293 -15.2269 264.619C-60.5528 304.605 -111.791 336.684 -165.133 349.214C-238.546 366.458 -310.131 352.994 -392.837 337.438C-397.931 336.48 -403.066 335.514 -408.247 334.547C-430.54 330.386 -451.783 325.303 -472.25 320.406L-472.282 320.398C-492.731 315.506 -512.411 310.797 -531.559 307.388C-569.878 300.566 -606.144 298.934 -642.369 311.471C-670.979 321.375 -697.309 339.835 -723.108 362.121C-740.632 377.257 -757.95 394.194 -775.581 411.439C-783.895 419.57 -792.279 427.77 -800.787 435.881C-861.734 493.98 -940.353 542.427 -1022.44 544.742C-1125.32 547.632 -1219.38 474.451 -1268.51 385.041L-1269.84 385.866C-1220.52 475.599 -1126.03 549.231 -1022.46 546.321C-939.841 543.991 -860.871 495.258 -799.789 437.029C-791.245 428.884 -782.843 420.665 -774.519 412.525C-756.909 395.301 -739.654 378.425 -722.169 363.322C-696.432 341.091 -670.282 322.779 -641.942 312.968C-606.065 300.552 -570.085 302.142 -531.869 308.946C-512.763 312.347 -493.117 317.048 -472.652 321.945L-472.642 321.947C-452.18 326.843 -430.903 331.934 -408.569 336.103C-403.358 337.076 -398.192 338.047 -393.066 339.012C-310.455 354.552 -238.58 368.072 -164.854 350.755C-111.18 338.147 -59.7149 305.895 -14.2746 265.808C32.7975 224.276 58.6818 174.506 82.9922 127.762C83.9667 125.889 84.9387 124.02 85.9094 122.156C111.117 73.7705 135.45 29.2012 180.961 0.63883C270.625 -55.1343 349.022 -50.6832 398.769 -24.3767C454.301 4.98241 515.376 97.4397 484.933 207.689C476.544 238.098 468.406 270.239 460.079 303.243L458.997 307.531C451.013 339.179 442.839 371.583 434.085 403.993C412.111 485.41 425.281 576.198 475.128 629.754L475.682 629.193L475.128 629.754C495.832 651.992 521.646 668.854 548.646 685.573C551.757 687.499 554.883 689.423 558.019 691.353C582.129 706.193 606.829 721.396 629.513 740.618C671.735 776.4 704.358 818.923 724.798 864.533C748.563 917.572 757.832 977.181 750.243 1038.16L751.745 1038.3Z" fill="#E8DDB5" fill-opacity="0.1"/>
</g>
<g style="mix-blend-mode:multiply">
<path fill-rule="evenodd" clip-rule="evenodd" d="M772.437 1023.19C777.87 960.317 765.51 899.384 738.498 846.14C715.579 800.947 680.822 759.666 637.991 723.737C617.483 706.533 595.612 692.091 574.312 678.026C569.101 674.586 563.925 671.168 558.812 667.738C532.769 650.269 508.331 632.471 489.063 609.684C444.094 556.483 433.449 470.074 454.133 391.805C466.134 346.374 476.296 300.828 486.003 257.322C490.646 236.513 495.184 216.17 499.77 196.529C524.481 90.7422 465.819 1.4562 409.444 -26.3933C358.235 -51.6973 280.84 -52.7646 194.627 1.40596C149.997 29.4514 124.91 72.4564 99.2162 118.483C98.1681 120.361 97.1189 122.243 96.0673 124.13C71.3204 168.538 45.2415 215.335 0.042462 254.377L0.447441 254.895L0.0423414 254.377C-47.006 295.024 -100.725 326.832 -156.275 337.67C-222.208 350.535 -287.797 337.626 -357.752 323.858C-372.731 320.91 -387.91 317.923 -403.336 315.141C-418.721 312.368 -433.688 309.346 -448.282 306.4C-475.82 300.84 -502.032 295.547 -527.226 292.705C-565.807 288.353 -602.143 289.722 -637.49 304.669C-665.441 316.489 -690.739 336.41 -715.531 359.784C-729.986 373.412 -744.314 388.262 -758.903 403.381C-769.306 414.162 -779.841 425.08 -790.648 435.791C-851.079 495.653 -931.032 543.878 -1013.83 545.304C-1119.31 547.112 -1213.9 470.818 -1266.39 380.24L-1267.7 381.094C-1215.05 471.948 -1120.05 548.704 -1013.86 546.884C-930.532 545.448 -850.218 496.936 -789.627 436.916C-778.755 426.142 -768.204 415.206 -757.8 404.423C-743.247 389.34 -728.984 374.556 -714.539 360.938C-689.799 337.612 -664.664 317.843 -636.967 306.131C-601.952 291.324 -565.901 289.938 -527.445 294.276C-502.309 297.112 -476.207 302.383 -448.713 307.934C-434.106 310.884 -419.105 313.913 -403.649 316.698C-388.281 319.47 -373.14 322.45 -358.184 325.395C-288.219 339.169 -222.293 352.147 -156.051 339.222C-100.154 328.317 -46.1936 296.335 0.981969 255.578C46.4054 216.342 72.6121 169.314 97.3382 124.942C98.4004 123.035 99.4599 121.134 100.518 119.238C126.228 73.1818 151.137 30.5481 195.372 2.75101C281.202 -51.1786 358.055 -50.0121 408.753 -24.9605C464.563 2.60985 522.826 91.2083 498.299 196.211C493.706 215.884 489.163 236.244 484.518 257.062C474.815 300.551 464.666 346.04 452.674 391.44C431.896 470.065 442.526 557.062 487.911 610.754C507.32 633.708 531.905 651.6 557.958 669.076C563.09 672.519 568.279 675.945 573.497 679.391C594.791 693.452 616.576 707.837 637.014 724.983C679.728 760.813 714.344 801.944 737.152 846.92L737.814 846.536L737.153 846.92C764.037 899.911 776.335 960.546 770.928 1023.11L772.437 1023.19Z" fill="#E8DDB5" fill-opacity="0.1"/>
</g>
<g style="mix-blend-mode:multiply">
<path fill-rule="evenodd" clip-rule="evenodd" d="M793.136 1008.05C796.364 943.562 781.01 881.596 750.837 828.419C725.551 783.85 688.796 744.005 645.503 708.053C627.689 693.262 609.053 680.168 590.838 667.37C583.176 661.986 575.588 656.654 568.168 651.271C543.08 633.071 519.864 614.254 501.901 590.718L501.34 591.191L501.901 590.718C461.263 537.495 453.227 454.752 472.726 379.243C487.59 321.656 498.413 263.763 508.484 209.894C510.058 201.479 511.612 193.163 513.161 184.962C532.127 84.5706 476.04 -0.952031 419.382 -27.0238C367.196 -51.0166 291.46 -48.6154 209.013 3.51352C165.761 30.8663 140.095 71.8801 113.88 115.551C112.76 117.417 111.639 119.287 110.516 121.162C85.3222 163.202 58.8989 207.295 15.3127 244.135C-33.512 285.4 -89.6668 317.003 -147.416 326.127C-188.467 332.613 -229.017 328.886 -270.416 321.596C-290.491 318.061 -310.754 313.691 -331.369 309.245L-333.295 308.83C-354.57 304.242 -376.222 299.599 -398.403 295.742C-404.675 294.651 -410.887 293.552 -417.041 292.463C-454.357 285.859 -489.529 279.634 -522.855 278.021C-561.694 276.142 -598.095 280.52 -632.569 297.887C-659.864 311.632 -684.131 333.012 -707.917 357.471C-719.665 369.552 -731.307 382.396 -743.14 395.452L-743.584 395.941C-755.574 409.168 -767.765 422.608 -780.487 435.708C-840.343 497.356 -921.669 545.344 -1005.17 545.883C-1113.28 546.579 -1208.39 467.2 -1264.24 375.426L-1265.53 376.308C-1209.54 468.313 -1114.04 548.163 -1005.22 547.463C-921.181 546.921 -839.481 498.646 -779.444 436.811C-766.699 423.687 -754.489 410.228 -742.502 397.003L-742.054 396.509C-730.218 383.451 -718.598 370.63 -706.875 358.575C-683.13 334.158 -659.011 312.931 -631.953 299.305L-632.26 298.596L-631.952 299.305C-597.794 282.096 -561.673 277.727 -522.983 279.6C-489.756 281.208 -454.686 287.414 -417.363 294.018C-411.206 295.108 -404.989 296.208 -398.708 297.301C-376.558 301.153 -354.933 305.789 -333.656 310.377L-331.719 310.795C-311.112 315.24 -290.826 319.615 -270.724 323.154C-229.259 330.456 -188.528 334.212 -147.246 327.689C-89.1339 318.508 -32.7231 286.729 16.2391 245.348C60.0382 208.327 86.5884 164.021 111.761 122.013C112.895 120.121 114.026 118.234 115.155 116.352C141.386 72.6565 166.875 31.9777 209.762 4.85626C291.853 -47.048 367.062 -49.3272 418.727 -25.5742C474.787 0.222945 530.501 85.065 511.675 184.714C510.125 192.92 508.57 201.239 506.997 209.655C496.925 263.528 486.113 321.36 471.264 378.887C451.682 454.718 459.69 538.017 500.702 591.73C518.8 615.444 542.158 634.361 567.271 652.579C574.728 657.989 582.337 663.335 590.011 668.727C608.206 681.511 626.765 694.552 644.532 709.304C687.738 745.184 724.356 784.897 749.525 829.262L750.181 828.841L749.525 829.262C779.558 882.19 794.835 943.857 791.623 1008.03L793.136 1008.05Z" fill="#E8DDB5" fill-opacity="0.1"/>
</g>
<g style="mix-blend-mode:multiply">
<path fill-rule="evenodd" clip-rule="evenodd" d="M813.719 992.977C814.754 926.892 796.415 863.873 763.052 810.777L762.414 811.228L763.052 810.777C735.428 766.818 696.633 728.391 652.893 692.446C638.299 680.455 623.265 669.317 608.494 658.374C597.901 650.526 587.442 642.779 577.38 634.889C553.235 615.957 531.239 596.116 514.623 571.809C478.252 518.612 472.87 439.477 491.202 366.735C507.833 300.739 517.824 234.213 526.456 173.455C539.931 78.5326 486.167 -3.24831 429.238 -27.5621C376.102 -50.2576 302.025 -44.3874 223.345 5.69929C181.457 32.3655 155.196 71.3744 128.451 112.68C127.253 114.53 126.054 116.385 124.852 118.244C99.2122 157.909 72.4578 199.299 30.509 233.964C-20.1091 275.768 -78.6931 307.267 -138.626 314.634C-180.739 319.809 -221.928 314.034 -263.875 305.061C-279.293 301.763 -294.827 298.029 -310.546 294.25C-337.543 287.761 -365.087 281.14 -393.528 276.37C-481.842 261.57 -560.556 251.589 -627.723 291.128C-654.352 306.8 -677.579 329.643 -700.355 355.189C-709.716 365.69 -718.986 376.628 -728.385 387.718C-741.899 403.664 -755.68 419.925 -770.384 435.653C-829.656 499.065 -912.367 546.788 -996.559 546.467C-1107.27 546.037 -1202.89 463.574 -1262.12 370.626L-1263.39 371.535C-1204.04 464.671 -1108.04 547.614 -996.623 548.047L-996.591 547.257L-996.623 548.047C-911.892 548.37 -828.794 500.363 -769.319 436.734C-754.609 420.999 -740.76 404.659 -727.211 388.673C-717.813 377.586 -708.56 366.668 -699.264 356.241C-676.52 330.73 -653.428 308.04 -627.017 292.496C-560.399 253.281 -482.232 263.114 -393.824 277.931C-365.42 282.694 -337.978 289.291 -311.022 295.771C-295.292 299.553 -279.727 303.295 -264.233 306.609C-222.236 315.593 -180.86 321.407 -138.506 316.203C-78.1952 308.79 -19.3417 277.112 31.4215 235.188C73.5701 200.357 100.449 158.773 126.069 119.138C127.28 117.264 128.489 115.394 129.696 113.53C156.454 72.2039 182.543 33.4928 224.098 7.03935C302.452 -42.8401 376.016 -48.5644 428.618 -26.0966C484.923 -2.04955 538.333 79.0586 524.957 173.282C516.325 234.039 506.345 300.488 489.738 366.388C471.334 439.416 476.673 519.073 513.378 572.758C530.122 597.252 552.257 617.203 576.44 636.165C586.58 644.115 597.056 651.875 607.651 659.723C622.379 670.633 637.335 681.711 651.927 693.701C695.613 729.601 734.273 767.912 761.775 811.678C794.985 864.53 813.234 927.25 812.204 993.011L813.719 992.977Z" fill="#E8DDB5" fill-opacity="0.1"/>
</g>
<g style="mix-blend-mode:multiply">
<path fill-rule="evenodd" clip-rule="evenodd" d="M834.376 977.829C833.214 910.104 811.918 846.017 775.35 793.045C745.417 749.682 704.574 712.692 660.365 676.747C649.519 667.925 638.527 659.445 627.66 651.061C626.06 649.827 624.463 648.595 622.869 647.364C610.447 637.769 598.24 628.253 586.635 618.428C563.423 598.777 542.65 577.918 527.428 552.811C495.229 499.702 492.623 424.1 509.791 354.121C525.854 288.685 534.222 222.66 539.84 161.831C548.103 72.3878 496.412 -5.67275 439.192 -28.2348C385.063 -49.5761 312.66 -40.2801 237.748 7.76403C197.22 33.7537 170.352 70.7461 143.07 109.681C141.794 111.503 140.516 113.33 139.236 115.159C113.145 152.455 86.0687 191.16 45.7684 223.693C-6.68469 266.02 -67.666 297.454 -129.782 303.064C-172.956 306.952 -214.792 299.133 -257.29 288.475C-269.242 285.477 -281.251 282.254 -293.356 279.004C-324.257 270.71 -355.786 262.246 -388.607 256.942C-476.686 242.714 -557.378 239.94 -622.821 284.292C-648.799 301.898 -670.993 326.207 -692.762 352.842C-700.045 361.753 -707.277 370.919 -714.587 380.184C-729.154 398.647 -744.033 417.506 -760.255 435.534C-818.94 500.76 -903.019 548.174 -987.933 547.008L-987.972 547.798L-987.933 547.008C-1101.25 545.474 -1197.39 459.925 -1259.98 365.806L-1261.24 366.74C-1198.55 461.007 -1102.04 547.044 -988.011 548.588C-902.558 549.762 -818.078 502.065 -759.169 436.591C-742.913 418.526 -727.972 399.589 -713.384 381.1C-706.083 371.846 -698.87 362.704 -691.625 353.84C-669.878 327.232 -647.807 303.076 -622.031 285.607C-557.124 241.619 -476.96 244.278 -388.895 258.504C-356.15 263.796 -324.731 272.23 -293.855 280.517C-281.734 283.771 -269.697 287.002 -257.697 290.012C-215.161 300.68 -173.134 308.549 -129.709 304.638C-67.2007 298.993 -5.93734 267.378 46.6665 224.928L46.2175 224.31L46.6666 224.928C87.1514 192.246 114.348 153.368 140.418 116.101C141.708 114.256 142.996 112.416 144.282 110.581C171.574 71.6304 198.278 34.898 238.506 9.10123C313.122 -38.7541 385.024 -47.8806 438.609 -26.7541C495.181 -4.44777 546.534 72.9488 538.333 161.739C532.717 222.534 524.358 288.465 508.324 353.785C491.097 424.005 493.646 500.098 526.139 553.692C541.481 578.997 562.39 599.975 585.653 619.67C597.286 629.518 609.515 639.052 621.938 648.646C623.534 649.879 625.134 651.114 626.736 652.35C637.602 660.733 648.576 669.199 659.405 678.006C703.593 713.935 744.301 750.818 774.109 794C810.512 846.733 831.705 910.52 832.861 977.918L834.376 977.829Z" fill="#E8DDB5" fill-opacity="0.1"/>
</g>
<g style="mix-blend-mode:multiply">
<path fill-rule="evenodd" clip-rule="evenodd" d="M855.022 962.705C851.667 893.39 827.421 828.164 787.63 775.358C755.386 732.542 712.495 697.036 667.82 661.09C660.925 655.543 654.017 650.098 647.157 644.691C604.899 611.384 564.467 579.517 540.226 533.889C512.085 480.921 512.313 408.825 528.346 341.593C543.81 276.732 550.801 211.179 553.189 150.29C556.484 66.2972 506.583 -7.97697 449.092 -28.8289C393.996 -48.8297 323.267 -36.1074 252.105 9.88534C212.948 35.2019 185.466 70.1556 157.642 106.704C156.292 108.477 154.941 110.254 153.588 112.034C127.037 146.964 99.6404 183.005 60.9899 213.456C6.67645 256.251 -56.6748 287.727 -120.957 291.538C-165.211 294.157 -207.701 284.285 -250.753 271.931C-260 269.277 -269.275 266.508 -278.598 263.725C-312.647 253.56 -347.345 243.202 -383.724 237.549C-471.544 223.903 -554.229 228.361 -617.943 277.523C-643.255 297.054 -664.406 322.834 -685.164 350.559C-690.663 357.903 -696.133 365.382 -701.646 372.92C-716.964 393.863 -732.611 415.258 -750.122 435.465C-808.173 502.499 -893.688 549.604 -979.305 547.6C-1095.25 544.882 -1191.92 456.311 -1257.86 361.008L-1259.1 361.965C-1193.08 457.38 -1096.05 546.445 -979.397 549.18C-893.241 551.197 -807.309 503.814 -749.016 436.5C-731.456 416.235 -715.748 394.758 -700.417 373.797C-694.914 366.272 -689.459 358.813 -683.984 351.501C-663.24 323.796 -642.2 298.169 -617.072 278.78C-553.874 230.016 -471.709 225.483 -384.003 239.112C-347.729 244.749 -313.154 255.07 -279.117 265.23C-269.781 268.018 -260.485 270.792 -251.206 273.455C-208.13 285.817 -165.442 295.75 -120.929 293.115C-56.2394 289.281 7.40606 257.619 61.8732 214.704C100.691 184.121 128.203 147.927 154.733 113.024C156.095 111.231 157.455 109.442 158.814 107.657C186.648 71.0961 213.976 36.3642 252.867 11.2196C323.768 -34.6044 394.008 -47.1329 448.546 -27.3343C505.371 -6.72408 554.946 66.8989 551.675 150.286C549.291 211.099 542.309 276.54 526.876 341.268C510.798 408.692 510.499 481.247 538.894 534.694C563.295 580.623 604.004 612.703 646.248 645.993C653.101 651.394 659.995 656.826 666.866 662.355C711.556 698.313 754.307 733.714 786.425 776.363L786.995 775.888L786.425 776.363C826.038 828.933 850.17 893.86 853.509 962.845L855.022 962.705Z" fill="#E8DDB5" fill-opacity="0.1"/>
</g>
<g style="mix-blend-mode:multiply">
<path fill-rule="evenodd" clip-rule="evenodd" d="M875.664 947.654C870.104 876.721 842.935 810.342 799.913 757.724C768.697 719.537 729.001 688.078 688.34 655.853C683.994 652.409 679.637 648.956 675.278 645.485C674.002 644.468 672.726 643.452 671.45 642.437C623.83 604.527 576.902 567.17 553.015 514.991L552.329 515.353L553.015 514.991C528.814 462.167 532.012 393.532 546.901 329.065C561.746 264.774 567.614 199.639 566.535 138.746C565.146 60.1399 516.763 -10.2526 459.013 -29.4144C402.924 -48.0102 333.966 -31.749 266.495 12.0434L266.493 12.045C228.744 36.7499 200.649 69.6462 172.275 103.783C170.908 105.428 169.54 107.076 168.17 108.726C141.099 141.338 113.334 174.784 76.2446 203.257C20.0131 246.423 -45.6521 278.039 -112.113 280.02C-157.447 281.371 -200.579 269.444 -244.174 255.391C-251.275 253.102 -258.389 250.756 -265.526 248.403C-302.175 236.318 -339.445 224.029 -378.792 218.151C-466.371 205.079 -550.954 216.886 -613.031 270.74L-613.033 270.742C-637.641 292.25 -657.753 319.492 -677.514 348.289C-681.524 354.133 -685.52 360.04 -689.535 365.977C-705.325 389.323 -721.428 413.133 -739.981 435.375C-797.426 504.231 -884.36 550.984 -970.689 548.163C-1089.23 544.268 -1186.42 452.662 -1255.73 356.19L-1256.95 357.168C-1187.59 453.718 -1090.05 545.824 -970.794 549.742L-970.758 549.204L-970.794 549.742C-883.928 552.58 -796.56 505.554 -738.855 436.386C-720.243 414.073 -704.079 390.174 -688.285 366.821C-684.275 360.892 -680.29 354.999 -676.294 349.176C-656.54 320.39 -636.527 293.299 -612.087 271.937C-550.494 218.505 -466.431 206.674 -379.063 219.715C-339.847 225.574 -302.711 237.818 -266.063 249.902C-258.917 252.257 -251.791 254.607 -244.671 256.902C-201.064 270.959 -157.729 282.959 -112.128 281.599C-45.2443 279.605 20.7267 247.801 77.112 204.517C114.35 175.93 142.221 142.354 169.272 109.766C170.651 108.105 172.028 106.447 173.404 104.792C201.786 70.645 229.739 37.932 267.26 13.3759C334.508 -30.2722 402.988 -46.3132 458.504 -27.9071C515.576 -8.97005 563.641 60.7878 565.021 138.836C566.097 199.606 560.24 264.605 545.428 328.751C530.508 393.354 527.226 462.42 551.643 515.716C575.682 568.226 622.858 605.78 670.374 643.604C671.693 644.654 673.011 645.704 674.33 646.754C678.688 650.224 683.042 653.675 687.383 657.116C728.066 689.359 767.635 720.719 798.745 758.775C841.577 811.161 868.62 877.241 874.154 947.842L875.664 947.654Z" fill="#E8DDB5" fill-opacity="0.1"/>
</g>
<g style="mix-blend-mode:multiply">
<path fill-rule="evenodd" clip-rule="evenodd" d="M896.299 932.503C888.554 859.96 858.452 792.398 812.182 740.011C782.965 706.906 747.389 679.609 711.179 651.826C701.703 644.555 692.183 637.25 682.722 629.799L682.251 630.436L682.722 629.799C634.251 591.634 587.147 551.308 565.778 496.037C545.421 443.368 551.669 378.228 565.444 316.507C579.653 252.833 584.706 187.984 579.859 127.191C574.004 53.8306 526.019 -12.8109 468.893 -30.0153C411.813 -47.2056 344.532 -27.5905 280.832 14.1573L280.83 14.1588C244.448 38.1742 215.73 69.003 186.81 100.742C185.432 102.254 184.053 103.769 182.673 105.285C155.08 135.599 126.959 166.492 91.4479 193.013C33.2323 236.477 -34.7196 268.34 -103.33 268.48C-149.753 268.584 -193.528 254.602 -237.664 238.847C-243.032 236.931 -248.406 234.988 -253.79 233.042C-292.642 218.997 -332.05 204.752 -373.928 198.75C-461.234 186.24 -547.837 205.28 -608.166 263.966L-608.168 263.968C-632.107 287.39 -651.168 316.105 -669.915 345.997C-672.686 350.416 -675.45 354.86 -678.222 359.316C-694.219 385.035 -710.48 411.178 -729.868 435.299C-786.658 505.971 -875.011 552.371 -962.072 548.726C-1083.22 543.654 -1180.93 449.055 -1253.6 351.393L-1254.81 352.392C-1182.1 450.099 -1084.04 545.203 -962.19 550.305C-874.595 553.972 -785.79 507.303 -728.722 436.287C-709.266 412.08 -692.945 385.839 -676.949 360.122C-674.18 355.67 -671.421 351.234 -668.657 346.826C-649.912 316.938 -630.941 288.374 -607.156 265.102C-547.277 206.855 -461.198 187.848 -374.191 200.315C-332.467 206.296 -293.207 220.487 -254.341 234.535C-248.956 236.481 -243.579 238.425 -238.203 240.344C-194.065 256.099 -150.083 270.164 -103.385 270.06C-34.3369 269.919 33.9316 237.863 92.2982 194.285L91.8731 193.649L92.2983 194.285C127.937 167.669 156.154 136.67 183.728 106.377C185.116 104.851 186.503 103.328 187.889 101.807C216.817 70.0593 245.411 39.3757 281.605 15.4847C345.117 -26.1401 411.928 -45.51 468.422 -28.496C524.869 -11.496 572.536 54.5359 578.349 127.382C583.182 187.998 578.145 252.68 563.969 316.205C550.179 377.995 543.834 443.543 564.37 496.675C585.908 552.384 633.34 592.932 681.78 631.073C691.276 638.552 700.819 645.874 710.31 653.157C746.505 680.93 781.936 708.116 811.05 741.105L811.616 740.558L811.05 741.105C857.117 793.263 887.084 860.527 894.793 932.737L896.299 932.503Z" fill="#E8DDB5" fill-opacity="0.1"/>
</g>
<g style="mix-blend-mode:multiply">
<path fill-rule="evenodd" clip-rule="evenodd" d="M916.915 917.396C906.966 843.236 873.939 774.471 824.442 722.322L823.894 722.888L824.442 722.322C796.292 692.686 763.092 668.291 729.511 643.618C716.355 633.951 703.141 624.242 690.149 614.158C642.2 576.648 596.557 534.075 578.531 477.107C561.895 424.544 571.293 362.892 583.966 303.941C597.555 240.844 602.113 176.179 593.187 115.611C583.119 47.2766 536.88 -14.8707 478.801 -30.6291C420.762 -46.3766 355.136 -23.4149 295.208 16.2873L295.206 16.2884C260.193 39.6136 230.852 68.3624 201.386 97.6963C200.103 98.9734 198.82 100.252 197.536 101.53C169.317 129.642 140.749 158.101 106.692 182.784C46.4342 226.452 -23.7686 258.651 -94.5088 256.955C-142.02 255.812 -186.433 239.722 -231.11 222.238C-234.952 220.734 -238.796 219.22 -242.644 217.705C-283.506 201.612 -324.824 185.339 -369.023 179.365C-456.029 167.23 -544.669 193.672 -603.27 257.178L-602.734 257.714L-603.271 257.179C-626.563 282.507 -644.575 312.689 -662.308 343.674C-664.109 346.82 -665.907 349.975 -667.707 353.134C-683.648 381.105 -699.774 409.401 -719.746 435.202C-775.872 507.718 -865.683 553.75 -953.455 549.289C-1077.19 542.997 -1175.44 445.397 -1251.47 346.576L-1252.66 347.593C-1176.63 446.43 -1078.02 544.54 -953.587 550.867C-865.282 555.356 -775 509.059 -718.582 436.165C-698.534 410.266 -682.348 381.865 -666.416 353.908C-664.614 350.747 -662.816 347.591 -661.015 344.445C-643.28 313.456 -625.349 283.425 -602.198 258.251C-544.011 195.194 -455.901 168.85 -369.28 180.931L-369.277 180.932C-325.258 186.881 -284.098 203.09 -243.206 219.194C-239.365 220.706 -235.527 222.218 -231.689 223.72C-187.022 241.2 -142.395 257.385 -94.6015 258.535C-23.4088 260.241 47.1209 227.843 107.524 184.07C141.685 159.311 170.334 130.771 198.534 102.679C199.827 101.391 201.118 100.104 202.409 98.8192C231.884 69.4774 261.121 40.8371 295.987 17.6105C355.766 -21.9932 420.927 -44.6841 478.367 -29.0991C535.767 -13.525 581.689 48.0368 591.689 115.909C600.58 176.24 596.045 240.701 582.489 303.651C569.818 362.594 560.312 424.641 577.09 477.654C595.269 535.104 641.25 577.916 689.211 615.435L689.213 615.436C702.274 625.574 715.53 635.314 728.709 644.998C762.25 669.642 795.291 693.919 823.346 723.455C872.628 775.378 905.51 843.846 915.415 917.674L916.915 917.396Z" fill="#E8DDB5" fill-opacity="0.1"/>
</g>
<g style="mix-blend-mode:multiply">
<path fill-rule="evenodd" clip-rule="evenodd" d="M937.613 902.322C925.472 826.574 889.516 756.554 836.776 704.687C816.017 684.283 792.887 666.713 769.13 649.766C761.751 644.502 754.314 639.3 746.869 634.092C730.327 622.521 713.743 610.92 697.655 598.545C650.13 561.826 605.898 516.842 591.362 458.211L590.719 458.409L591.362 458.211C578.661 407.051 590.328 350.611 601.667 295.76C601.966 294.315 602.264 292.87 602.562 291.427C615.459 228.911 619.91 164.153 606.563 104.073C592.429 40.4494 547.798 -16.9072 488.741 -31.2053C429.715 -45.496 365.768 -19.2522 309.604 18.4256L309.604 18.4261C275.963 41.0495 246.004 67.7009 215.99 94.6236C215.045 95.4715 214.1 96.3197 213.154 97.168C184.067 123.266 154.819 149.51 121.957 172.562C59.6155 216.296 -12.7742 249.028 -85.6472 245.447C-134.273 243.06 -179.333 224.925 -224.547 205.74C-227.259 204.59 -229.971 203.435 -232.684 202.281C-275.179 184.194 -318.004 165.967 -364.092 159.967C-450.872 148.473 -541.498 182.068 -598.35 250.398L-597.801 250.89L-598.351 250.399C-620.98 277.65 -637.943 309.313 -654.665 341.395C-655.701 343.383 -656.736 345.372 -657.771 347.363C-673.46 377.516 -689.231 407.828 -709.592 435.142C-765.04 509.53 -856.312 555.023 -944.808 549.89C-1071.13 542.181 -1169.94 441.796 -1249.32 341.789L-1250.5 342.824C-1171.13 442.821 -1071.96 543.717 -944.952 551.467L-944.95 551.467C-855.929 556.631 -764.165 510.883 -708.409 436.081C-687.966 408.657 -672.137 378.234 -656.463 348.108C-655.422 346.106 -654.381 344.106 -653.34 342.108C-636.613 310.014 -619.722 278.504 -597.223 251.407C-540.748 183.53 -450.657 150.102 -364.339 161.534L-364.337 161.534C-318.451 167.508 -275.796 185.662 -233.258 203.766C-230.559 204.914 -227.862 206.062 -225.164 207.207C-179.968 226.384 -134.689 244.624 -85.7762 247.025C-12.4348 250.629 60.2926 217.691 122.769 173.862C155.71 150.754 185.022 124.454 214.091 98.3719C215.045 97.5158 215.999 96.66 216.952 95.8045C246.974 68.8746 276.855 42.2966 310.39 19.7443C366.445 -17.8604 429.93 -43.8081 488.345 -29.6655C546.73 -15.5302 591.043 41.2718 605.086 104.485C618.366 164.263 613.951 228.769 601.082 291.151C600.773 292.648 600.463 294.147 600.153 295.647C588.84 350.366 577.103 407.136 589.895 458.661L590.629 458.436L589.895 458.661C604.561 517.82 649.143 563.066 696.725 599.828L696.726 599.829C712.84 612.225 729.469 623.857 746.024 635.437C753.463 640.64 760.887 645.834 768.242 651.081C791.983 668.016 815.038 685.533 835.714 705.856C888.228 757.5 924.03 827.224 936.118 902.64L937.613 902.322Z" fill="#E8DDB5" fill-opacity="0.1"/>
</g>
<g style="mix-blend-mode:multiply">
<path fill-rule="evenodd" clip-rule="evenodd" d="M958.229 887.218C943.892 809.832 905.029 738.565 849.045 686.979C827.136 666.799 802.916 649.736 778.299 633.239C772.933 629.643 767.549 626.074 762.166 622.506C742.84 609.697 723.526 596.895 705.098 582.86C658 546.981 615.052 499.491 604.138 439.272C599.387 413.015 600.997 386.275 605.119 359.404C607.819 341.809 611.586 324.206 615.343 306.651C617.329 297.369 619.313 288.1 621.134 278.854C633.339 216.923 637.997 151.743 619.91 92.4732C601.831 33.1822 557.46 -19.279 498.678 -31.8317C438.656 -44.644 376.378 -15.0959 323.988 20.5347C291.94 42.3233 261.562 66.6814 231.215 91.015L230.574 91.5292C200.005 116.041 169.455 140.509 137.203 162.332C72.6954 205.979 -1.83347 239.36 -76.8193 233.902C-126.553 230.285 -172.264 210.117 -218.019 189.236C-219.795 188.426 -221.571 187.614 -223.348 186.802C-267.295 166.721 -311.427 146.555 -359.18 140.56C-445.684 129.704 -538.325 170.466 -593.428 243.618C-615.4 272.779 -631.306 305.912 -647.012 339.088L-648.37 341.959C-663.628 374.203 -678.854 406.381 -699.45 435.052C-754.205 511.272 -846.968 556.483 -936.183 550.431C-1065.12 541.691 -1164.43 438.146 -1247.19 336.973L-1248.36 338.024C-1165.63 439.16 -1065.96 543.221 -936.339 552.008C-846.601 558.095 -753.326 512.634 -698.25 435.968C-677.565 407.173 -662.282 374.874 -647.044 342.672L-645.658 339.744C-629.944 306.549 -614.105 273.569 -592.25 244.564C-537.488 171.864 -445.387 131.34 -359.418 142.129C-311.887 148.095 -267.934 168.179 -223.93 188.285C-222.177 189.086 -220.424 189.888 -218.67 190.688C-172.943 211.556 -127.009 231.84 -76.9822 235.478C-1.51291 240.971 73.3645 207.377 137.993 163.648C170.308 141.783 200.907 117.273 231.468 92.7681L232.084 92.2749C262.447 67.9275 292.784 43.6021 324.781 21.8483C377.105 -13.7369 438.921 -42.9624 498.32 -30.2833C556.452 -17.8694 600.499 34.0825 618.465 93.0041C636.439 151.904 631.834 216.773 619.65 278.593C617.841 287.781 615.863 297.022 613.88 306.292C610.116 323.88 606.33 341.574 603.624 359.213C599.487 386.174 597.853 413.117 602.649 439.622L603.351 439.457L602.649 439.622C613.667 500.412 656.976 548.193 704.175 584.148C722.644 598.215 742.01 611.051 761.341 623.864C766.719 627.429 772.094 630.991 777.446 634.578C802.052 651.068 826.195 668.08 848.018 688.181C903.763 739.547 942.465 810.518 956.741 887.574L958.229 887.218Z" fill="#E8DDB5" fill-opacity="0.1"/>
</g>
</g>
<defs>
<clipPath id="clip0_416_31">
<rect width="512" height="512" fill="white"/>
</clipPath>
</defs>
</svg>
