<svg width="512" height="512" viewBox="0 0 512 512" fill="none" xmlns="http://www.w3.org/2000/svg">
<g clip-path="url(#clip0_416_31)">
<rect width="512" height="512" fill="#3A5058"/>
<g style="mix-blend-mode:multiply">
<path fill-rule="evenodd" clip-rule="evenodd" d="M579.136 1207.84C610.889 1164.39 637.525 1115.14 645.596 1061.75C653.668 1008.36 640.715 950.275 603.16 914.78C575.227 888.374 539.058 877.803 501.401 869.814C493.881 868.218 486.304 866.726 478.719 865.232C448.262 859.233 417.688 853.211 390.249 840.404C290.359 793.779 250.382 656.833 286.104 545.605C309.977 471.249 351.225 403.39 394.104 338.192C447.048 257.714 447.742 181.821 428.708 119.738C409.685 57.691 370.966 9.44869 345.071 -15.8669C304.512 -55.5161 208.201 -99.2944 76.7665 -20.8512C15.8978 15.4748 -3.84149 80.4847 -24.12 153.862C-24.8943 156.664 -25.6694 159.478 -26.4476 162.303C-46.0742 233.56 -67.6882 312.033 -128.156 380.365C-139.985 393.726 -150.697 408.409 -161.396 423.076C-163.296 425.679 -165.195 428.282 -167.1 430.877C-179.747 448.108 -192.659 464.998 -207.695 479.475C-260.979 530.775 -335.945 570.005 -407.546 551.18C-453.507 539.094 -489.101 505.94 -524.692 472.116L-527.041 469.882C-561.801 436.833 -596.775 403.58 -641.509 389.658L-641.751 390.416L-641.509 389.658C-713.123 367.387 -791.336 400.275 -857.589 440.069C-870.297 447.702 -882.927 455.646 -895.571 463.598C-915.934 476.406 -936.335 489.238 -957.157 500.83C-990.878 519.602 -1025.59 535.054 -1062.75 541.735C-1099.86 548.408 -1140.48 542.374 -1173.34 525.115C-1206.2 507.858 -1231.24 479.419 -1237.37 441.311L-1238.87 441.63C-1232.64 480.337 -1207.22 509.121 -1174.06 526.532C-1140.92 543.941 -1099.98 550.021 -1062.55 543.292C-1025.16 536.57 -990.277 521.03 -956.484 502.217C-935.636 490.611 -915.158 477.731 -894.758 464.901C-882.122 456.954 -869.516 449.026 -856.871 441.431C-790.66 401.663 -712.959 369.104 -641.993 391.174C-597.581 404.995 -562.822 438.042 -527.979 471.169L-525.735 473.302C-490.189 507.084 -454.34 540.519 -407.968 552.713C-335.641 571.729 -260.145 532.081 -206.691 480.617C-191.544 466.034 -178.56 449.042 -165.91 431.807C-163.998 429.203 -162.095 426.594 -160.193 423.987C-149.492 409.319 -138.833 394.709 -127.061 381.412C-66.3314 312.785 -44.6259 233.973 -25.0141 162.764C-24.2287 159.912 -23.4467 157.072 -22.6655 154.246C-2.35871 80.7658 17.2542 16.4554 77.4806 -19.4872C208.281 -97.5519 303.883 -53.9245 344.013 -14.695C369.798 10.5134 408.34 58.5487 427.263 120.271C446.175 181.956 445.501 257.323 392.866 337.333C349.978 402.544 308.618 470.566 284.669 545.156C248.76 656.965 288.858 794.834 389.586 841.85C417.199 854.738 447.991 860.802 478.464 866.802C486.029 868.292 493.573 869.777 501.044 871.362C538.674 879.346 574.497 889.857 602.119 915.969C639.222 951.037 652.115 1008.55 644.1 1061.56C636.086 1114.57 609.62 1163.57 577.944 1206.92L579.136 1207.84Z" fill="#E8DDB5" fill-opacity="0.45"/>
</g>
<g style="mix-blend-mode:multiply">
<path fill-rule="evenodd" clip-rule="evenodd" d="M599.759 1192.71C629.327 1147.67 652.562 1096.85 657.851 1044.05C663.141 991.253 648.585 934.647 610.567 899.13C582.849 873.134 547.389 861.965 510.694 853.164C503.634 851.471 496.531 849.866 489.427 848.26C459.549 841.508 429.662 834.753 402.994 821.458C307.705 773.955 270.117 641.558 304.63 533.094L304.63 533.093C327.949 459.326 366.896 391.209 407.431 326.694L406.803 326.279L407.431 326.694C456.744 248.188 456.7 174.531 437.775 114.438C418.862 54.3786 381.097 7.87586 354.949 -16.4529C313.58 -54.9731 218.77 -95.1228 91.0967 -18.7174L91.4182 -18.1051L91.0965 -18.7173C31.5827 16.9281 11.5925 80.2757 -9.03998 151.454C-9.78503 154.024 -10.5309 156.605 -11.2797 159.195C-31.2867 228.414 -53.2567 304.425 -112.963 370.14C-123.827 382.101 -134.051 394.852 -144.232 407.55C-147.795 411.993 -151.352 416.429 -154.929 420.823C-168.746 437.792 -182.885 454.149 -198.887 467.933C-254.712 515.993 -329.735 550.306 -402.662 531.786C-448.495 520.022 -484.513 488.798 -520.345 457.44L-521.481 456.446C-556.882 425.463 -592.207 394.546 -636.62 382.851L-636.621 382.851C-706.911 364.421 -782.449 399.113 -847.46 439.997C-857.168 446.104 -866.873 452.367 -876.605 458.649C-932.896 494.979 -990.104 531.901 -1054.11 542.325C-1092.51 548.577 -1133.9 541.494 -1167.65 523.142C-1201.39 504.791 -1227.42 475.21 -1235.23 436.501L-1236.71 436.882C-1228.79 476.141 -1202.41 506.045 -1168.39 524.549C-1134.37 543.051 -1092.65 550.19 -1053.94 543.886C-989.587 533.407 -932.067 496.278 -875.792 459.952C-866.072 453.677 -856.389 447.427 -846.714 441.342C-781.73 400.474 -706.687 366.123 -637.043 384.384C-592.955 395.994 -557.85 426.717 -522.357 457.78L-521.345 458.666C-485.556 489.986 -449.291 521.459 -403.076 533.322L-403.074 533.322C-329.494 552.009 -253.971 517.365 -197.95 469.136C-181.833 455.253 -167.619 438.802 -153.79 421.818C-150.195 417.403 -146.627 412.953 -143.059 408.502C-132.887 395.816 -122.709 383.123 -111.882 371.203C-51.9106 305.196 -29.845 228.848 -9.85357 159.678C-9.09712 157.061 -8.34367 154.453 -7.59122 151.858C13.0699 80.5806 32.9274 17.9142 91.8124 -17.3544C218.868 -93.39 312.982 -53.3723 353.916 -15.2564L354.391 -15.8068L353.916 -15.2563C379.936 8.95261 417.522 55.2446 436.334 114.982C455.136 174.685 455.193 247.826 406.174 325.864C365.623 390.404 326.579 458.67 303.193 532.65C268.499 641.685 306.201 774.982 402.298 822.888C429.136 836.268 459.234 843.069 489.125 849.822C496.211 851.423 503.285 853.022 510.301 854.705C546.97 863.499 582.107 874.603 609.53 900.322L609.531 900.323C647.123 935.442 661.598 991.516 656.345 1043.95C651.091 1096.38 628.004 1146.93 598.519 1191.86L599.759 1192.71Z" fill="#E8DDB5" fill-opacity="0.45"/>
</g>
<g style="mix-blend-mode:multiply">
<path fill-rule="evenodd" clip-rule="evenodd" d="M620.445 1177.66C647.822 1130.96 667.603 1079.63 670.177 1026.41C672.71 974.255 656.507 919.062 618.045 883.531C590.537 857.932 555.786 846.166 520.055 836.554C513.509 834.793 506.931 833.104 500.358 831.417C471.003 823.881 441.744 816.37 415.8 802.536C325.133 754.164 289.901 626.277 323.205 520.577L323.206 520.574C345.969 447.397 382.61 379.095 420.808 315.189C466.521 238.693 465.729 167.281 446.904 109.174C428.09 51.0987 391.268 6.31873 364.895 -17.036C322.679 -54.3922 229.4 -90.9269 105.488 -16.5596L105.846 -15.8786L105.487 -16.5593C47.3288 18.4049 27.0309 80.0549 6.01616 149.017C5.28821 151.406 4.55937 153.804 3.82806 156.21C-16.576 223.337 -38.9138 296.825 -97.709 359.94C-106.936 369.847 -115.884 380.144 -124.791 390.394C-130.75 397.251 -136.69 404.086 -142.683 410.77C-157.661 427.475 -173.026 443.298 -190.03 456.389C-248.296 501.251 -323.534 530.803 -397.739 512.409C-443.323 501.092 -479.688 471.936 -515.65 443.103L-515.991 442.83C-552.016 413.947 -587.68 385.432 -631.705 376.032L-631.707 376.032C-700.691 361.435 -771.995 396.924 -837.322 439.905C-845.417 445.231 -853.479 450.638 -861.543 456.046C-918.621 494.326 -975.799 532.672 -1045.47 542.894C-1085.17 548.718 -1127.35 540.587 -1161.98 521.145C-1196.6 501.703 -1223.62 470.983 -1233.09 431.664L-1234.56 432.104C-1224.96 471.926 -1197.63 502.949 -1162.73 522.542C-1127.84 542.135 -1085.34 550.33 -1045.32 544.458C-975.281 534.183 -917.792 495.622 -860.74 457.354C-852.679 451.947 -844.627 446.546 -836.549 441.232C-771.236 398.26 -700.408 363.119 -632.062 377.581C-588.423 386.898 -553.019 415.172 -516.943 444.097L-516.489 444.461C-480.605 473.231 -444.031 502.554 -398.142 513.947C-323.352 532.486 -247.647 502.679 -189.161 457.647C-172.039 444.465 -156.595 428.555 -141.595 411.826C-135.562 405.097 -129.61 398.248 -123.65 391.388C-114.764 381.163 -105.86 370.916 -96.6421 361.018C-37.5793 297.616 -15.1417 223.794 5.24607 156.716C5.98563 154.282 6.72255 151.858 7.45846 149.443C28.5018 80.3863 48.6609 19.3974 106.205 -15.1976C229.517 -89.2043 322.113 -52.7826 363.889 -15.8154C390.114 7.40846 426.756 51.9735 445.467 109.73C464.168 167.455 464.966 238.361 419.53 314.391C381.313 378.33 344.59 446.767 321.767 520.136C288.286 626.397 323.623 755.16 415.07 803.948L415.435 803.242L415.07 803.949C441.179 817.871 470.642 825.433 500.006 832.969C506.564 834.652 513.116 836.334 519.625 838.085C555.333 847.691 589.783 859.387 617.015 884.729L617.016 884.731C655.077 919.892 671.179 974.592 668.664 1026.39L668.664 1026.39C666.108 1079.25 646.453 1130.32 619.161 1176.87L620.445 1177.66Z" fill="#E8DDB5" fill-opacity="0.45"/>
</g>
<g style="mix-blend-mode:multiply">
<path fill-rule="evenodd" clip-rule="evenodd" d="M641.084 1162.54C666.276 1114.24 682.651 1060.21 682.447 1008.71C682.244 957.22 664.306 903.555 625.472 867.889L624.96 868.491L625.472 867.889C598.11 842.76 564.066 830.403 529.313 819.963C523.381 818.181 517.429 816.455 511.486 814.732C482.565 806.346 453.848 798.018 428.555 783.571C342.496 734.423 309.894 611.055 341.719 508.035C364.139 435.501 398.287 367.014 434.143 303.667C476.281 229.241 474.737 160.071 456 103.934C437.273 47.8263 401.378 4.73731 374.779 -17.6427C331.745 -53.8488 239.997 -86.768 119.846 -14.4391L119.845 -14.4385C63.0429 19.8441 42.3998 79.7565 20.9839 146.484C20.2652 148.723 19.5454 150.971 18.8234 153.225C-1.98879 218.216 -24.7022 289.145 -82.488 349.702L-81.9679 350.242L-82.4882 349.703C-89.2501 356.793 -95.9183 363.987 -102.565 371.158C-127.765 398.346 -152.662 425.207 -181.213 444.831C-241.837 486.527 -317.339 511.198 -392.856 493.015C-437.484 482.268 -473.754 455.82 -509.317 429.886L-511.658 428.179C-547.929 401.741 -583.656 376.195 -626.822 369.227L-626.824 369.227C-694.482 358.472 -764.623 396.836 -827.193 439.834C-830.128 441.849 -833.069 443.874 -836.018 445.903C-898.306 488.771 -963.807 533.849 -1036.85 543.455C-1118.88 554.24 -1208.68 506.694 -1230.97 426.85L-1232.42 427.345C-1209.88 508.071 -1119.29 555.879 -1036.72 545.022C-963.302 535.367 -897.517 490.09 -835.317 447.28C-832.334 445.228 -829.36 443.181 -826.393 441.143C-763.816 398.139 -694.135 360.135 -627.109 370.789C-584.332 377.694 -548.872 403.015 -512.557 429.486L-510.131 431.255C-474.63 457.144 -438.158 483.741 -393.25 494.556C-317.217 512.862 -241.283 488.004 -180.413 446.14C-151.701 426.405 -126.643 399.369 -101.429 372.163C-94.798 365.009 -88.1564 357.843 -81.4347 350.795C-23.3797 289.955 -0.562355 218.697 20.2328 153.754C20.9635 151.472 21.6916 149.198 22.4187 146.933C43.8632 80.1168 64.3611 20.8435 120.566 -13.0786C240.133 -85.056 331.211 -52.2298 373.801 -16.3982C400.232 5.84115 435.945 48.7103 454.567 104.503C473.179 160.266 474.722 228.94 432.846 302.903C396.964 366.296 362.75 434.902 340.278 507.603L340.859 507.777L340.278 507.603C308.286 611.165 340.979 735.386 427.788 784.963C453.243 799.503 482.155 807.885 511.079 816.271C517.01 817.99 522.941 819.71 528.843 821.483C563.576 831.916 597.343 844.201 624.447 869.092C662.909 904.417 680.73 957.632 680.932 1008.78C681.135 1059.93 664.861 1113.7 639.76 1161.83L641.084 1162.54Z" fill="#E8DDB5" fill-opacity="0.45"/>
</g>
<g style="mix-blend-mode:multiply">
<path fill-rule="evenodd" clip-rule="evenodd" d="M661.82 1147.4C684.81 1097.48 697.841 1044.16 694.822 990.99L694.822 990.989C691.923 940.168 672.253 887.907 632.985 852.206C605.82 827.505 572.489 814.571 538.704 803.325C533.45 801.577 528.186 799.869 522.932 798.164C494.359 788.895 466.092 779.724 441.388 764.587C359.956 714.67 329.763 595.733 360.319 495.452C382.233 423.5 414.021 354.907 447.544 292.095C486.137 219.812 483.835 152.896 465.179 98.7192C446.532 44.5703 411.55 3.14287 384.741 -18.2687C340.839 -53.3191 250.662 -82.6068 134.253 -12.3244L134.252 -12.3238C78.8108 21.2663 57.7833 79.4063 35.9454 143.884C35.2266 146.007 34.5069 148.136 33.785 150.272C12.5526 213.089 -10.5447 281.424 -67.2179 339.459C-70.471 342.791 -73.7155 346.13 -76.9568 349.466C-107.545 380.948 -137.848 412.137 -172.346 433.27C-235.289 471.816 -311.099 491.535 -387.936 473.587C-431.388 463.436 -467.379 439.754 -502.387 416.718C-504.025 415.641 -505.66 414.565 -507.293 413.492C-543.815 389.503 -579.612 366.932 -621.924 362.381L-621.926 362.381C-688.283 355.482 -752.661 393.526 -817.075 439.734C-881.531 485.971 -951.029 535.019 -1028.23 544.016L-1028.17 544.8L-1028.23 544.016C-1112.86 553.891 -1203.19 503.079 -1228.83 422.017L-1230.28 422.563C-1204.38 504.417 -1113.32 555.529 -1028.12 545.586C-950.464 536.536 -880.642 487.217 -816.249 441.024C-751.814 394.801 -687.873 357.118 -622.134 363.953C-580.214 368.462 -544.69 390.827 -508.135 414.838C-506.483 415.923 -504.829 417.011 -503.173 418.102C-468.21 441.109 -432.026 464.919 -388.321 475.129C-311.037 493.182 -234.829 473.336 -171.617 434.625L-171.982 433.947L-171.617 434.625C-136.936 413.38 -106.488 382.039 -75.928 350.584C-72.6809 347.242 -69.4326 343.899 -66.1777 340.566C-9.23564 282.255 13.9697 213.596 35.1845 150.827C35.9155 148.664 36.6442 146.508 37.3719 144.359C59.2379 79.7978 80.1141 22.2734 134.975 -10.9651C250.82 -80.9063 340.34 -51.691 383.791 -17.0008C410.414 4.26151 445.211 45.4639 463.751 99.3031C482.281 153.114 484.574 219.545 446.227 291.368L446.886 291.732L446.227 291.368C412.675 354.232 380.834 422.932 358.876 495.027C328.16 595.836 358.434 715.6 440.584 765.957C465.445 781.19 493.899 790.42 522.468 799.687C527.713 801.388 532.962 803.091 538.194 804.832C571.963 816.073 605.041 828.932 631.965 853.414L632.475 852.81L631.965 853.414C670.888 888.802 690.43 940.653 693.31 991.143C696.31 1043.98 683.362 1097.03 660.459 1146.77L661.82 1147.4Z" fill="#E8DDB5" fill-opacity="0.45"/>
</g>
<g style="mix-blend-mode:multiply">
<path fill-rule="evenodd" clip-rule="evenodd" d="M682.455 1132.28C703.264 1080.74 712.98 1026.48 707.088 973.298L706.384 973.41L707.088 973.298C701.527 923.188 680.113 872.3 640.412 836.563C613.438 812.276 580.823 798.773 548.01 786.727C543.529 785.081 539.046 783.464 534.572 781.85C506.246 771.63 478.328 761.557 454.144 745.624L453.759 746.238L454.144 745.624C377.346 695.04 349.567 580.462 378.853 482.918C400.273 411.576 429.684 342.919 460.88 280.571C495.965 210.482 492.909 145.816 474.325 93.581C455.751 41.3727 421.665 1.57504 394.645 -18.8675C349.875 -52.7621 261.258 -78.4477 148.612 -10.204L148.61 -10.2032C94.522 22.7155 73.0737 79.0557 50.7964 141.269C50.0686 143.301 49.3399 145.34 48.609 147.385C26.9479 207.992 3.46473 273.696 -52.0054 329.244C-87.4998 364.769 -123.279 399.777 -163.53 421.718C-228.693 457.227 -304.895 471.907 -383.053 454.193C-425.026 444.681 -460.47 423.798 -494.693 403.635C-497.46 402.004 -500.219 400.379 -502.973 398.764C-539.746 377.206 -575.61 357.617 -617.067 355.572L-617.124 356.265L-617.067 355.572C-682.095 352.391 -746.813 394.658 -806.965 439.655L-806.54 440.291L-806.965 439.655C-870.95 487.541 -941.72 536.614 -1019.62 544.599C-1106.84 553.543 -1197.71 499.463 -1226.71 417.206L-1228.14 417.801C-1198.88 500.765 -1107.35 555.178 -1019.53 546.172C-941.16 538.138 -870.067 488.79 -806.114 440.927C-745.911 395.892 -681.617 353.999 -617.196 357.15C-576.133 359.176 -540.547 378.578 -503.753 400.149C-500.992 401.767 -498.225 403.398 -495.448 405.034C-461.256 425.181 -425.627 446.174 -383.429 455.738C-304.895 473.537 -228.327 458.782 -162.869 423.112C-122.385 401.045 -86.4482 365.864 -50.9781 330.364C4.7598 274.547 28.3548 208.526 49.9978 147.966C50.7381 145.895 51.4762 143.83 52.2133 141.771C74.5179 79.4815 95.8087 23.7316 149.335 -8.84538C261.437 -76.7593 349.411 -51.1253 393.725 -17.5764C420.538 2.70964 454.436 42.2762 472.902 94.1799C491.358 146.057 494.399 210.251 459.543 279.882C428.316 342.291 398.864 411.04 377.409 482.499C347.969 580.555 375.818 695.934 453.301 746.969C477.638 763.002 505.734 773.138 534.048 783.353C538.518 784.965 542.993 786.579 547.459 788.219C580.261 800.262 612.645 813.689 639.397 837.776C678.782 873.228 700.057 923.744 705.583 973.538C711.44 1026.4 701.787 1080.38 681.062 1131.72L682.455 1132.28Z" fill="#E8DDB5" fill-opacity="0.45"/>
</g>
<g style="mix-blend-mode:multiply">
<path fill-rule="evenodd" clip-rule="evenodd" d="M703.105 1117.12C721.712 1063.95 728.161 1008.75 719.377 955.542C711.224 906.145 687.999 856.629 647.863 820.856C621.097 797.001 589.204 782.945 557.365 770.104C553.768 768.653 550.171 767.218 546.584 765.786C518.379 754.53 490.684 743.476 466.938 726.627L466.496 727.285L466.938 726.627C394.757 675.419 369.403 565.104 397.412 470.32C418.31 399.602 445.375 330.918 474.233 269.002C505.848 201.161 502.022 138.75 483.492 88.4475C464.971 38.1694 431.758 -0.0263548 404.545 -19.5165C358.911 -52.2047 271.862 -74.3095 162.978 -8.10489L162.977 -8.10396C110.247 24.132 88.3433 78.6398 65.6093 138.572C64.8623 140.542 64.1143 142.517 63.3643 144.498C41.267 202.857 17.3962 265.899 -36.776 318.986L-36.3255 319.489L-36.7761 318.986C-73.8333 355.317 -112.291 389.711 -154.684 410.154L-154.388 410.869L-154.684 410.154C-222.029 442.643 -298.682 452.257 -378.141 434.787C-418.319 425.954 -452.925 407.889 -486.131 390.555C-490.311 388.372 -494.469 386.202 -498.613 384.063C-535.638 364.951 -571.569 348.345 -612.154 348.738C-644.037 349.05 -675.47 360.267 -706.283 377.134C-737.094 393.999 -767.33 416.539 -796.818 439.542C-860.312 489.084 -932.366 538.152 -1010.97 545.147C-1100.79 553.132 -1192.24 495.837 -1224.58 412.376L-1225.99 413.015C-1193.4 497.107 -1101.35 554.762 -1010.9 546.722C-931.81 539.683 -859.434 490.336 -795.941 440.794C-766.459 417.795 -736.31 395.326 -705.62 378.527C-674.932 361.729 -643.749 350.627 -612.197 350.318C-572.005 349.929 -536.357 366.37 -499.326 385.484C-495.188 387.62 -491.032 389.79 -486.852 391.972C-453.661 409.3 -418.883 427.457 -378.508 436.333C-298.745 453.87 -221.754 444.226 -154.092 411.584C-111.446 391.019 -72.8271 356.457 -35.7613 320.118C18.6764 266.771 42.6626 203.42 64.7413 145.107C65.5012 143.1 66.2588 141.099 67.0153 139.105C89.7757 79.102 111.516 25.1575 163.704 -6.74761C272.063 -72.6337 358.484 -50.5596 403.655 -18.2032C430.642 1.12494 463.665 39.0836 482.075 89.0627C500.477 139.017 504.279 200.967 472.875 268.356C443.987 330.336 416.891 399.098 395.966 469.908C367.811 565.188 393.223 676.275 466.054 727.944C489.948 744.899 517.812 756.018 545.995 767.265C549.585 768.697 553.179 770.132 556.772 771.58C588.606 784.42 620.292 798.4 646.854 822.073C686.701 857.589 709.78 906.771 717.884 955.868C726.618 1008.77 720.212 1063.68 701.684 1116.63L703.105 1117.12Z" fill="#E8DDB5" fill-opacity="0.45"/>
</g>
<g style="mix-blend-mode:multiply">
<path fill-rule="evenodd" clip-rule="evenodd" d="M723.789 1102.04C740.205 1047.27 743.408 991.139 731.691 937.897C720.987 889.229 695.933 841.076 655.343 805.258C628.773 781.806 597.6 767.198 566.737 753.566C564.126 752.413 561.518 751.267 558.915 750.123C530.713 737.732 503.126 725.611 479.748 707.712C412.169 655.972 389.218 549.863 415.979 457.823C419.157 446.89 422.257 435.904 425.354 424.929C442.151 365.396 458.853 306.199 487.552 257.606C523.816 196.228 519.208 136.024 498.713 86.5844C478.231 37.1742 441.867 -1.5392 414.48 -20.0771C367.941 -51.5748 282.498 -70.1339 177.369 -5.94701L177.367 -5.94594C125.995 25.6069 103.613 78.2537 80.4102 135.892C79.6364 137.814 78.8616 139.742 78.0848 141.675C55.5465 197.759 31.289 258.121 -21.5231 308.787C-60.1984 345.882 -101.279 379.705 -145.836 398.644C-215.32 428.18 -292.428 432.623 -373.218 415.409C-411.2 407.317 -444.567 392.059 -476.437 377.486C-482.423 374.749 -488.357 372.036 -494.258 369.399C-531.539 352.74 -567.537 339.123 -607.259 341.95C-638.483 344.169 -668.895 356.828 -698.706 374.778C-728.514 392.726 -757.768 415.996 -786.668 439.48C-849.699 490.691 -923.039 539.704 -1002.33 545.717C-1094.75 552.72 -1186.72 492.203 -1222.43 407.555L-1223.82 408.237C-1187.88 493.445 -1095.35 554.345 -1002.28 547.293C-922.49 541.242 -848.826 491.947 -785.766 440.712C-756.86 417.224 -727.686 394.022 -697.986 376.138C-668.289 358.256 -638.114 345.722 -607.214 343.526C-567.88 340.727 -532.168 354.201 -494.899 370.855C-489.018 373.483 -483.099 376.19 -477.121 378.923C-445.252 393.498 -411.724 408.83 -373.575 416.958C-292.555 434.22 -215.132 429.784 -145.311 400.104C-100.484 381.05 -59.2326 347.061 -20.5208 309.931C32.5533 259.013 56.9295 198.352 79.4489 142.313C80.2357 140.354 81.0203 138.402 81.8038 136.456C105.032 78.7537 127.247 26.641 178.098 -4.59235C282.723 -68.4708 367.552 -49.9215 413.622 -18.742C440.792 -0.350695 476.959 38.1419 497.319 87.2575C517.667 136.343 522.211 195.985 486.271 256.816C457.45 305.614 440.679 365.061 423.886 424.587C420.794 435.55 417.7 446.516 414.53 457.418C387.631 549.935 410.63 656.789 478.822 708.998C502.344 727.007 530.088 739.196 558.259 751.573C560.87 752.72 563.485 753.869 566.101 755.025C596.967 768.657 627.953 783.191 654.338 806.481L654.841 805.869L654.339 806.481C694.667 842.067 719.573 889.923 730.214 938.306L730.953 938.102L730.214 938.306C741.866 991.254 738.687 1047.1 722.344 1101.62L723.789 1102.04Z" fill="#E8DDB5" fill-opacity="0.45"/>
</g>
<g style="mix-blend-mode:multiply">
<path fill-rule="evenodd" clip-rule="evenodd" d="M744.41 1086.94C758.61 1030.52 758.629 973.476 743.931 920.201C730.705 872.247 703.773 825.461 662.749 789.608L662.268 790.199L662.749 789.608C636.381 766.573 605.926 751.436 576.035 737.025C574.579 736.323 573.125 735.623 571.673 734.924C543.272 721.253 515.599 707.932 492.478 688.767C429.517 636.576 408.96 534.569 434.493 445.281C439.078 429.262 443.343 413.075 447.59 396.959C447.955 395.573 448.32 394.188 448.685 392.803C453.297 375.313 457.917 357.93 462.935 340.938C472.973 306.95 484.593 274.565 500.884 246.092C534.557 187.203 529.168 129.252 508.505 81.6833C487.854 34.1424 451.925 -3.09245 424.363 -20.6827C376.93 -50.9605 293.084 -65.952 191.719 -3.80475L191.717 -3.80356C141.704 27.0658 118.822 77.8302 95.1398 133.164C94.3329 135.049 93.5251 136.939 92.7152 138.835C69.7316 192.626 45.0903 250.296 -6.31036 298.572C-46.5973 336.412 -90.2675 369.701 -137.021 387.098C-208.641 413.734 -286.244 412.935 -368.355 396.008C-403.622 388.737 -435.23 376.23 -465.346 364.314C-473.647 361.03 -481.835 357.79 -489.955 354.717C-527.494 340.511 -563.559 329.884 -602.407 335.149C-632.974 339.286 -662.367 353.391 -691.175 372.424C-719.607 391.209 -747.519 414.829 -775.459 438.472L-776.558 439.402C-839.066 492.305 -913.724 541.227 -993.72 546.301C-1088.76 552.315 -1181.23 488.582 -1220.3 402.748L-1221.68 403.47C-1182.38 489.797 -1089.39 553.934 -993.686 547.878C-913.183 542.772 -838.197 493.566 -775.63 440.614L-774.568 439.715C-746.601 416.048 -718.751 392.481 -690.4 373.749C-661.692 354.782 -632.522 340.81 -602.269 336.715L-602.334 335.971L-602.269 336.715C-563.803 331.503 -528.026 342.011 -490.52 356.205C-482.439 359.263 -474.276 362.493 -465.991 365.771C-435.861 377.693 -404.104 390.26 -368.703 397.558C-286.44 414.517 -208.536 415.352 -136.561 388.584C-89.5216 371.08 -45.6682 337.625 -5.32058 299.728C46.3373 251.21 71.1004 193.252 94.0644 139.504C94.8846 137.584 95.7026 135.67 96.5194 133.761C120.226 78.3708 142.936 28.1104 192.451 -2.45175C293.334 -64.3029 376.581 -49.2994 423.536 -19.3264C450.868 -1.88384 486.595 35.1283 507.121 82.3804C527.635 129.605 532.943 186.992 499.591 245.321C483.204 273.962 471.541 306.491 461.489 340.526C456.463 357.545 451.837 374.95 447.225 392.439C446.86 393.825 446.495 395.21 446.129 396.597C441.882 412.714 437.622 428.883 433.043 444.883C407.379 534.629 427.972 637.351 491.508 690.019C514.768 709.299 542.588 722.69 570.944 736.339C572.413 737.046 573.884 737.754 575.356 738.464C605.258 752.88 635.548 767.944 661.75 790.835C702.541 826.484 729.322 873.008 742.474 920.691C757.093 973.681 757.08 1030.43 742.946 1086.6L744.41 1086.94Z" fill="#E8DDB5" fill-opacity="0.45"/>
</g>
<g style="mix-blend-mode:multiply">
<path fill-rule="evenodd" clip-rule="evenodd" d="M765.115 1071.8C777.131 1013.76 773.982 955.767 756.275 902.472C740.569 855.25 711.719 809.814 670.253 773.946C644.092 751.318 614.352 735.657 585.432 720.471L585.015 720.252C556.215 705.128 528.265 690.452 505.315 669.791C446.897 617.218 428.78 519.257 453.085 432.72C457.932 415.463 462.236 397.98 466.449 380.585C466.992 378.343 467.534 376.103 468.075 373.866C471.733 358.732 475.367 343.697 479.282 328.952C488.271 295.097 498.722 262.829 514.274 234.547C545.306 178.094 539.138 122.409 518.321 76.7327C497.516 31.0823 462.052 -4.64387 434.322 -21.3071C385.955 -50.3811 303.735 -61.8185 206.134 -1.71128L206.132 -1.7099C157.48 28.4755 134.074 77.3287 109.899 130.344C109.049 132.208 108.199 134.077 107.346 135.951C83.9144 187.421 58.8939 242.382 8.96759 288.309C-32.9814 326.902 -79.2162 359.714 -128.15 375.528C-201.893 399.344 -279.97 393.258 -363.414 376.588C-395.316 370.22 -424.477 360.366 -452.264 350.976C-463.572 347.156 -474.651 343.411 -485.595 340.01C-523.392 328.265 -559.52 320.636 -597.499 328.324C-627.418 334.374 -655.797 349.923 -683.604 370.037C-708.148 387.791 -732.292 409.136 -756.68 430.697C-759.919 433.56 -763.161 436.427 -766.41 439.29C-828.413 493.927 -904.371 542.715 -985.072 546.849C-1082.73 551.854 -1175.76 484.952 -1218.17 397.922L-1219.53 398.681C-1176.91 486.143 -1083.39 553.467 -985.056 548.428C-903.839 544.267 -827.547 495.193 -765.458 440.48C-762.206 437.614 -758.96 434.744 -755.72 431.88C-731.326 410.314 -707.247 389.027 -682.773 371.324C-655.054 351.273 -626.884 335.864 -597.265 329.874C-559.661 322.262 -523.82 329.798 -486.079 341.526C-475.199 344.907 -464.157 348.638 -452.871 352.452C-425.051 361.853 -395.751 371.754 -363.754 378.14C-280.237 394.824 -201.862 400.97 -127.752 377.035C-78.5176 361.124 -32.0857 328.144 9.94501 289.476C60.1221 243.319 85.2669 188.081 108.678 136.653C109.542 134.755 110.403 132.863 111.263 130.977C135.46 77.9124 158.69 29.5314 206.869 -0.360074C304.012 -60.1843 385.647 -48.7126 433.529 -19.9305C461.013 -3.41462 496.272 32.0875 516.948 77.4549C537.613 122.796 543.685 177.918 512.967 233.801C497.315 262.264 486.822 294.691 477.823 328.585C473.903 343.351 470.263 358.408 466.605 373.541C466.065 375.777 465.524 378.015 464.981 380.253C460.768 397.648 456.471 415.105 451.632 432.329C427.205 519.303 445.346 617.948 504.3 671.004C527.385 691.785 555.469 706.533 584.208 721.624L584.71 721.887C613.65 737.085 643.244 752.675 669.26 775.177C710.521 810.869 739.22 856.074 754.841 903.04C772.457 956.061 775.594 1013.76 763.635 1071.53L765.115 1071.8Z" fill="#E8DDB5" fill-opacity="0.45"/>
</g>
<g style="mix-blend-mode:multiply">
<path fill-rule="evenodd" clip-rule="evenodd" d="M785.761 1056.69C795.585 997.056 789.325 938.083 768.552 884.795L767.857 885.112L768.552 884.795C750.403 838.267 719.628 794.202 677.7 758.311C653.01 737.158 625.533 721.497 598.849 706.288C597.488 705.513 596.129 704.738 594.773 703.964C566.799 688 539.912 672.256 518.095 650.845C464.215 597.961 448.55 503.952 471.628 420.164C477.703 398.115 482.618 375.621 487.474 353.4C490.148 341.162 492.805 329.007 495.627 317.054C503.582 283.355 512.869 251.197 527.617 223.005C555.932 168.909 548.976 115.495 528.021 71.7335C507.077 27.9952 472.115 -6.18278 444.233 -21.9252C394.914 -49.7524 314.328 -57.6572 220.492 0.409555L220.49 0.4111C173.194 29.9228 149.242 76.8491 124.564 127.538C123.662 129.39 122.759 131.248 121.854 133.109C97.9731 182.243 72.5802 234.486 24.1803 278.095C-19.4649 317.405 -68.1992 349.815 -119.345 364.008C-195.175 385.022 -273.754 373.557 -358.531 357.195C-380.895 352.88 -402.066 347.238 -422.409 341.512C-427.239 340.153 -432.024 338.788 -436.767 337.435C-451.991 333.093 -466.788 328.873 -481.295 325.334C-519.354 316.048 -555.551 311.415 -592.648 321.529C-621.904 329.511 -649.256 346.52 -676.06 367.722C-696.924 384.226 -717.496 403.305 -738.39 422.682C-744.332 428.193 -750.299 433.728 -756.307 439.234C-817.798 495.584 -895.075 544.23 -976.462 547.433C-1076.74 551.377 -1170.27 481.329 -1216.05 393.119L-1217.39 393.912C-1171.41 482.498 -1077.43 552.983 -976.463 549.012C-894.552 545.788 -816.934 496.855 -755.332 440.403C-749.307 434.881 -743.329 429.337 -737.381 423.821C-716.495 404.45 -695.985 385.429 -675.175 368.968C-648.445 347.825 -621.287 330.961 -592.318 323.057C-555.583 313.041 -519.674 317.607 -481.693 326.873C-467.214 330.405 -452.454 334.615 -437.236 338.956C-432.489 340.31 -427.697 341.676 -422.856 343.039C-402.502 348.768 -381.285 354.423 -358.861 358.749C-274.097 375.108 -195.209 386.651 -119.009 365.534L-119.177 364.771L-119.009 365.534C-67.5456 351.252 -18.5992 318.673 25.1451 279.274L24.6627 278.684L25.1452 279.273C73.7887 235.445 99.3076 182.94 123.169 133.846C124.084 131.962 124.997 130.083 125.909 128.21C150.608 77.479 174.382 30.9926 221.228 1.7604C314.631 -56.0388 394.648 -48.0776 443.473 -20.5292C471.096 -4.93253 505.849 29.0208 526.66 72.4822C547.461 115.92 554.304 168.774 526.293 222.29C511.444 250.675 502.12 283.001 494.156 316.733C491.32 328.745 488.658 340.927 485.982 353.175C481.134 375.363 476.238 397.77 470.173 419.782L470.9 419.973L470.173 419.782C446.982 503.981 462.659 598.644 517.034 652.015L517.565 651.43L517.034 652.015C539.005 673.576 566.052 689.403 594.007 705.357C595.353 706.125 596.701 706.893 598.051 707.663C624.761 722.887 652.129 738.486 676.712 759.547L677.189 758.952L676.713 759.548C718.464 795.288 749.09 839.152 767.145 885.437C787.815 938.459 794.044 997.137 784.268 1056.48L785.761 1056.69Z" fill="#E8DDB5" fill-opacity="0.45"/>
</g>
<g style="mix-blend-mode:multiply">
<path fill-rule="evenodd" clip-rule="evenodd" d="M806.345 1041.56C813.971 980.278 804.655 920.372 780.774 867.074L780.086 867.43L780.774 867.074C760.232 821.235 727.464 778.538 685.095 742.631C662.322 723.333 637.525 708.071 613.424 693.238C610.287 691.307 607.162 689.384 604.055 687.46C577.052 670.739 551.39 653.965 530.834 631.885C481.443 578.819 468.271 488.653 490.142 407.621C498.9 375.195 507.077 342.778 515.061 311.132L516.142 306.843C524.47 273.838 532.603 241.714 540.988 211.326C571.658 100.253 510.156 7.10154 454.094 -22.5375C403.844 -49.1102 324.891 -53.4819 234.821 2.54393L234.819 2.54559C188.884 31.3724 164.373 76.3471 139.184 124.698C138.223 126.542 137.262 128.39 136.298 130.244C111.967 177.025 86.2098 226.547 39.3725 267.873C-5.95342 307.859 -57.1917 339.938 -110.534 352.468C-183.946 369.712 -255.531 356.248 -338.238 340.692C-343.331 339.734 -348.467 338.768 -353.648 337.801C-375.941 333.64 -397.184 328.557 -417.651 323.66L-417.683 323.652C-438.132 318.76 -457.812 314.051 -476.96 310.642C-515.278 303.82 -551.545 302.188 -587.769 314.725C-616.38 324.629 -642.709 343.089 -668.509 365.375C-686.033 380.511 -703.35 397.448 -720.982 414.693C-729.296 422.824 -737.68 431.024 -746.188 439.135C-807.134 497.234 -885.754 545.681 -967.844 547.996C-1070.72 550.886 -1164.78 477.705 -1213.92 388.295L-1215.24 389.12C-1165.92 478.853 -1071.43 552.485 -967.861 549.575C-885.242 547.245 -806.272 498.512 -745.19 440.283C-736.646 432.138 -728.243 423.919 -719.92 415.779C-702.31 398.555 -685.054 381.679 -667.569 366.576C-641.833 344.345 -615.682 326.033 -587.342 316.222C-551.466 303.806 -515.486 305.396 -477.27 312.2C-458.164 315.601 -438.518 320.302 -418.052 325.199L-418.043 325.201C-397.58 330.097 -376.304 335.188 -353.97 339.357C-348.759 340.33 -343.592 341.302 -338.467 342.266C-255.855 357.806 -183.981 371.326 -110.255 354.009C-56.5809 341.401 -5.11552 309.149 40.3248 269.062C87.3969 227.53 113.281 177.76 137.592 131.016C138.566 129.143 139.538 127.274 140.509 125.41C165.716 77.0246 190.049 32.4553 235.56 3.89286C325.224 -51.8802 403.622 -47.4292 453.368 -21.1227C508.9 8.23644 569.976 100.694 539.533 210.943C531.143 241.352 523.005 273.493 514.678 306.497L513.596 310.785C505.613 342.433 497.438 374.837 488.685 407.247C466.71 488.664 479.88 579.452 529.728 633.008L530.281 632.447L529.728 633.008C550.431 655.246 576.245 672.108 603.245 688.827C606.356 690.753 609.482 692.677 612.618 694.607C636.728 709.447 661.429 724.65 684.113 743.872C726.335 779.654 758.958 822.177 779.397 867.787C803.162 920.826 812.432 980.435 804.842 1041.41L806.345 1041.56Z" fill="#E8DDB5" fill-opacity="0.45"/>
</g>
<g style="mix-blend-mode:multiply">
<path fill-rule="evenodd" clip-rule="evenodd" d="M827.036 1026.44C832.47 963.571 820.11 902.638 793.097 849.394C770.178 804.201 735.421 762.92 692.59 726.991C672.082 709.787 650.212 695.345 628.911 681.28C623.701 677.84 618.525 674.422 613.411 670.992C587.368 653.523 562.931 635.725 543.663 612.938C498.693 559.737 488.049 473.328 508.733 395.059C520.733 349.628 530.895 304.082 540.602 260.576C545.245 239.767 549.784 219.424 554.37 199.783C579.08 93.9963 520.418 4.71023 464.043 -23.1393C412.835 -48.4433 335.44 -49.5106 249.226 4.65999C204.596 32.7055 179.509 75.7105 153.816 121.737C152.767 123.615 151.718 125.497 150.667 127.384C125.92 171.792 99.8408 218.589 54.6418 257.631L55.0468 258.149L54.6417 257.631C7.5934 298.278 -46.1251 330.086 -101.675 340.924C-167.609 353.789 -233.198 340.88 -303.153 327.112C-318.132 324.164 -333.311 321.177 -348.736 318.395C-364.122 315.622 -379.088 312.6 -393.683 309.654C-421.221 304.094 -447.433 298.801 -472.626 295.959C-511.208 291.607 -547.543 292.976 -582.891 307.923C-610.842 319.743 -636.14 339.664 -660.932 363.038C-675.386 376.666 -689.715 391.516 -704.304 406.635C-714.706 417.416 -725.241 428.334 -736.049 439.045C-796.48 498.907 -876.433 547.132 -959.227 548.558C-1064.71 550.366 -1159.3 474.072 -1211.79 383.494L-1213.1 384.348C-1160.45 475.202 -1065.45 551.958 -959.26 550.138C-875.933 548.702 -795.618 500.19 -735.028 440.17C-724.156 429.396 -713.604 418.46 -703.201 407.677C-688.648 392.594 -674.384 377.81 -659.94 364.192C-635.2 340.866 -610.065 321.097 -582.368 309.385C-547.353 294.578 -511.301 293.192 -472.846 297.53C-447.71 300.366 -421.607 305.637 -394.114 311.188C-379.506 314.138 -364.506 317.167 -349.05 319.952C-333.682 322.724 -318.541 325.704 -303.585 328.649C-233.619 342.423 -167.694 355.401 -101.452 342.477C-45.5547 331.571 8.40572 299.589 55.5813 258.832C101.005 219.597 127.211 172.568 151.938 128.196C153 126.29 154.059 124.388 155.117 122.493C180.828 76.4358 205.737 33.8021 249.971 6.00504C335.801 -47.9246 412.655 -46.7581 463.353 -21.7065C519.163 5.86388 577.426 94.4624 552.899 199.465C548.305 219.138 543.762 239.498 539.118 260.316C529.415 303.805 519.266 349.294 507.273 394.694C486.495 473.319 497.126 560.316 542.51 614.008C561.919 636.962 586.504 654.854 612.557 672.33C617.69 675.773 622.878 679.199 628.096 682.645C649.391 696.706 671.175 711.091 691.613 728.237C734.327 764.067 768.943 805.198 791.752 850.174L792.414 849.79L791.752 850.174C818.636 903.165 830.934 963.8 825.527 1026.36L827.036 1026.44Z" fill="#E8DDB5" fill-opacity="0.45"/>
</g>
<g style="mix-blend-mode:multiply">
<path fill-rule="evenodd" clip-rule="evenodd" d="M847.735 1011.31C850.963 946.816 835.61 884.85 805.436 831.673C780.15 787.104 743.395 747.259 700.103 711.307C682.289 696.516 663.653 683.422 645.438 670.624C637.776 665.24 630.188 659.908 622.767 654.525C597.679 636.325 574.464 617.508 556.5 593.972L555.94 594.445L556.5 593.972C515.863 540.749 507.827 458.006 527.325 382.497C542.19 324.91 553.013 267.017 563.084 213.148C564.657 204.733 566.212 196.417 567.76 188.216C586.727 87.8247 530.639 2.302 473.982 -23.7698C421.796 -47.7626 346.06 -45.3614 263.613 6.76754C220.36 34.1203 194.695 75.1341 168.479 118.805C167.359 120.671 166.238 122.541 165.115 124.416C139.922 166.456 113.498 210.549 69.9121 247.389C21.0873 288.655 -35.0674 320.258 -92.8171 329.381C-133.868 335.867 -174.418 332.14 -215.817 324.85C-235.892 321.315 -256.155 316.945 -276.769 312.499L-278.696 312.084C-299.97 307.496 -321.622 302.853 -343.804 298.996C-350.075 297.905 -356.288 296.806 -362.441 295.717C-399.758 289.113 -434.93 282.888 -468.256 281.275C-507.095 279.396 -543.496 283.774 -577.969 301.141C-605.264 314.886 -629.532 336.266 -653.318 360.725C-665.066 372.806 -676.707 385.65 -688.541 398.706L-688.984 399.195C-700.974 412.423 -713.166 425.862 -725.888 438.962C-785.743 500.61 -867.07 548.598 -950.568 549.137C-1058.68 549.833 -1153.79 470.454 -1209.64 378.68L-1210.93 379.562C-1154.94 471.567 -1059.44 551.417 -950.617 550.717C-866.582 550.175 -784.882 501.9 -724.845 440.065C-712.1 426.941 -699.89 413.482 -687.902 400.257L-687.455 399.763C-675.619 386.705 -663.998 373.885 -652.275 361.829C-628.53 337.412 -604.412 316.185 -577.353 302.559L-577.661 301.85L-577.353 302.559C-543.194 285.35 -507.074 280.982 -468.384 282.854C-435.157 284.462 -400.087 290.668 -362.763 297.273C-356.607 298.362 -350.389 299.462 -344.108 300.555C-321.959 304.407 -300.334 309.043 -279.057 313.631L-277.12 314.049C-256.513 318.494 -236.227 322.869 -216.124 326.409C-174.66 333.71 -133.929 337.466 -92.6466 330.943C-34.5345 321.762 21.8762 289.983 70.8385 248.602C114.638 211.581 141.188 167.275 166.36 125.268C167.494 123.375 168.625 121.488 169.755 119.606C195.985 75.9105 221.474 35.2318 264.361 8.11029C346.453 -43.7939 421.662 -46.0731 473.326 -22.3202C529.387 3.47697 585.1 88.319 566.274 187.968C564.725 196.174 563.169 204.493 561.596 212.909C551.524 266.782 540.712 324.614 525.863 382.141C506.282 457.972 514.289 541.271 555.301 594.984C573.399 618.698 596.757 637.615 621.87 655.833C629.328 661.243 636.937 666.589 644.61 671.981C662.805 684.766 681.364 697.806 699.132 712.558C742.337 748.438 778.955 788.151 804.125 832.516L804.78 832.095L804.125 832.516C834.157 885.444 849.435 947.111 846.222 1011.29L847.735 1011.31Z" fill="#E8DDB5" fill-opacity="0.45"/>
</g>
<g style="mix-blend-mode:multiply">
<path fill-rule="evenodd" clip-rule="evenodd" d="M868.318 996.231C869.353 930.146 851.014 867.127 817.651 814.031L817.013 814.482L817.651 814.031C790.027 770.072 751.233 731.645 707.492 695.7C692.899 683.709 677.864 672.571 663.094 661.628C652.5 653.78 642.042 646.033 631.979 638.143C607.835 619.211 585.839 599.37 569.223 575.063C532.851 521.866 527.469 442.731 545.802 369.989C562.433 303.993 572.423 237.467 581.055 176.709C594.53 81.7867 540.766 0.00572323 483.837 -24.308C430.702 -47.0036 356.624 -41.1334 277.945 8.95332C236.056 35.6195 209.795 74.6284 183.05 115.934C181.852 117.784 180.653 119.639 179.452 121.498C153.812 161.163 127.057 202.553 85.1084 237.218C34.4902 279.022 -24.0938 310.521 -84.0265 317.888C-126.14 323.063 -167.329 317.288 -209.275 308.315C-224.694 305.017 -240.228 301.283 -255.947 297.504C-282.944 291.015 -310.488 284.394 -338.929 279.624C-427.243 264.824 -505.956 254.843 -573.124 294.382C-599.753 310.054 -622.98 332.897 -645.756 358.443C-655.117 368.944 -664.387 379.882 -673.786 390.972C-687.299 406.918 -701.08 423.179 -715.785 438.907C-775.057 502.319 -857.768 550.042 -941.96 549.721C-1052.67 549.291 -1148.29 466.828 -1207.52 373.88L-1208.79 374.789C-1149.45 467.925 -1053.44 550.868 -942.023 551.301L-941.991 550.511L-942.023 551.301C-857.293 551.624 -774.195 503.617 -714.72 439.988C-700.01 424.253 -686.161 407.913 -672.611 391.928C-663.214 380.84 -653.96 369.922 -644.664 359.495C-621.92 333.984 -598.828 311.294 -572.418 295.75C-505.799 256.535 -427.632 266.368 -339.225 281.185C-310.821 285.948 -283.379 292.545 -256.423 299.025C-240.692 302.807 -225.127 306.549 -209.634 309.863C-167.637 318.847 -126.261 324.661 -83.9062 319.457C-23.5958 312.044 35.2577 280.366 86.0209 238.442C128.17 203.611 155.049 162.027 180.668 122.392C181.879 120.518 183.088 118.648 184.295 116.784C211.053 75.4579 237.143 36.7469 278.697 10.2934C357.051 -39.5861 430.615 -45.3104 483.218 -22.8426C539.522 1.20448 592.933 82.3126 579.557 176.536C570.925 237.293 560.945 303.742 544.338 369.642C525.933 442.67 531.273 522.327 567.978 576.013C584.722 600.506 606.857 620.457 631.04 639.419C641.179 647.369 651.656 655.129 662.25 662.977C676.979 673.887 691.935 684.965 706.527 696.955C750.213 732.855 788.872 771.166 816.375 814.932C849.584 867.784 867.833 930.504 866.803 996.265L868.318 996.231Z" fill="#E8DDB5" fill-opacity="0.45"/>
</g>
<g style="mix-blend-mode:multiply">
<path fill-rule="evenodd" clip-rule="evenodd" d="M888.975 981.083C887.813 913.358 866.518 849.271 829.949 796.299C800.016 752.936 759.173 715.946 714.964 680.001C704.118 671.179 693.126 662.699 682.259 654.315C680.659 653.081 679.062 651.849 677.468 650.618C665.046 641.023 652.84 631.507 641.234 621.682C618.022 602.031 597.249 581.172 582.027 556.065C549.828 502.956 547.223 427.354 564.391 357.375C580.453 291.939 588.821 225.914 594.44 165.085C602.702 75.6418 551.012 -2.41872 493.791 -24.9808C439.662 -46.322 367.259 -37.026 292.348 11.0181C251.82 37.0077 224.951 74.0002 197.67 112.935C196.393 114.757 195.115 116.584 193.835 118.414C167.744 155.709 140.668 194.414 100.368 226.947C47.9147 269.275 -13.0666 300.708 -75.1827 306.318C-118.357 310.206 -160.193 302.387 -202.69 291.729C-214.643 288.731 -226.652 285.508 -238.757 282.258C-269.658 273.964 -301.186 265.5 -334.008 260.196C-422.086 245.968 -502.779 243.194 -568.222 287.546C-594.2 305.152 -616.394 329.461 -638.163 356.096C-645.446 365.007 -652.678 374.173 -659.988 383.438C-674.555 401.901 -689.434 420.76 -705.655 438.788C-764.341 504.014 -848.42 551.429 -933.334 550.262L-933.373 551.052L-933.334 550.262C-1046.65 548.728 -1142.79 463.179 -1205.38 369.06L-1206.64 369.994C-1143.95 464.261 -1047.44 550.298 -933.412 551.842C-847.958 553.016 -763.478 505.319 -704.569 439.845C-688.314 421.78 -673.373 402.843 -658.785 384.354C-651.484 375.1 -644.271 365.958 -637.026 357.094C-615.279 330.486 -593.207 306.33 -567.431 288.861C-502.525 244.873 -422.361 247.532 -334.295 261.758C-301.551 267.05 -270.131 275.484 -239.256 283.771C-227.135 287.025 -215.098 290.256 -203.098 293.266C-160.562 303.934 -118.535 311.803 -75.1095 307.892C-12.6014 302.247 48.662 270.632 101.266 228.182L100.817 227.564L101.266 228.182C141.751 195.5 168.948 156.622 195.018 119.355C196.308 117.51 197.595 115.67 198.881 113.835C226.174 74.8844 252.878 38.152 293.105 12.3553C367.722 -35.5 439.624 -44.6266 493.209 -23.5001C549.78 -1.19375 601.134 76.2028 592.932 164.993C587.316 225.788 578.958 291.719 562.924 357.039C545.697 427.259 548.245 503.352 580.738 556.946C596.08 582.251 616.989 603.229 640.253 622.924C651.885 632.772 664.115 642.306 676.537 651.9C678.134 653.133 679.733 654.368 681.335 655.604C692.202 663.987 703.176 672.453 714.005 681.26C758.192 717.189 798.9 754.072 828.708 797.254C865.111 849.987 886.304 913.774 887.46 981.172L888.975 981.083Z" fill="#E8DDB5" fill-opacity="0.45"/>
</g>
<g style="mix-blend-mode:multiply">
<path fill-rule="evenodd" clip-rule="evenodd" d="M909.622 965.959C906.267 896.644 882.02 831.418 842.229 778.612C809.985 735.796 767.095 700.29 722.419 664.344C715.524 658.797 708.616 653.352 701.756 647.945C659.499 614.639 619.067 582.771 594.825 537.143C566.685 484.175 566.913 412.079 582.945 344.847C598.409 279.986 605.401 214.433 607.788 153.544C611.083 69.5513 561.182 -4.72294 503.691 -25.5748C448.596 -45.5756 377.867 -32.8534 306.704 13.1394C267.548 38.4559 240.065 73.4096 212.241 109.958C210.891 111.731 209.54 113.508 208.187 115.288C181.636 150.218 154.24 186.259 115.589 216.71C61.2758 259.505 -2.0754 290.981 -66.358 294.792C-110.612 297.412 -153.102 287.539 -196.153 275.185C-205.401 272.531 -214.675 269.762 -223.999 266.979C-258.048 256.814 -292.745 246.456 -329.125 240.803C-416.944 227.157 -499.63 231.615 -563.343 280.777C-588.656 300.308 -609.807 326.088 -630.565 353.813C-636.064 361.157 -641.534 368.636 -647.047 376.174C-662.365 397.117 -678.012 418.512 -695.523 438.719C-753.574 505.753 -839.089 552.858 -924.706 550.854C-1040.65 548.136 -1137.32 459.565 -1203.26 364.262L-1204.5 365.219C-1138.48 460.634 -1041.45 549.699 -924.798 552.434C-838.642 554.451 -752.709 507.068 -694.417 439.754C-676.857 419.489 -661.149 398.012 -645.818 377.051C-640.314 369.526 -634.859 362.067 -629.385 354.755C-608.641 327.05 -587.6 301.423 -562.473 282.034C-499.274 233.27 -417.11 228.737 -329.404 242.366C-293.13 248.003 -258.554 258.324 -224.518 268.485C-215.181 271.272 -205.886 274.046 -196.607 276.709C-153.531 289.071 -110.843 299.004 -66.3297 296.369C-1.64007 292.535 62.0054 260.873 116.473 217.958C155.291 187.375 182.802 151.181 209.332 116.278C210.695 114.485 212.055 112.696 213.413 110.911C241.247 74.3501 268.575 39.6182 307.466 14.4736C378.367 -31.3504 448.607 -43.8788 503.146 -24.0803C559.97 -3.47005 609.546 70.153 606.275 153.54C603.89 214.353 596.908 279.794 581.476 344.522C565.397 411.946 565.098 484.501 593.494 537.948C617.895 583.877 658.604 615.957 700.847 649.247C707.7 654.648 714.594 660.08 721.465 665.609C766.156 701.567 808.906 736.968 841.024 779.617L841.594 779.142L841.024 779.617C880.637 832.187 904.77 897.114 908.109 966.099L909.622 965.959Z" fill="#E8DDB5" fill-opacity="0.45"/>
</g>
<g style="mix-blend-mode:multiply">
<path fill-rule="evenodd" clip-rule="evenodd" d="M930.264 950.908C924.704 879.975 897.535 813.596 854.513 760.978C823.296 722.791 783.601 691.332 742.94 659.107C738.594 655.663 734.237 652.21 729.878 648.739C728.602 647.722 727.325 646.706 726.05 645.691C678.429 607.781 631.501 570.424 607.614 518.245L606.928 518.607L607.614 518.245C583.414 465.421 586.611 396.786 601.5 332.319C616.345 268.028 622.214 202.893 621.135 142C619.746 63.3939 571.362 -6.99858 513.612 -26.1604C457.524 -44.7562 388.565 -28.495 321.095 15.2974L321.092 15.299C283.343 40.0039 255.248 72.9003 226.875 107.037C225.507 108.682 224.139 110.33 222.77 111.98C195.698 144.592 167.933 178.039 130.844 206.511C74.6125 249.677 8.94728 281.293 -57.5136 283.274C-102.848 284.625 -145.98 272.698 -189.575 258.645C-196.676 256.356 -203.79 254.01 -210.927 251.657C-247.576 239.572 -284.845 227.283 -324.193 221.405C-411.771 208.333 -496.355 220.14 -558.432 273.994L-558.434 273.996C-583.042 295.504 -603.154 322.746 -622.915 351.543C-626.925 357.387 -630.92 363.294 -634.936 369.231C-650.725 392.577 -666.829 416.387 -685.382 438.63C-742.827 507.485 -829.761 554.238 -916.089 551.417C-1034.63 547.522 -1131.82 455.916 -1201.13 359.444L-1202.35 360.422C-1132.99 456.972 -1035.45 549.078 -916.195 552.996L-916.159 552.458L-916.194 552.996C-829.329 555.834 -741.961 508.808 -684.255 439.64C-665.643 417.327 -649.48 393.428 -633.686 370.075C-629.676 364.146 -625.69 358.253 -621.694 352.43C-601.941 323.644 -581.928 296.553 -557.487 275.191C-495.895 221.759 -411.831 209.928 -324.463 222.969C-285.247 228.828 -248.112 241.072 -211.463 253.156C-204.318 255.511 -197.192 257.861 -190.072 260.156C-146.465 274.213 -103.13 286.213 -57.5283 284.854C9.35508 282.859 75.326 251.055 131.711 207.771C168.949 179.184 196.821 145.608 223.872 113.02C225.251 111.359 226.627 109.701 228.003 108.046C256.385 73.899 284.338 41.1861 321.859 16.6299C389.107 -27.0182 457.587 -43.0592 513.103 -24.6531C570.176 -5.71602 618.241 64.0418 619.62 142.09C620.697 202.86 614.84 267.859 600.028 332.005C585.108 396.608 581.826 465.674 606.242 518.97C630.282 571.48 677.457 609.034 724.973 646.858C726.292 647.908 727.611 648.958 728.93 650.008C733.287 653.478 737.641 656.929 741.983 660.37C782.666 692.613 822.234 723.973 853.344 762.029C896.176 814.415 923.22 880.495 928.754 951.097L930.264 950.908Z" fill="#E8DDB5" fill-opacity="0.45"/>
</g>
<g style="mix-blend-mode:multiply">
<path fill-rule="evenodd" clip-rule="evenodd" d="M950.898 935.757C943.154 863.214 913.051 795.652 866.782 743.265C837.565 710.16 801.989 682.863 765.779 655.08C756.302 647.809 746.782 640.504 737.321 633.053L736.85 633.69L737.321 633.053C688.851 594.888 641.747 554.562 620.378 499.291C600.021 446.622 606.269 381.482 620.043 319.761C634.252 256.087 639.305 191.238 634.458 130.445C628.604 57.0847 580.618 -9.55688 523.492 -26.7613C466.413 -43.9516 399.131 -24.3364 335.431 17.4113L335.429 17.4128C299.047 41.4282 270.329 72.257 241.409 103.996C240.031 105.508 238.652 107.023 237.273 108.539C209.679 138.853 181.558 169.746 146.047 196.267C87.8316 239.731 19.8797 271.594 -48.7309 271.734C-95.1538 271.838 -138.928 257.856 -183.065 242.101C-188.433 240.185 -193.807 238.242 -199.191 236.296C-238.043 222.252 -277.45 208.006 -319.329 202.004C-406.635 189.494 -493.237 208.534 -553.567 267.22L-553.568 267.222C-577.508 290.644 -596.568 319.359 -615.316 349.251C-618.087 353.67 -620.851 358.114 -623.623 362.57C-639.62 388.289 -655.881 414.432 -675.268 438.553C-732.059 509.225 -820.412 555.625 -907.472 551.98C-1028.62 546.908 -1126.33 452.309 -1199 354.648L-1200.21 355.646C-1127.5 453.353 -1029.44 548.457 -907.591 553.559C-819.995 557.226 -731.19 510.557 -674.123 439.541C-654.667 415.334 -638.345 389.093 -622.35 363.376C-619.581 358.924 -616.821 354.488 -614.057 350.08C-595.312 320.192 -576.342 291.628 -552.556 268.356C-492.678 210.109 -406.599 191.102 -319.591 203.569C-277.868 209.55 -238.607 223.741 -199.742 237.789C-194.357 239.735 -188.979 241.679 -183.604 243.598C-139.466 259.353 -95.4831 273.418 -48.7859 273.314C20.2624 273.173 88.531 241.117 146.898 197.539L146.472 196.903L146.898 197.539C182.536 170.923 210.753 139.924 238.327 109.631C239.715 108.105 241.102 106.582 242.488 105.061C271.416 73.3133 300.011 42.6297 336.204 18.7387C399.717 -22.886 466.527 -42.2559 523.021 -25.2419C579.468 -8.242 627.135 57.7899 632.949 130.636C637.781 191.252 632.744 255.934 618.569 319.459C604.778 381.249 598.433 446.797 618.97 499.929C640.507 555.638 687.939 596.186 736.379 634.327C745.875 641.806 755.418 649.128 764.909 656.411C801.105 684.184 836.535 711.37 865.649 744.359L866.216 743.812L865.649 744.359C911.716 796.517 941.683 863.781 949.392 935.991L950.898 935.757Z" fill="#E8DDB5" fill-opacity="0.45"/>
</g>
<g style="mix-blend-mode:multiply">
<path fill-rule="evenodd" clip-rule="evenodd" d="M971.514 920.65C961.566 846.49 928.538 777.725 879.042 725.576L878.493 726.142L879.041 725.576C850.892 695.94 817.691 671.546 784.11 646.872C770.954 637.205 757.74 627.496 744.748 617.412C696.799 579.902 651.156 537.329 633.13 480.361C616.494 427.798 625.892 366.146 638.566 307.195C652.154 244.098 656.712 179.433 647.786 118.865C637.718 50.5307 591.479 -11.6167 533.4 -27.3751C475.361 -43.1225 409.735 -20.1609 349.807 19.5413L349.806 19.5424C314.792 42.8677 285.452 71.6164 255.985 100.95C254.702 102.227 253.419 103.506 252.135 104.784C223.916 132.896 195.348 161.355 161.291 186.038C101.034 229.706 30.8308 261.905 -39.9095 260.209C-87.4208 259.066 -131.834 242.976 -176.51 225.492C-180.352 223.988 -184.196 222.474 -188.044 220.959C-228.907 204.866 -270.225 188.593 -314.424 182.619C-401.43 170.484 -490.07 196.926 -548.671 260.432L-548.135 260.968L-548.672 260.433C-571.964 285.761 -589.976 315.943 -607.709 346.928C-609.51 350.074 -611.308 353.229 -613.108 356.388C-629.049 384.359 -645.175 412.655 -665.147 438.456C-721.272 510.972 -811.083 557.004 -898.856 552.543C-1022.59 546.251 -1120.84 448.651 -1196.87 349.83L-1198.06 350.847C-1122.03 449.684 -1023.42 547.794 -898.988 554.121C-810.683 558.61 -720.4 512.313 -663.983 439.419C-643.934 413.52 -627.749 385.119 -611.816 357.162C-610.015 354.001 -608.216 350.845 -606.416 347.699C-588.68 316.71 -570.749 286.679 -547.599 261.505C-489.412 198.448 -401.301 172.104 -314.681 184.185L-314.678 184.186C-270.658 190.135 -229.498 206.344 -188.607 222.448C-184.766 223.96 -180.928 225.472 -177.09 226.974C-132.423 244.454 -87.7958 260.639 -40.0022 261.789C31.1906 263.495 101.72 231.097 162.123 187.324C196.285 162.565 224.934 134.025 253.134 105.933C254.426 104.645 255.718 103.359 257.009 102.073C286.483 72.7314 315.72 44.0912 350.586 20.8645C410.366 -18.7391 475.526 -41.4301 532.966 -25.8451C590.366 -10.271 636.289 51.2909 646.289 119.163C655.18 179.494 650.645 243.955 637.088 306.906C624.417 365.848 614.912 427.895 631.69 480.908C649.869 538.358 695.849 581.17 743.81 618.689L743.812 618.69C756.873 628.828 770.13 638.568 783.309 648.252C816.849 672.896 849.89 697.173 877.945 726.709C927.227 778.632 960.11 847.1 970.014 920.928L971.514 920.65Z" fill="#E8DDB5" fill-opacity="0.45"/>
</g>
<g style="mix-blend-mode:multiply">
<path fill-rule="evenodd" clip-rule="evenodd" d="M992.212 905.576C980.071 829.828 944.115 759.808 891.375 707.941C870.616 687.537 847.487 669.967 823.729 653.02C816.351 647.756 808.914 642.554 801.469 637.346C784.927 625.775 768.342 614.174 752.254 601.799C704.729 565.08 660.497 520.096 645.962 461.466L645.318 461.663L645.962 461.465C633.261 410.305 644.928 353.865 656.266 299.014C656.565 297.569 656.864 296.124 657.161 294.681C670.059 232.165 674.509 167.407 661.162 107.327C647.028 43.7034 602.397 -13.6532 543.34 -27.9512C484.314 -42.2419 420.368 -15.9982 364.204 21.6796L364.203 21.6801C330.563 44.3035 300.603 70.955 270.589 97.8776C269.644 98.7255 268.699 99.5737 267.753 100.422C238.667 126.52 209.418 152.764 176.556 175.816C114.215 219.55 41.8252 252.282 -31.0478 248.701C-79.6733 246.314 -124.733 228.179 -169.948 208.994C-172.659 207.844 -175.371 206.689 -178.085 205.535C-220.58 187.448 -263.405 169.221 -309.492 163.221C-396.273 151.727 -486.899 185.322 -543.751 253.652L-543.202 254.144L-543.751 253.653C-566.38 280.904 -583.344 312.567 -600.065 344.649C-601.101 346.637 -602.136 348.627 -603.172 350.617C-618.861 380.77 -634.632 411.082 -654.993 438.396C-710.44 512.784 -801.712 558.277 -890.209 553.144C-1016.53 545.435 -1115.34 445.05 -1194.72 345.043L-1195.9 346.078C-1116.53 446.075 -1017.37 546.971 -890.353 554.721L-890.351 554.721C-801.33 559.885 -709.566 514.137 -653.81 439.335C-633.367 411.911 -617.538 381.488 -601.864 351.362C-600.822 349.36 -599.782 347.36 -598.74 345.362C-582.013 313.268 -565.123 281.758 -542.623 254.661C-486.149 186.784 -396.058 153.356 -309.739 164.788L-309.738 164.788C-263.852 170.762 -221.196 188.916 -178.658 207.02C-175.96 208.168 -173.262 209.316 -170.564 210.461C-125.369 229.638 -80.0901 247.878 -31.1768 250.279C42.1645 253.883 114.892 220.945 177.368 177.116C210.31 154.008 239.622 127.708 268.69 101.626C269.644 100.77 270.598 99.914 271.552 99.0585C301.573 72.1286 331.454 45.5507 364.989 22.9983C421.044 -14.6064 484.53 -40.5541 542.945 -26.4115C601.329 -12.2762 645.642 44.5259 659.686 107.739C672.966 167.517 668.55 232.023 655.681 294.405C655.372 295.902 655.062 297.401 654.752 298.901C643.439 353.62 631.702 410.39 644.494 461.915L645.228 461.69L644.494 461.915C659.161 521.074 703.742 566.32 751.324 603.082L751.325 603.083C767.439 615.479 784.068 627.111 800.623 638.691C808.062 643.894 815.486 649.088 822.842 654.335C846.582 671.27 869.638 688.787 890.314 709.11C942.827 760.754 978.629 830.478 990.717 905.894L992.212 905.576Z" fill="#E8DDB5" fill-opacity="0.45"/>
</g>
<g style="mix-blend-mode:multiply">
<path fill-rule="evenodd" clip-rule="evenodd" d="M1012.83 890.472C998.491 813.086 959.628 741.819 903.644 690.233C881.735 670.053 857.515 652.99 832.899 636.493C827.532 632.897 822.148 629.328 816.765 625.76C797.44 612.951 778.126 600.149 759.698 586.114C712.599 550.235 669.652 502.745 658.738 442.526C653.986 416.269 655.596 389.529 659.719 362.658C662.418 345.063 666.185 327.46 669.942 309.905C671.929 300.623 673.912 291.354 675.733 282.108C687.938 220.177 692.596 154.997 674.509 95.7272C656.431 36.4362 612.06 -16.025 553.277 -28.5777C493.255 -41.3899 430.978 -11.8418 378.588 23.7887C346.539 45.5773 316.162 69.9354 285.815 94.269L285.174 94.7832C254.605 119.295 224.055 143.763 191.802 165.586C127.295 209.233 52.7659 242.614 -22.22 237.156C-71.9537 233.539 -117.665 213.371 -163.419 192.49C-165.196 191.68 -166.972 190.868 -168.748 190.056C-212.696 169.975 -256.828 149.809 -304.581 143.814C-391.085 132.958 -483.725 173.72 -538.828 246.872C-560.801 276.033 -576.707 309.166 -592.412 342.342L-593.771 345.213C-609.028 377.457 -624.255 409.635 -644.85 438.306C-699.606 514.526 -792.368 559.737 -881.584 553.685C-1010.52 544.945 -1109.83 441.4 -1192.59 340.227L-1193.76 341.278C-1111.03 442.414 -1011.36 546.475 -881.74 555.262C-792.002 561.349 -698.726 515.888 -643.65 439.222C-622.966 410.427 -607.682 378.128 -592.444 345.926L-591.059 342.998C-575.345 309.803 -559.505 276.823 -537.651 247.818C-482.888 175.118 -390.787 134.594 -304.818 145.383C-257.287 151.349 -213.335 171.433 -169.331 191.539C-167.578 192.34 -165.824 193.142 -164.071 193.942C-118.343 214.81 -72.4097 235.094 -22.3828 238.732C53.0865 244.225 127.964 210.631 192.592 166.902C224.907 145.037 255.507 120.527 286.068 96.0221L286.683 95.5289C317.047 71.1815 347.383 46.8561 379.381 25.1024C431.704 -10.4829 493.521 -39.7084 552.919 -27.0293C611.052 -14.6154 655.098 37.3365 673.064 96.2581C691.038 155.158 686.433 220.027 674.25 281.847C672.44 291.035 670.463 300.276 668.479 309.546C664.715 327.134 660.929 344.828 658.223 362.467C654.087 389.428 652.452 416.371 657.249 442.876L657.95 442.711L657.249 442.877C668.266 503.666 711.575 551.447 758.774 587.402C777.243 601.469 796.609 614.305 815.94 627.118C821.318 630.683 826.693 634.245 832.046 637.832C856.651 654.322 880.794 671.334 902.617 691.435C958.363 742.801 997.065 813.772 1011.34 890.828L1012.83 890.472Z" fill="#E8DDB5" fill-opacity="0.45"/>
</g>
</g>
<defs>
<clipPath id="clip0_416_31">
<rect width="512" height="512" fill="white"/>
</clipPath>
</defs>
</svg>
