<svg width="1280" height="720" viewBox="0 0 1280 720" fill="none" xmlns="http://www.w3.org/2000/svg">
<g clip-path="url(#clip0_416_31)">
<rect width="1280" height="720" fill="#3A5058"/>
<g style="mix-blend-mode:multiply">
<path fill-rule="evenodd" clip-rule="evenodd" d="M1036.39 1700.05C1133.01 1627.87 1219.66 1547.56 1262.72 1463.85C1305.78 1380.13 1299.47 1292.55 1223.14 1243.78C1166.38 1207.51 1082.55 1197 993.956 1190.72C976.265 1189.46 958.388 1188.37 940.494 1187.29C868.639 1182.92 796.507 1178.53 735.004 1163.17C511.11 1107.24 473.172 902.258 609.108 724.814C699.963 606.193 830.466 494.81 963.796 387.275C1128.41 254.533 1163.26 137.264 1143.83 44.482C1124.42 -48.2451 1050.81 -116.498 998.549 -151.418C916.689 -206.11 700.302 -258.22 344.644 -116.01C179.935 -50.1546 103.271 53.3739 21.633 169.906C18.5159 174.356 15.3915 178.824 12.2545 183.311C-66.8631 296.465 -153.992 421.078 -331.701 536.277C-366.462 558.803 -399.069 583.191 -431.639 607.551C-437.42 611.875 -443.201 616.199 -448.992 620.511C-487.445 649.142 -526.396 677.29 -569.487 702.053C-722.19 789.807 -922.639 862.41 -1089.5 844.852C-1196.61 833.578 -1269.17 788.116 -1341.42 741.618L-1346.19 738.547C-1416.75 693.112 -1487.75 647.398 -1591.06 633.092L-1591.98 634.301L-1591.06 633.092C-1756.44 610.217 -1962.06 673.552 -2141.45 745.626C-2175.86 759.45 -2210.21 773.742 -2244.6 788.05C-2299.99 811.093 -2355.48 834.178 -2411.46 855.419C-2502.12 889.816 -2593.75 919.245 -2687.53 935.527C-2781.2 951.791 -2877.88 949.002 -2950.7 927.638C-3023.52 906.276 -3072.33 866.397 -3070.68 808.553L-3074.47 809.286C-3076.15 868.038 -3026.55 908.388 -2953.09 929.941C-2879.64 951.49 -2782.18 954.3 -2687.72 937.898C-2593.36 921.515 -2501.28 891.923 -2410.43 857.453C-2354.38 836.186 -2298.67 813.014 -2243.19 789.931C-2208.82 775.632 -2174.53 761.368 -2140.29 747.612C-1961.02 675.585 -1756.79 612.841 -1592.9 635.509C-1490.34 649.712 -1419.78 695.143 -1349.05 740.685L-1344.49 743.617C-1272.33 790.057 -1199.27 835.912 -1091.2 847.286C-922.648 865.022 -720.722 791.689 -567.53 703.655C-524.122 678.71 -484.952 650.393 -446.489 621.755C-440.678 617.428 -434.884 613.094 -429.093 608.764C-396.52 584.402 -364.075 560.136 -329.481 537.718C-151.003 422.02 -63.5018 296.869 15.5585 183.791C18.7248 179.263 21.8776 174.753 25.0222 170.265C106.774 53.5696 182.824 -48.8588 345.794 -114.019C699.737 -255.543 914.456 -203.552 995.449 -149.439C1047.49 -114.667 1120.75 -46.7051 1140.07 45.5367C1159.37 137.724 1124.8 254.178 961.143 386.147C827.785 493.704 696.937 605.356 605.796 724.35C469.149 902.722 506.98 1109.11 732.752 1165.51C794.643 1180.97 867.29 1185.38 939.186 1189.75C957.031 1190.84 974.831 1191.92 992.408 1193.16C1080.94 1199.44 1163.94 1209.91 1220.08 1245.79C1295.49 1293.96 1301.89 1380.68 1259.14 1463.8C1216.39 1546.92 1130.27 1626.81 1033.88 1698.81L1036.39 1700.05Z" fill="#E8DDB5" fill-opacity="0.45"/>
</g>
<g style="mix-blend-mode:multiply">
<path fill-rule="evenodd" clip-rule="evenodd" d="M1093.54 1675.19C1185.56 1600.86 1264.61 1518.63 1300.63 1436.23C1336.64 1353.83 1325.76 1268.74 1248.27 1219.99C1191.82 1184.29 1109.95 1172.74 1024.02 1165.05C1007.49 1163.57 990.812 1162.23 974.134 1160.89C903.99 1155.27 833.823 1149.64 774.389 1133.39C562.026 1075.34 527.92 876.88 659.752 703.801L659.754 703.798C749.035 586.111 874.083 474.638 1001.44 368.473L1000.09 367.933L1001.44 368.473C1156.39 239.287 1188.47 125.525 1168.43 35.7474C1148.4 -53.9782 1076.33 -119.735 1022.99 -153.109C938.617 -205.956 724.212 -252.729 378.474 -114.191L378.993 -113.297L378.473 -114.191C217.298 -49.5663 140.711 51.4928 59.1314 164.75C56.1855 168.84 53.2329 172.946 50.2692 177.068C-28.9244 287.198 -115.888 408.134 -290.674 519.235C-322.48 539.456 -353.064 560.794 -383.521 582.044C-394.177 589.479 -404.818 596.903 -415.491 604.265C-456.707 632.696 -498.445 660.234 -543.619 684.097C-701.194 767.304 -899.73 832.364 -1070.05 815.482C-1177.04 804.679 -1251.51 762.24 -1325.47 719.566L-1327.82 718.213C-1400.89 676.048 -1473.8 633.973 -1577.34 623.049L-1577.35 623.049C-1741.26 605.881 -1941.22 671.609 -2118.13 745.21C-2144.55 756.202 -2171.03 767.437 -2197.58 778.703C-2351.17 843.868 -2507.27 910.094 -2668.42 936.484C-2765.08 952.313 -2863.26 948.027 -2937.79 925.105C-3012.32 902.184 -3063.08 860.679 -3065.26 802.145L-3069.06 802.973C-3066.85 862.338 -3015.37 904.286 -2940.22 927.397C-2865.08 950.506 -2766.14 954.828 -2668.66 938.866C-2506.66 912.336 -2349.71 845.741 -2196.16 780.586C-2169.64 769.332 -2143.22 758.121 -2116.89 747.167C-1940.05 673.596 -1741.45 608.475 -1579.05 625.485C-1476.26 636.329 -1403.8 678.141 -1330.54 720.415L-1328.45 721.621C-1254.59 764.243 -1179.62 807.027 -1071.74 817.92L-1071.73 817.92C-899.883 834.955 -699.981 769.305 -541.85 685.804C-496.354 661.77 -454.392 634.076 -413.139 605.62C-402.414 598.222 -391.741 590.775 -381.065 583.327C-350.636 562.096 -320.191 540.855 -288.495 520.704C-112.932 409.109 -25.5869 287.637 53.5473 177.584C56.5417 173.419 59.5242 169.271 62.4994 165.141C144.192 51.7262 220.157 -48.2593 379.629 -112.201C723.694 -250.069 936.454 -203.387 1019.94 -151.095L1021.35 -152.021L1019.94 -151.095C1073.02 -117.885 1144.75 -52.4251 1164.67 36.8198C1184.58 126.013 1152.76 238.977 998.73 367.393C871.321 473.599 745.971 585.318 656.431 703.346C523.908 877.336 557.896 1077.16 772.063 1135.71C831.874 1152.06 902.537 1157.73 972.713 1163.35C989.349 1164.69 1005.96 1166.02 1022.39 1167.49C1108.25 1175.18 1189.36 1186.68 1245.21 1222L1245.22 1222C1321.84 1270.2 1332.75 1354.49 1296.99 1436.31C1261.22 1518.14 1182.65 1599.94 1090.88 1674.07L1093.54 1675.19Z" fill="#E8DDB5" fill-opacity="0.45"/>
</g>
<g style="mix-blend-mode:multiply">
<path fill-rule="evenodd" clip-rule="evenodd" d="M1151.19 1650.22C1238.61 1573.65 1309.46 1491.14 1339.02 1408.48C1368.02 1327.49 1352.49 1244.81 1273.89 1196.09C1217.75 1160.95 1137.84 1148.36 1054.59 1139.25C1039.34 1137.58 1023.98 1136.03 1008.63 1134.48C940.078 1127.56 871.751 1120.66 814.302 1103.45C613.541 1043.29 583.212 851.332 710.926 682.638L710.93 682.633C798.629 565.891 918.163 454.451 1039.59 349.553C1184.91 223.991 1214.18 113.765 1193.51 26.9999C1172.85 -59.717 1102.3 -122.993 1047.96 -154.841C960.969 -205.777 748.642 -247.23 412.863 -112.38L413.443 -111.385L412.861 -112.379C255.237 -48.9946 178.61 49.5379 97.0327 159.485C94.2068 163.294 91.3749 167.117 88.5333 170.952C9.25265 277.965 -77.5412 395.119 -249.029 502.107C-275.943 518.901 -302.344 536.252 -328.625 553.524C-346.205 565.078 -363.731 576.597 -381.32 587.889C-425.28 616.112 -469.803 643.035 -517.142 665.999C-679.355 744.696 -876.417 802.465 -1049.99 785.976C-1156.61 775.82 -1232.87 736.615 -1308.28 697.844L-1308.99 697.477C-1384.54 658.638 -1459.36 620.31 -1563 612.866L-1563.01 612.866C-1725.46 601.405 -1915.49 667.715 -2094.16 744.641C-2116.3 754.174 -2138.4 763.825 -2160.5 773.48C-2316.93 841.814 -2473.63 910.268 -2648.62 937.27C-2748.33 952.655 -2848.01 946.875 -2924.25 922.4C-3000.5 897.926 -3053.19 854.8 -3059.2 795.565L-3062.99 796.481C-3056.9 856.474 -3003.55 900.017 -2926.72 924.682C-2849.88 949.346 -2749.45 955.174 -2648.93 939.662C-2473.02 912.52 -2315.47 843.684 -2159.11 775.372C-2137.01 765.721 -2114.95 756.079 -2092.85 746.568C-1914.22 669.657 -1725.51 603.962 -1564.55 615.316C-1461.82 622.696 -1387.53 660.693 -1311.88 699.587L-1310.93 700.076C-1235.68 738.763 -1158.98 778.194 -1051.65 788.417C-876.706 805.037 -678.391 746.798 -515.565 667.804C-467.897 644.68 -423.143 617.609 -379.119 589.345C-361.413 577.978 -343.851 566.436 -326.265 554.877C-300.049 537.646 -273.777 520.379 -246.89 503.602C-74.6209 396.126 12.5634 278.44 91.7828 171.506C94.6565 167.626 97.5199 163.761 100.377 159.911C182.066 49.8134 258.064 -47.6752 414.023 -110.39C748.174 -244.587 958.879 -203.198 1044.97 -152.793C1099 -121.123 1169.2 -58.1506 1189.75 28.0912C1210.29 114.285 1181.24 223.728 1036.81 348.525C915.323 453.477 795.53 565.139 707.601 682.188C579.209 851.777 609.41 1045.07 811.897 1105.75L813.1 1104.6L811.898 1105.75C869.713 1123.07 938.517 1130.02 1007.09 1136.94C1022.4 1138.48 1037.7 1140.03 1052.87 1141.69C1136.06 1150.79 1215.27 1163.32 1270.84 1198.1L1270.84 1198.11C1348.63 1246.32 1364.13 1328.25 1335.33 1408.7L1335.33 1408.7C1305.96 1490.8 1235.54 1572.88 1148.39 1649.21L1151.19 1650.22Z" fill="#E8DDB5" fill-opacity="0.45"/>
</g>
<g style="mix-blend-mode:multiply">
<path fill-rule="evenodd" clip-rule="evenodd" d="M1208.91 1625.2C1291.71 1546.48 1355.43 1460.3 1377.45 1380.72C1399.47 1301.14 1379.01 1221.06 1299.52 1172.17L1298.01 1173.18L1299.52 1172.17C1243.52 1137.72 1165.56 1124.1 1085.03 1113.55C1071.29 1111.75 1057.47 1110.04 1043.67 1108.33C976.525 1100.02 909.853 1091.77 854.239 1073.5C665.013 1011.37 639.133 825.879 762.103 661.482C848.715 545.732 962.276 434.352 1077.77 330.643C1213.49 208.794 1239.95 102.102 1218.62 18.3257C1197.31 -65.4056 1128.26 -126.247 1072.92 -156.567C983.376 -205.617 773.125 -241.746 447.306 -110.584L447.304 -110.583C293.232 -48.4379 216.49 47.5125 134.875 154.123C132.135 157.701 129.39 161.292 126.637 164.894C47.259 268.724 -39.3699 382.038 -207.34 484.964L-206.302 485.715L-207.34 484.965C-226.997 497.015 -246.47 509.211 -265.881 521.368C-339.473 567.458 -412.178 612.993 -490.666 647.928C-657.338 722.149 -852.994 772.443 -1029.95 756.486C-1134.52 747.052 -1211.76 711.999 -1287.5 677.628L-1292.48 675.366C-1369.73 640.328 -1446.04 606.584 -1548.69 602.758L-1548.69 602.758C-1709.65 597.018 -1898.17 667.62 -2070.17 744.168C-2078.24 747.756 -2086.33 751.36 -2094.44 754.972C-2265.69 831.273 -2445.78 911.508 -2628.83 938.115C-2834.41 967.992 -3033.47 908.934 -3053.14 789.079L-3056.92 790.079C-3037.04 911.258 -2836.13 970.592 -2629.19 940.517C-2445.21 913.774 -2264.34 833.185 -2093.32 756.988C-2085.12 753.335 -2076.94 749.691 -2068.79 746.063C-1896.76 669.506 -1709.53 599.534 -1550.07 605.219C-1448.35 609.01 -1372.6 642.45 -1295.26 677.531L-1290.09 679.875C-1214.49 714.188 -1136.81 749.438 -1031.59 758.931C-853.423 774.997 -656.626 724.344 -489.281 649.823C-410.347 614.69 -337.172 568.858 -263.538 522.739C-244.174 510.611 -224.778 498.463 -205.238 486.484C-36.4863 383.079 50.5413 269.237 129.856 165.485C132.643 161.84 135.42 158.207 138.191 154.587C219.915 47.834 296.023 -47.105 448.474 -108.596C772.711 -239.121 981.363 -203.028 1069.98 -154.485C1124.97 -124.356 1193.67 -63.8253 1214.87 19.4372C1236.05 102.654 1209.8 208.58 1074.93 329.671C959.351 433.454 845.577 545.03 758.766 661.046L760.11 661.222L758.765 661.046C635.147 826.308 660.877 1013.1 851.754 1075.78C907.722 1094.16 974.849 1102.47 1042 1110.78C1055.77 1112.48 1069.54 1114.18 1083.22 1115.97C1163.7 1126.51 1241.01 1140.07 1296.49 1174.2C1375.22 1222.62 1395.58 1302.02 1373.71 1381.07C1351.84 1460.12 1288.48 1545.87 1205.98 1624.31L1208.91 1625.2Z" fill="#E8DDB5" fill-opacity="0.45"/>
</g>
<g style="mix-blend-mode:multiply">
<path fill-rule="evenodd" clip-rule="evenodd" d="M1267.1 1600.26C1345.26 1519.33 1400.51 1434.74 1416.37 1352.99L1416.37 1352.99C1431.5 1274.84 1406.17 1197.17 1325.6 1148.26C1269.86 1114.43 1193.86 1099.79 1116.02 1087.83C1103.92 1085.98 1091.77 1084.18 1079.64 1082.39C1013.71 1072.65 948.472 1063.02 894.577 1043.58C716.932 979.482 694.998 800.362 813.715 640.317C898.871 525.485 1006.75 414.259 1116.34 311.698C1242.5 193.668 1266.13 90.5279 1244.13 9.72624C1222.14 -71.0332 1154.57 -129.483 1098.26 -158.287C1006.05 -205.436 797.958 -236.218 482.052 -108.751L482.049 -108.75C331.543 -47.8606 254.6 45.4622 172.9 148.72C170.211 152.118 167.516 155.528 164.813 158.948C85.3225 259.54 -1.15018 368.966 -165.367 467.868C-174.793 473.544 -184.201 479.232 -193.601 484.915C-282.303 538.541 -370.178 591.667 -463.932 629.913C-634.98 699.677 -829.314 742.389 -1009.69 727C-1111.69 718.296 -1189.5 687.458 -1265.18 657.462C-1268.72 656.059 -1272.25 654.658 -1275.78 653.262C-1354.76 622.035 -1432.57 592.885 -1534.23 592.66L-1534.24 592.66C-1693.77 592.674 -1868.12 661.893 -2046.12 743.745C-2224.24 825.651 -2415.94 912.714 -2609 939.065L-2609.2 940.269L-2609 939.065C-2820.63 967.97 -3019.69 903.918 -3047.04 782.652L-3050.81 783.729C-3023.19 906.179 -2822.48 970.578 -2609.41 941.476C-2415.22 914.97 -2222.61 827.434 -2044.66 745.609C-1866.6 663.729 -1693.48 595.14 -1535.43 595.126C-1434.72 595.349 -1357.48 624.224 -1278.44 655.48C-1274.86 656.892 -1271.29 658.309 -1267.71 659.729C-1192.12 689.687 -1113.9 720.693 -1011.31 729.447C-829.884 744.926 -634.519 701.954 -462.737 631.891L-463.334 630.902L-462.737 631.891C-368.488 593.443 -280.19 540.058 -191.57 486.479C-182.154 480.786 -172.734 475.091 -163.302 469.412C1.69323 370.041 88.5721 260.096 167.999 159.581C170.736 156.118 173.464 152.665 176.186 149.225C257.992 45.8334 334.295 -46.5127 483.225 -106.764C797.6 -233.613 1004.11 -202.837 1095.38 -156.173C1151.29 -127.57 1218.51 -69.4382 1240.38 10.8594C1262.23 91.1145 1238.79 193.506 1113.43 310.785L1114.89 311.242L1113.43 310.785C1003.74 413.433 895.692 524.832 810.368 639.891C691.026 800.779 712.796 981.165 892.008 1045.83C946.245 1065.39 1011.91 1075.09 1077.84 1084.82C1089.95 1086.61 1102.06 1088.4 1114.11 1090.25C1191.92 1102.2 1267.32 1116.76 1322.57 1150.3L1324.08 1149.28L1322.57 1150.3C1402.44 1198.77 1427.63 1275.83 1412.6 1353.47C1396.83 1434.72 1341.91 1518.87 1264.05 1599.49L1267.1 1600.26Z" fill="#E8DDB5" fill-opacity="0.45"/>
</g>
<g style="mix-blend-mode:multiply">
<path fill-rule="evenodd" clip-rule="evenodd" d="M1325.21 1575.4C1398.76 1492.27 1446.32 1406.72 1455.15 1325.36L1453.38 1325.64L1455.15 1325.36C1463.45 1248.69 1433.24 1173.38 1351.57 1124.47C1296.09 1091.23 1222.07 1075.58 1146.92 1062.23C1136.66 1060.4 1126.38 1058.62 1116.12 1056.84C1051.17 1045.59 987.155 1034.5 934.856 1013.73L933.643 1014.75L934.856 1013.73C768.771 947.82 750.828 774.956 865.29 619.262C949.007 505.389 1051.13 394.384 1154.88 292.855C1271.53 178.72 1292.34 79.124 1269.66 1.27148C1246.98 -76.5414 1180.86 -132.646 1123.58 -159.931C1028.69 -205.177 822.741 -230.651 516.798 -106.871L516.794 -106.87C369.827 -47.2023 292.605 43.456 210.782 143.338C208.109 146.601 205.43 149.874 202.744 153.157C123.134 250.453 36.8278 355.933 -123.429 450.848C-225.967 511.552 -328.976 571.503 -437.226 611.949C-612.47 677.41 -805.654 712.413 -989.457 697.592C-1088.16 689.634 -1165.89 663.024 -1240.94 637.331C-1247.01 635.254 -1253.06 633.182 -1259.11 631.127C-1339.8 603.686 -1419.12 579.147 -1519.83 582.664L-1520.27 583.745L-1519.83 582.664C-1677.81 588.22 -1854.92 664.07 -2022.04 743.409L-2021.27 744.324L-2022.04 743.409C-2199.81 827.838 -2394.73 915.196 -2589.14 940.11C-2806.82 968.009 -3005.86 898.95 -3040.95 776.31L-3044.7 777.46C-3009.31 901.155 -2808.8 970.622 -2589.61 942.529C-2394.03 917.464 -2198.19 829.628 -2020.51 745.24C-1853.25 665.834 -1677.35 590.631 -1520.84 585.127C-1421.08 581.644 -1342.36 605.939 -1261.62 633.396C-1255.57 635.456 -1249.5 637.534 -1243.41 639.619C-1168.42 665.291 -1090.29 692.042 -991.053 700.044C-806.368 714.935 -612.255 679.758 -436.217 614.001C-327.339 573.321 -223.868 513.077 -121.401 452.415C39.6293 357.042 126.349 251.053 205.894 153.833C208.615 150.507 211.327 147.192 214.034 143.887C295.958 43.8823 372.536 -45.837 517.975 -104.885C822.441 -228.066 1026.84 -202.569 1120.76 -157.785C1177.6 -130.708 1243.36 -74.9313 1265.91 2.42771C1288.44 79.7471 1267.8 178.614 1151.9 292.005C1048.06 393.632 945.789 504.786 861.934 618.846C746.871 775.358 764.635 949.45 932.2 1015.95C984.829 1036.85 1049.25 1048.01 1114.18 1059.25C1124.43 1061.03 1134.69 1062.81 1144.92 1064.62C1220.04 1077.98 1293.53 1093.54 1348.56 1126.51C1429.57 1175.03 1459.6 1249.79 1451.36 1325.97C1442.58 1406.85 1395.3 1491.95 1322.04 1574.75L1325.21 1575.4Z" fill="#E8DDB5" fill-opacity="0.45"/>
</g>
<g style="mix-blend-mode:multiply">
<path fill-rule="evenodd" clip-rule="evenodd" d="M1383.48 1550.51C1452.38 1465.16 1492.36 1378.63 1494.11 1297.65C1495.74 1222.47 1460.47 1149.53 1377.72 1100.6C1322.53 1067.98 1250.48 1051.35 1178.03 1036.6C1169.84 1034.93 1161.65 1033.29 1153.48 1031.65C1089.25 1018.77 1026.18 1006.12 975.329 983.852L973.956 984.943L975.329 983.852C820.752 916.188 806.878 749.437 917.053 598.129C999.255 485.239 1095.69 374.506 1193.56 273.963C1300.78 163.801 1318.72 67.7643 1295.3 -7.14988C1271.9 -82.0273 1207.18 -135.823 1148.98 -161.618C1051.4 -204.882 847.624 -225.076 551.65 -104.986L551.646 -104.985C408.235 -46.5574 330.664 41.39 248.681 137.873C245.987 141.043 243.288 144.223 240.582 147.412C160.849 241.354 74.7174 342.836 -81.3575 433.787L-80.4729 434.493L-81.3578 433.787C-188.13 496.028 -297.488 555.496 -410.389 593.993L-409.976 595.052L-410.389 593.993C-589.747 655.168 -781.914 682.42 -969.106 668.179C-1063.76 660.98 -1140.7 638.584 -1214.54 617.094C-1223.83 614.389 -1233.08 611.698 -1242.3 609.054C-1324.73 585.428 -1405.56 565.505 -1505.25 572.659C-1583.57 578.284 -1665.55 600.725 -1748.49 631.815C-1831.43 662.903 -1915.44 702.687 -1997.81 743.067C-2175.19 830.031 -2373.36 917.643 -2569.16 941.153C-2792.91 968.005 -2992.06 894.022 -3034.82 769.984L-3038.55 771.201C-2995.47 896.177 -2794.99 970.62 -2569.68 943.58C-2372.66 919.925 -2173.59 831.829 -1996.21 744.865C-1913.85 704.492 -1830.09 664.831 -1747.48 633.866C-1664.87 602.902 -1583.55 580.679 -1506.05 575.113C-1407.32 568.028 -1327.11 587.74 -1244.68 611.37C-1235.46 614.011 -1226.22 616.701 -1216.93 619.406C-1143.13 640.889 -1065.8 663.398 -970.681 670.633C-782.775 684.929 -589.766 657.575 -409.563 596.111C-295.989 557.385 -186.161 497.632 -79.3648 435.377C77.4751 343.979 164.025 242.001 243.692 148.132C246.434 144.902 249.168 141.681 251.896 138.47C333.974 41.8747 410.899 -45.1739 552.834 -103.001C847.384 -222.513 1049.63 -202.266 1146.23 -159.441C1203.94 -133.86 1268.3 -80.4007 1291.56 -5.96858C1314.81 68.4269 1297.02 163.754 1190.51 273.182C1092.54 373.828 995.995 484.688 913.687 597.724C802.936 749.822 816.616 917.762 972.584 986.034C1023.75 1008.44 1087.21 1021.16 1151.39 1034.04C1159.57 1035.68 1167.75 1037.32 1175.93 1038.98C1248.37 1053.73 1319.94 1070.27 1374.71 1102.65C1456.87 1151.23 1491.93 1223.67 1490.31 1298.4C1488.57 1378.91 1448.82 1465 1380.21 1549.98L1383.48 1550.51Z" fill="#E8DDB5" fill-opacity="0.45"/>
</g>
<g style="mix-blend-mode:multiply">
<path fill-rule="evenodd" clip-rule="evenodd" d="M1441.83 1525.72C1506.09 1438.2 1538.53 1350.7 1533.1 1270.09C1528.16 1196.4 1487.78 1125.83 1403.89 1076.88C1348.98 1044.83 1278.9 1027.22 1209.15 1011.08C1203.25 1009.71 1197.36 1008.36 1191.47 1007.01C1127.71 992.355 1065.34 978.025 1015.83 954.062C872.697 884.795 862.862 724.075 968.823 577.134C981.409 559.679 993.825 542.155 1006.23 524.649C1073.51 429.686 1140.41 335.261 1232.1 255.332C1347.94 154.369 1363.01 61.8226 1334.38 -11.4804C1305.77 -84.7394 1233.51 -138.86 1174.45 -163.165C1074.07 -204.462 872.578 -219.431 586.557 -103.002L586.552 -103C446.704 -45.8152 368.737 39.3771 286.571 132.437C283.831 135.54 281.086 138.653 278.334 141.773C198.479 232.317 112.533 329.767 -39.2198 416.801C-150.347 480.525 -265.943 539.566 -383.548 576.104C-566.945 633.087 -758.059 652.416 -948.721 638.781C-1038.36 632.372 -1113.53 614.114 -1185.34 596.676C-1198.83 593.401 -1212.19 590.154 -1225.51 587.02C-1309.68 567.223 -1392.03 551.933 -1490.72 562.724C-1568.29 571.202 -1648.44 595.726 -1729.44 628.352C-1810.43 660.975 -1892.39 701.754 -1973.57 742.808C-2150.63 832.336 -2352.02 920.123 -2549.18 942.238C-2778.98 968.006 -2978.11 889.074 -3028.63 763.667L-3032.34 764.948C-2981.48 891.184 -2781.16 970.621 -2549.74 944.671C-2351.35 922.418 -2149.04 834.142 -1971.9 744.572C-1890.7 703.51 -1808.96 662.849 -1728.27 630.344C-1647.58 597.842 -1568.06 573.549 -1491.3 565.159C-1393.57 554.473 -1311.86 569.589 -1227.73 589.38C-1214.45 592.503 -1201.11 595.742 -1187.65 599.013C-1115.84 616.453 -1040.31 634.801 -950.276 641.238C-759.072 654.912 -567.188 635.542 -382.899 578.282C-264.582 541.523 -148.494 482.196 -37.262 418.412C115.243 330.946 201.612 233.013 281.401 142.541C284.189 139.38 286.969 136.227 289.743 133.085C372 39.9229 449.321 -44.4147 587.753 -101.02C872.404 -216.89 1072.39 -201.838 1171.75 -160.958C1230.36 -136.845 1302.23 -83.0346 1330.66 -10.2123C1359.09 62.5657 1344.11 154.251 1229.3 254.313C1137.22 334.581 1070.05 429.406 1002.78 524.356C990.39 541.843 977.998 559.334 965.447 576.74C858.937 724.443 868.563 886.309 1012.99 956.205C1062.81 980.315 1125.54 994.725 1189.23 1009.36C1195.13 1010.71 1201.04 1012.07 1206.95 1013.44C1276.71 1029.58 1346.36 1047.1 1400.89 1078.93L1402.39 1077.91L1400.89 1078.93C1484.24 1127.57 1524.38 1197.71 1529.3 1270.96L1531.2 1270.53L1529.3 1270.96C1534.7 1351.13 1502.44 1438.18 1438.47 1525.3L1441.83 1525.72Z" fill="#E8DDB5" fill-opacity="0.45"/>
</g>
<g style="mix-blend-mode:multiply">
<path fill-rule="evenodd" clip-rule="evenodd" d="M1500.02 1500.86C1559.59 1411.08 1584.63 1322.64 1571.9 1242.41C1560.44 1170.2 1514.84 1102.01 1429.86 1053.05L1428.41 1054.04L1429.86 1053.05C1375.23 1021.59 1307.11 1003.04 1240.06 985.524C1236.79 984.671 1233.53 983.821 1230.27 982.972C1166.55 966.362 1104.47 950.178 1056.12 924.198C924.448 853.447 918.684 698.612 1020.47 556.053C1038.74 530.475 1056.3 504.689 1073.79 479.017C1075.29 476.809 1076.79 474.603 1078.3 472.397C1097.28 444.535 1116.23 416.837 1136 389.681C1175.52 335.363 1218.23 283.276 1270.69 236.498C1379.14 139.757 1391.3 50.7778 1361.43 -19.6377C1331.57 -90.0119 1259.7 -141.94 1199.75 -164.761C1096.6 -204.044 897.372 -213.746 621.35 -101.019L621.345 -101.017C485.068 -45.0785 406.665 37.3242 324.295 126.941C321.488 129.994 318.677 133.055 315.859 136.125C235.881 223.236 150.133 316.63 2.82272 399.782C-112.638 464.957 -234.408 523.621 -356.783 558.146C-544.239 611.011 -734.363 622.305 -928.482 609.322C-1011.86 603.744 -1083.96 589.459 -1152.65 575.847C-1171.59 572.095 -1190.27 568.395 -1208.85 564.942C-1294.76 548.979 -1378.63 538.327 -1476.28 552.764C-1553.12 564.115 -1631.45 590.731 -1710.49 624.893C-1788.5 658.61 -1867.36 699.74 -1946.3 740.91L-1949.4 742.529C-2126 834.647 -2330.68 922.556 -2529.25 943.342C-2765.15 968.016 -2964.2 884.137 -3022.49 757.367L-3026.18 758.707C-2967.55 886.206 -2767.42 970.629 -2529.85 945.781C-2330.03 924.864 -2124.42 836.461 -1947.66 744.258L-1944.66 742.693C-1865.64 701.482 -1786.96 660.444 -1709.17 626.823C-1630.4 592.78 -1552.68 566.405 -1476.63 555.171L-1476.47 554.026L-1476.63 555.171C-1379.94 540.876 -1296.73 551.39 -1210.89 567.339C-1192.39 570.776 -1173.78 574.465 -1154.88 578.21C-1086.15 591.829 -1013.71 606.183 -930.015 611.782C-735.536 624.79 -544.69 613.502 -356.305 560.376C-233.181 525.64 -110.889 466.687 4.74568 401.414C152.793 317.846 238.966 223.985 318.878 136.944C321.732 133.835 324.578 130.735 327.419 127.644C409.873 37.9357 487.634 -43.6578 622.555 -99.0396C897.265 -211.229 1095.02 -201.412 1197.13 -162.524C1256.57 -139.895 1328.05 -88.2799 1357.73 -18.3334C1387.39 51.572 1375.27 139.691 1267.86 235.512C1215.09 282.565 1172.21 334.884 1132.63 389.276C1112.83 416.475 1093.85 444.208 1074.87 472.068C1073.37 474.275 1071.87 476.482 1070.36 478.691C1052.88 504.366 1035.33 530.123 1017.09 555.67C914.777 698.96 920.317 854.898 1053.19 926.295C1101.83 952.432 1164.24 968.7 1227.86 985.282C1231.16 986.142 1234.46 987.002 1237.76 987.864C1304.84 1005.39 1372.58 1023.85 1426.87 1055.11C1511.37 1103.79 1556.72 1171.6 1568.1 1243.41C1580.77 1323.2 1555.87 1411.2 1496.58 1500.56L1500.02 1500.86Z" fill="#E8DDB5" fill-opacity="0.45"/>
</g>
<g style="mix-blend-mode:multiply">
<path fill-rule="evenodd" clip-rule="evenodd" d="M1558.42 1475.9C1613.36 1383.92 1631.05 1294.46 1610.92 1214.65C1593.05 1143.93 1542.12 1078.11 1456.02 1029.17C1401.7 998.293 1335.53 978.806 1271.17 959.921L1270.25 959.649C1206.15 940.842 1143.95 922.591 1096.65 894.251C976.247 822.135 974.693 673.098 1072.3 534.925C1091.77 507.372 1110 479.554 1127.97 451.888C1130.29 448.324 1132.6 444.761 1134.91 441.203C1150.52 417.135 1166.04 393.224 1182.11 369.717C1219.02 315.746 1258.83 263.999 1309.41 217.612C1410.36 125.021 1419.62 39.6349 1388.52 -27.8576C1357.44 -95.3121 1286.01 -145.002 1225.22 -166.37C1119.2 -203.656 922.31 -208.11 656.302 -99.0927L656.296 -99.0902C523.597 -44.4009 444.711 35.1673 362.114 121.316C359.21 124.345 356.302 127.382 353.386 130.427C273.291 214.059 187.763 303.364 45.0367 382.678C-74.8862 449.327 -202.799 507.7 -329.89 540.14C-521.41 589.005 -710.465 592.181 -908.062 579.807C-983.608 575.085 -1050.9 564.511 -1115.01 554.436C-1141.1 550.336 -1166.67 546.318 -1192.05 542.811C-1279.72 530.699 -1365.09 524.703 -1461.72 542.767C-1537.84 556.989 -1614.34 585.696 -1691.44 621.393C-1759.49 652.901 -1828.13 689.915 -1897.47 727.304C-1906.67 732.269 -1915.89 737.24 -1925.12 742.206C-2101.32 836.985 -2309.23 924.946 -2509.21 944.402C-2751.2 967.947 -2950.33 879.2 -3016.32 751.045L-3019.98 752.44C-2953.66 881.232 -2753.53 970.557 -2509.86 946.847C-2308.6 927.267 -2099.75 838.809 -1923.31 743.899C-1914.07 738.927 -1904.84 733.951 -1895.63 728.984C-1826.27 691.586 -1757.82 654.673 -1689.96 623.255C-1613.11 587.67 -1537.18 559.213 -1461.82 545.135C-1366.15 527.249 -1281.44 533.146 -1193.91 545.241C-1168.67 548.727 -1143.19 552.731 -1117.15 556.823C-1052.96 566.91 -985.347 577.534 -909.576 582.269C-711.807 594.655 -522.046 591.522 -329.575 542.415C-201.702 509.775 -73.2312 451.109 46.9252 384.331C190.368 304.618 276.322 214.865 356.35 131.3C359.302 128.218 362.247 125.143 365.185 122.078C447.86 35.8489 526.108 -42.9585 657.514 -97.1153C922.274 -205.62 1117.71 -201.018 1222.67 -164.106C1282.92 -142.927 1353.94 -93.5517 1384.83 -26.5154C1415.7 40.4827 1406.45 125.012 1306.53 216.666C1255.62 263.351 1215.64 315.349 1178.69 369.383C1162.59 392.924 1147.06 416.869 1131.44 440.936C1129.13 444.492 1126.82 448.051 1124.51 451.612C1106.54 479.276 1088.34 507.052 1068.91 534.554C970.806 673.423 972.119 823.519 1093.63 896.296C1141.21 924.803 1203.71 943.142 1267.66 961.908L1268.78 962.235C1333.18 981.133 1399.02 1000.54 1453.04 1031.24C1538.72 1079.94 1589.38 1145.43 1607.15 1215.76C1627.17 1295.16 1609.59 1384.17 1554.9 1475.71L1558.42 1475.9Z" fill="#E8DDB5" fill-opacity="0.45"/>
</g>
<g style="mix-blend-mode:multiply">
<path fill-rule="evenodd" clip-rule="evenodd" d="M1616.65 1450.95C1666.93 1356.8 1677.41 1266.28 1649.74 1186.93L1647.9 1187.54L1649.74 1186.93C1625.55 1117.65 1569.27 1054.24 1482.01 1005.31C1430.62 976.47 1369.99 956.606 1311.1 937.315C1308.1 936.331 1305.1 935.349 1302.11 934.367C1240.39 914.113 1181.24 894.025 1137.03 864.321C1027.85 790.952 1030.58 647.572 1124.01 513.791C1148.6 478.586 1170.54 442.879 1192.21 407.603C1204.15 388.177 1216 368.881 1228.17 349.872C1262.49 296.281 1299.41 244.865 1348 198.723C1441.27 110.18 1447.61 28.4007 1415.31 -36.1336C1383.04 -100.633 1312.13 -148.028 1250.54 -167.953C1141.58 -203.168 947.072 -202.404 691.092 -97.1023L691.085 -97.0995C561.957 -43.645 482.541 33.0637 399.692 115.73C396.665 118.75 393.632 121.779 390.593 124.815C310.383 204.938 225.097 290.132 87.0749 365.646C-37.3811 433.719 -171.314 491.903 -303.185 522.205C-498.685 567.084 -686.699 561.997 -887.794 550.311C-940.843 547.231 -990.38 541.899 -1037.85 536.301C-1049.12 534.972 -1060.27 533.628 -1071.33 532.295C-1106.83 528.018 -1141.33 523.86 -1175.41 520.713C-1264.84 512.456 -1351.73 511.119 -1447.3 532.817C-1522.67 549.937 -1597.32 580.76 -1672.47 618.004C-1730.96 646.994 -1789.86 679.933 -1849.69 713.388C-1866.7 722.902 -1883.79 732.457 -1900.96 741.976C-2076.73 839.382 -2287.9 927.384 -2489.24 945.518C-2737.31 967.855 -2936.38 874.259 -3010.17 744.75L-3013.8 746.197C-2939.7 876.258 -2739.71 970.46 -2489.94 947.969C-2287.3 929.718 -2075.16 841.215 -1899.08 743.633C-1881.86 734.088 -1864.74 724.515 -1847.71 714.992C-1787.91 681.549 -1729.18 648.709 -1670.84 619.794C-1595.91 582.654 -1521.79 552.087 -1447.16 535.135C-1352.52 513.648 -1266.31 514.927 -1177.07 523.166C-1143.05 526.307 -1108.63 530.455 -1073.15 534.731C-1062.08 536.064 -1050.91 537.411 -1039.61 538.743C-992.122 544.343 -942.478 549.689 -889.287 552.777C-688.223 564.46 -499.484 569.617 -303.027 524.519L-303.106 523.361L-303.026 524.518C-170.339 494.029 -35.8103 435.547 88.9284 367.319L88.0018 366.483L88.9288 367.319C227.645 291.425 313.356 205.804 393.499 125.746C396.574 122.674 399.641 119.61 402.703 116.555C485.62 33.8205 564.406 -42.1768 692.307 -95.1246C947.107 -199.941 1140.19 -200.525 1248.06 -165.663C1309.08 -145.922 1379.57 -98.843 1411.64 -34.7516C1443.7 29.3053 1437.34 110.234 1345.06 197.827C1296.14 244.285 1259.06 295.968 1224.7 349.61C1212.47 368.713 1200.59 388.051 1188.64 407.496C1167.01 442.718 1145.15 478.288 1120.6 513.433L1122.31 513.612L1120.6 513.433C1026.72 647.871 1023.73 792.264 1133.91 866.308L1135.47 865.315L1133.91 866.308C1178.43 896.22 1237.93 916.412 1299.62 936.653C1302.59 937.627 1305.56 938.602 1308.54 939.578C1367.48 958.888 1427.88 978.674 1479.04 1007.39L1480.47 1006.39L1479.04 1007.39C1565.94 1056.11 1621.94 1119.24 1646 1188.16C1673.54 1267.11 1663.11 1357.18 1613.08 1450.87L1616.65 1450.95Z" fill="#E8DDB5" fill-opacity="0.45"/>
</g>
<g style="mix-blend-mode:multiply">
<path fill-rule="evenodd" clip-rule="evenodd" d="M1674.73 1425.95C1720.35 1329.55 1723.73 1238.03 1688.41 1159.13L1686.56 1159.79L1688.41 1159.13C1658.03 1091.27 1596.22 1030.26 1507.83 981.361C1460.33 955.078 1406.08 935.39 1353.35 916.255C1346.49 913.765 1339.65 911.284 1332.86 908.799C1273.83 887.203 1218.12 865.307 1177.28 834.346C1079.16 759.93 1086.34 622.041 1175.63 492.666C1211.37 440.894 1245.69 389.229 1279.19 338.793L1283.73 331.958C1318.67 279.356 1352.75 228.153 1386.68 179.607C1510.77 2.15558 1400.47 -132.549 1275.69 -169.503C1163.84 -202.637 971.719 -196.649 725.782 -95.0694L725.774 -95.0664C600.238 -42.8672 520.27 30.9418 437.158 110.103C433.989 113.122 430.814 116.148 427.633 119.182C347.316 195.767 262.294 276.84 129.057 348.594C0.122227 418.025 -139.876 476.133 -276.47 504.223C-464.46 542.882 -634.49 533.558 -830.937 522.785C-843.034 522.122 -855.233 521.453 -867.541 520.79C-920.507 517.935 -970.486 513.48 -1018.64 509.187L-1018.72 509.18C-1066.83 504.891 -1113.13 500.764 -1158.69 498.569C-1249.88 494.176 -1338.3 497.51 -1432.82 522.841C-1507.48 542.852 -1580.29 575.78 -1653.47 614.562C-1703.18 640.904 -1753.17 670.009 -1804.07 699.641C-1828.06 713.614 -1852.27 727.704 -1876.73 741.677C-2052 841.764 -2266.48 929.72 -2469.24 946.599C-2723.34 967.735 -2922.42 869.312 -3003.97 738.418L-3007.58 739.912C-2925.73 871.28 -2725.81 970.334 -2469.98 949.055C-2265.9 932.067 -2050.44 843.608 -1874.78 743.298C-1850.21 729.266 -1825.96 715.144 -1801.93 701.156C-1751.1 671.559 -1701.29 642.559 -1651.69 616.275C-1578.69 577.588 -1506.38 544.92 -1432.43 525.098C-1338.81 500.011 -1251.08 496.657 -1160.14 501.038C-1114.67 503.228 -1068.45 507.349 -1020.3 511.641L-1020.28 511.643C-972.136 515.935 -922.077 520.397 -869.015 523.258C-856.635 523.925 -844.363 524.598 -832.19 525.266C-635.97 536.03 -465.253 545.394 -276.461 506.571C-139.016 478.306 1.61543 419.893 130.876 350.288C264.781 278.174 350.225 196.696 430.474 120.173C433.69 117.105 436.899 114.046 440.102 110.995C523.275 31.7763 602.625 -41.374 727.006 -93.0942C971.834 -194.216 1162.56 -199.99 1273.29 -167.189C1396.89 -130.583 1506.45 3.11228 1383.27 179.248C1349.32 227.827 1315.22 279.058 1280.28 331.657L1275.74 338.492C1242.24 388.931 1207.94 440.574 1172.21 492.321C1082.49 622.311 1075.05 761.166 1174.07 836.268L1175.67 835.307L1174.07 836.268C1215.2 867.451 1271.25 889.459 1330.27 911.053C1337.07 913.54 1343.91 916.023 1350.77 918.513C1403.52 937.656 1457.56 957.267 1504.88 983.448C1592.95 1032.18 1654.48 1092.94 1684.71 1160.46C1719.86 1238.98 1716.5 1330.05 1671.1 1425.97L1674.73 1425.95Z" fill="#E8DDB5" fill-opacity="0.45"/>
</g>
<g style="mix-blend-mode:multiply">
<path fill-rule="evenodd" clip-rule="evenodd" d="M1733.06 1400.94C1774 1302.37 1770.34 1209.7 1727.29 1131.35C1690.76 1064.84 1623.41 1006.33 1533.87 957.447C1490.99 934.038 1443.55 915.142 1397.35 896.738C1386.05 892.237 1374.82 887.764 1363.75 883.263C1307.39 860.338 1255.11 836.642 1217.73 804.358C1130.5 728.981 1142.24 596.451 1227.44 471.494C1276.87 398.964 1321.84 326.554 1364.79 257.386C1385.34 224.302 1405.42 191.96 1425.32 160.702C1532.48 -7.66124 1427.42 -136.887 1301.03 -171.028C1186.22 -202.051 996.397 -191.176 760.655 -93.0504C638.618 -42.249 558.068 28.6307 474.701 104.303C471.301 107.39 467.895 110.485 464.482 113.587C384.153 186.591 299.501 263.523 171.24 331.502L172.009 332.241L171.24 331.502C37.7274 402.275 -108.307 460.394 -249.644 486.227C-417.402 516.892 -573.004 507.457 -738.965 497.393C-774.501 495.239 -810.512 493.055 -847.218 491.23C-883.83 489.414 -919.304 487.143 -953.895 484.928C-1019.16 480.748 -1081.29 476.77 -1141.99 476.434C-1234.94 475.919 -1324.88 483.931 -1418.35 512.878C-1492.26 535.768 -1563.2 570.815 -1634.41 611.147C-1675.93 634.661 -1717.67 660.054 -1760.18 685.907C-1790.48 704.343 -1821.18 723.012 -1852.45 741.403C-2027.29 844.196 -2245.04 932.071 -2449.23 947.694C-2709.39 967.584 -2908.49 864.362 -2997.8 732.13L-3001.39 733.669C-2911.8 866.304 -2711.9 970.177 -2450 950.154C-2244.49 934.43 -2025.74 846.051 -1850.43 742.986C-1818.97 724.487 -1788.23 705.786 -1757.92 687.348C-1715.52 661.556 -1673.97 636.277 -1632.48 612.779C-1561.41 572.531 -1490.94 537.746 -1417.7 515.063C-1325.11 486.388 -1235.87 478.397 -1143.22 478.91C-1082.66 479.245 -1020.79 483.208 -955.628 487.381C-921.006 489.599 -885.453 491.876 -848.671 493.7C-812.102 495.518 -776.183 497.698 -740.701 499.851C-574.718 509.922 -418.319 519.412 -249.777 488.604C-107.556 462.609 39.1496 404.18 173.023 333.216C301.921 264.9 386.988 187.587 467.25 114.642C470.698 111.508 474.138 108.383 477.571 105.266C560.992 29.5441 640.941 -40.7298 761.896 -91.0812C996.59 -188.771 1185.04 -199.403 1298.7 -168.69C1423.83 -134.891 1528.21 -6.66918 1421.84 160.446C1401.91 191.756 1381.81 224.125 1361.26 257.223C1318.32 326.363 1273.41 398.683 1224.01 471.163C1138.43 596.688 1126.39 730.135 1214.43 806.208C1252.08 838.728 1304.68 862.546 1361.07 885.481C1372.18 889.998 1383.43 894.481 1394.75 898.99C1440.94 917.389 1488.19 936.211 1530.92 959.541C1620.22 1008.29 1687.29 1066.59 1723.64 1132.78L1725.43 1132.08L1723.64 1132.78C1766.49 1210.76 1770.12 1302.98 1729.38 1401.06L1733.06 1400.94Z" fill="#E8DDB5" fill-opacity="0.45"/>
</g>
<g style="mix-blend-mode:multiply">
<path fill-rule="evenodd" clip-rule="evenodd" d="M1791.39 1375.87C1827.64 1275.09 1817.07 1181.26 1766.18 1103.48C1723.55 1038.3 1650.63 982.316 1559.92 933.445C1522.59 913.339 1482.5 896.004 1443.31 879.061C1426.83 871.933 1410.5 864.875 1394.61 857.709C1340.89 833.483 1292.04 807.995 1258.19 774.318L1256.6 775.145L1258.19 774.318C1181.59 698.169 1198.13 570.849 1279.23 450.314C1341.07 358.388 1393.1 266.642 1441.51 181.271C1449.07 167.937 1456.55 154.758 1463.95 141.758C1554.66 -17.3705 1454.24 -141.225 1326.32 -172.573C1208.48 -201.413 1021.14 -185.409 795.465 -91.0172C677.072 -41.4899 595.943 26.4235 512.295 98.5566C508.722 101.638 505.143 104.727 501.558 107.823C421.139 177.256 336.795 250.078 213.417 314.408C75.2119 386.464 -76.7824 444.689 -222.835 468.228C-326.655 484.963 -424.761 485.739 -523.392 481.115C-571.219 478.873 -619.142 475.363 -667.898 471.792L-672.454 471.458C-722.77 467.774 -773.99 464.066 -826.857 461.663C-841.805 460.984 -856.603 460.281 -871.262 459.586C-960.151 455.366 -1043.93 451.389 -1125.2 454.282C-1219.91 457.654 -1311.36 470.358 -1403.78 502.94C-1476.95 528.728 -1546.03 565.895 -1615.27 607.771C-1649.46 628.453 -1683.74 650.305 -1718.57 672.517L-1719.88 673.349C-1755.18 695.854 -1791.06 718.72 -1828.1 741.146C-2002.39 846.674 -2223.49 934.448 -2429.11 948.814C-2695.34 967.413 -2894.44 859.432 -2991.54 725.821L-2995.1 727.402C-2897.75 861.348 -2697.89 969.999 -2429.92 951.278C-2222.98 936.82 -2000.83 848.54 -1826.02 742.692C-1788.91 720.226 -1752.97 697.325 -1717.68 674.825L-1716.37 673.985C-1681.52 651.769 -1647.31 629.957 -1613.19 609.318C-1544.07 567.514 -1475.42 530.609 -1402.89 505.044L-1403.33 503.992L-1402.89 505.044C-1311.31 472.759 -1220.55 460.115 -1126.2 456.756C-1045.18 453.872 -961.643 457.837 -872.736 462.056C-858.071 462.752 -843.26 463.455 -828.29 464.135C-775.5 466.534 -724.343 470.238 -674.02 473.923L-669.439 474.258C-620.703 477.828 -572.725 481.342 -524.832 483.587C-426.045 488.218 -327.506 487.458 -223.101 470.629C-76.132 446.942 76.5693 388.402 215.163 316.142C339.144 251.498 423.894 178.323 504.247 108.945C507.866 105.821 511.476 102.703 515.08 99.5952C598.776 27.4213 679.325 -39.9427 796.717 -89.0512C1021.42 -183.036 1207.41 -198.765 1324.07 -170.213C1450.64 -139.196 1550.45 -16.3385 1460.41 141.614C1452.99 154.621 1445.52 167.804 1437.96 181.141C1389.54 266.517 1337.56 358.167 1275.79 449.997C1194.35 571.047 1177.49 699.236 1254.79 776.087C1288.9 810.016 1338.06 835.638 1391.83 859.888C1407.8 867.089 1424.17 874.167 1440.68 881.305C1479.82 898.23 1519.75 915.493 1556.98 935.546C1647.51 984.32 1720.15 1040.12 1762.59 1105.01L1764.39 1104.24L1762.59 1105.01C1813.23 1182.41 1823.75 1275.8 1787.68 1376.08L1791.39 1375.87Z" fill="#E8DDB5" fill-opacity="0.45"/>
</g>
<g style="mix-blend-mode:multiply">
<path fill-rule="evenodd" clip-rule="evenodd" d="M1849.43 1350.86C1880.98 1247.92 1863.52 1152.88 1804.73 1075.72L1802.97 1076.52L1804.73 1075.72C1756.06 1011.83 1677.47 958.357 1585.61 909.546C1554.97 893.264 1522.86 878.379 1491.32 863.756C1468.7 853.268 1446.36 842.914 1425.07 832.275C1373.96 806.747 1328.55 779.455 1298.33 744.347C1232.19 667.511 1253.68 545.311 1330.73 429.209C1400.62 323.875 1454.41 218.791 1502.32 122.9C1577.15 -26.9094 1480.76 -145.38 1351.34 -173.964C1230.56 -200.645 1045.7 -179.506 830.107 -88.8538C715.325 -40.5907 633.581 24.3344 549.636 92.9104C545.877 95.9819 542.112 99.0608 538.34 102.146C457.835 167.992 373.831 236.699 255.39 297.412C112.483 370.633 -45.5017 429.12 -196.211 450.294C-302.11 465.169 -400.93 462.866 -500.207 455.712C-536.699 453.082 -573.284 449.793 -610.305 446.465C-673.888 440.75 -738.758 434.918 -806.649 432.112C-1017.46 423.412 -1206.77 420.652 -1389.41 493.032C-1461.81 521.723 -1529 561.015 -1596.25 604.438C-1623.9 622.286 -1651.51 640.8 -1679.51 659.572C-1719.76 686.562 -1760.81 714.086 -1803.9 740.931C-1977.58 849.16 -2202.06 936.789 -2409.09 949.94C-2681.32 967.221 -2880.42 854.475 -2985.35 719.523L-2988.88 721.143C-2883.74 856.368 -2683.92 969.799 -2409.94 952.407L-2409.51 951.174L-2409.94 952.407C-2201.59 939.172 -1976.03 851.038 -1801.75 742.439C-1758.65 715.583 -1717.4 687.926 -1677.04 660.867C-1649.05 642.1 -1621.48 623.621 -1594.03 605.897C-1526.87 562.534 -1460.08 523.502 -1388.27 495.047C-1207.13 423.257 -1019.1 425.877 -808.062 434.587C-740.26 437.389 -675.629 443.2 -612.144 448.908C-575.096 452.239 -538.439 455.535 -501.769 458.178C-402.37 465.34 -303.11 467.675 -196.604 452.714C-44.9448 431.407 113.782 372.598 257.098 299.167C376.103 238.165 460.499 169.135 540.94 103.34C544.744 100.229 548.539 97.1247 552.328 94.0292C636.313 25.4205 717.505 -39.0136 831.371 -86.8918C1046.07 -177.169 1229.6 -197.998 1349.18 -171.584C1477.17 -143.314 1572.99 -25.8324 1498.71 122.874C1450.8 218.764 1397.07 323.725 1327.28 428.907C1249.93 545.464 1228.1 668.484 1294.85 746.025C1325.3 781.404 1371.01 808.843 1422.19 834.412C1443.65 845.132 1466.03 855.503 1488.65 865.99C1520.1 880.569 1552.04 895.374 1582.69 911.655C1674.42 960.405 1752.73 1013.72 1801.2 1077.33C1859.71 1154.14 1877.09 1248.72 1845.68 1351.16L1849.43 1350.86Z" fill="#E8DDB5" fill-opacity="0.45"/>
</g>
<g style="mix-blend-mode:multiply">
<path fill-rule="evenodd" clip-rule="evenodd" d="M1907.61 1325.73C1934.48 1220.54 1910.21 1124.28 1843.45 1047.79C1788.81 985.177 1704.51 934.248 1611.47 885.491C1588.65 873.524 1565.31 862.113 1542.24 850.832C1538.85 849.171 1535.46 847.512 1532.07 845.856C1505.71 832.943 1479.84 820.116 1455.59 806.711C1407.08 779.901 1365.1 750.817 1338.65 714.221C1282.71 636.81 1309.5 519.6 1382.49 407.933C1450.76 303.513 1500.35 199.425 1540.9 103.868C1600.51 -36.6403 1507.55 -149.712 1376.6 -175.535C1252.73 -199.959 1070.42 -173.75 864.918 -86.8442C753.741 -39.8315 671.358 22.085 587.105 87.0904C583.162 90.1329 579.214 93.1821 575.259 96.237C494.657 158.499 411.011 223.113 297.521 280.27C149.816 354.638 -14.099 413.439 -169.468 432.245C-277.452 445.299 -377.002 439.919 -476.935 430.23C-505.041 427.504 -533.186 424.437 -561.557 421.345C-633.981 413.452 -707.875 405.398 -786.34 402.47C-996.906 394.62 -1194.32 403.394 -1374.89 483.018C-1446.57 514.626 -1511.88 556.05 -1577.16 601.024C-1599 616.07 -1620.83 631.504 -1642.89 647.107C-1686.86 678.197 -1731.76 709.955 -1779.61 740.635C-1952.71 851.643 -2180.5 939.057 -2389.02 951.017L-2389.46 952.252L-2389.02 951.017C-2667.28 967.013 -2866.37 849.5 -2979.12 713.211L-2982.62 714.867C-2869.69 851.371 -2669.91 969.584 -2389.9 953.488C-2180.06 941.451 -1951.16 853.534 -1777.4 742.105C-1729.45 711.359 -1684.36 679.471 -1640.33 648.336C-1618.3 632.754 -1596.53 617.36 -1574.8 602.392C-1509.58 557.465 -1444.64 516.299 -1373.52 484.936C-1194.43 405.964 -998.268 397.098 -787.733 404.946C-709.452 407.868 -635.814 415.893 -563.451 423.78C-535.042 426.876 -506.831 429.951 -478.612 432.687C-378.591 442.385 -278.591 447.812 -169.979 434.682C-13.6294 415.758 151.059 356.629 299.19 282.047L298.356 281.158L299.19 282.046C413.198 224.628 497.219 159.724 577.757 97.5095C581.743 94.4307 585.72 91.3586 589.691 88.2942C673.979 23.2625 755.843 -38.2226 866.195 -84.8865C1070.89 -171.451 1251.89 -197.315 1374.52 -173.136C1503.98 -147.606 1596.4 -35.5129 1537.22 103.97C1496.7 199.472 1447.18 303.414 1379.03 407.648C1305.78 519.701 1278.64 637.682 1335.09 715.8C1361.75 752.685 1404.01 781.933 1452.62 808.803C1476.93 822.238 1502.85 835.089 1529.22 848.002C1532.61 849.662 1536 851.323 1539.4 852.986C1562.47 864.267 1585.77 875.659 1608.56 887.607C1701.55 936.341 1785.56 987.125 1839.97 1049.48C1906.43 1125.62 1930.59 1221.43 1903.84 1326.11L1907.61 1325.73Z" fill="#E8DDB5" fill-opacity="0.45"/>
</g>
<g style="mix-blend-mode:multiply">
<path fill-rule="evenodd" clip-rule="evenodd" d="M1965.77 1300.6C1987.95 1193.24 1956.9 1095.64 1882.11 1019.9C1821.51 958.489 1731.49 910.181 1637.26 861.478C1622.72 853.961 1608.1 846.607 1593.59 839.304C1504.16 794.317 1418.59 751.273 1378.94 684.182C1332.91 606.297 1365.13 494.033 1434.14 386.775C1500.72 283.3 1546.73 180.122 1579.35 84.9537C1624.36 -46.3279 1534.1 -153.846 1401.69 -176.974C1274.8 -199.165 1095.04 -167.88 899.601 -84.7356C792.058 -38.9712 709.028 19.8999 624.458 81.3088C620.355 84.2883 616.248 87.2738 612.134 90.2641C531.41 148.946 448.115 209.497 339.563 263.172C187.019 338.603 17.1911 397.883 -142.779 414.249C-252.904 425.51 -353.2 417.039 -453.787 404.795C-475.393 402.166 -497.016 399.361 -518.752 396.542C-598.135 386.246 -679.026 375.754 -766.129 372.859C-976.39 365.871 -1181.96 386.232 -1360.45 473.101C-1431.36 507.613 -1494.77 551.175 -1558.06 597.702C-1574.83 610.027 -1591.59 622.557 -1608.47 635.185C-1655.39 670.273 -1703.32 706.117 -1755.32 740.414C-1927.71 854.185 -2158.98 941.391 -2368.93 952.168C-2653.24 966.755 -2852.4 844.575 -2972.91 706.925L-2976.39 708.615C-2855.74 846.427 -2655.9 969.318 -2369.85 954.642C-2158.58 943.797 -1926.16 856.09 -1753.05 741.845C-1700.9 707.451 -1652.79 671.469 -1605.83 636.352C-1588.97 623.744 -1572.26 611.249 -1555.57 598.978C-1492.32 552.483 -1429.25 509.177 -1358.86 474.917C-1181.81 388.75 -977.492 368.358 -767.502 375.338C-680.653 378.224 -600.045 388.678 -520.692 398.97C-498.926 401.793 -477.254 404.603 -455.573 407.242C-354.928 419.492 -254.173 428.027 -143.402 416.7C17.5809 400.231 188.215 340.615 341.19 264.97C450.213 211.063 533.857 150.256 614.519 91.6182C618.662 88.6067 622.797 85.6009 626.927 82.602C711.526 21.1721 794.078 -37.3287 900.891 -82.7824C1095.61 -165.622 1274.08 -196.525 1399.69 -174.558C1530.56 -151.699 1620.31 -45.1417 1575.62 85.1929C1543.04 180.243 1497.1 283.245 1430.67 386.507C1361.46 494.072 1328.86 607.063 1375.3 685.652C1415.22 753.185 1501.37 796.515 1590.77 841.478C1605.28 848.773 1619.87 856.11 1634.36 863.601C1728.62 912.321 1818.34 960.489 1878.7 1021.66L1880.31 1020.83L1878.7 1021.66C1953.15 1097.07 1984.06 1194.22 1961.98 1301.06L1965.77 1300.6Z" fill="#E8DDB5" fill-opacity="0.45"/>
</g>
<g style="mix-blend-mode:multiply">
<path fill-rule="evenodd" clip-rule="evenodd" d="M2023.88 1275.56C2041.35 1166 2003.59 1067.04 1920.73 992.081C1860.61 937.682 1776.64 895.136 1690.64 851.555C1681.45 846.897 1672.23 842.227 1663.02 837.53C1660.32 836.154 1657.62 834.779 1654.93 833.405C1554.28 782.101 1455.09 731.544 1419.17 654.164L1417.32 654.84L1419.17 654.164C1382.76 575.83 1420.8 468.423 1485.8 365.609C1550.61 263.076 1593.69 160.686 1617.78 66.0318C1648.9 -56.1588 1560.64 -157.925 1426.8 -178.387C1296.8 -198.238 1119.78 -161.715 934.338 -82.5581L934.331 -82.5552C830.486 -37.9509 746.826 17.8423 661.932 75.6127C657.841 78.3966 653.747 81.1852 649.647 83.9775C568.632 139.161 485.542 195.758 381.667 246.123C224.182 322.479 48.5336 382.378 -116.055 396.258C-228.324 405.725 -329.335 394.155 -430.55 379.35C-447.037 376.938 -463.531 374.441 -480.08 371.935C-565.049 359.067 -651.459 345.981 -745.804 343.217C-955.801 337.083 -1169.35 369.208 -1345.93 463.159L-1345.94 463.162C-1416 500.654 -1477.52 546.344 -1538.85 594.4C-1551.29 604.152 -1563.73 614 -1576.23 623.898C-1625.38 662.819 -1675.51 702.515 -1730.99 740.167C-1902.75 856.727 -2137.44 943.655 -2348.86 953.283C-2639.17 966.469 -2838.33 839.591 -2966.67 700.609L-2970.12 702.331C-2841.67 841.426 -2641.86 969.024 -2349.82 955.759L-2349.49 954.914L-2349.82 955.759C-2137.08 946.071 -1901.2 858.647 -1728.66 741.558C-1673.01 703.786 -1622.69 663.942 -1573.52 625.009C-1561.04 615.125 -1548.63 605.3 -1536.23 595.583C-1474.92 547.545 -1413.72 502.106 -1344.13 464.869C-1168.93 371.654 -956.649 339.578 -747.158 345.697C-653.128 348.452 -567.029 361.49 -482.059 374.356C-465.493 376.864 -448.97 379.366 -432.44 381.784C-331.195 396.594 -229.716 408.243 -116.785 398.72C48.8498 384.752 225.335 324.509 383.25 247.944C487.541 197.377 570.951 140.562 651.906 85.418C656.032 82.6073 660.152 79.8011 664.268 77.0001C749.186 19.2132 832.418 -36.2715 935.636 -80.6071C1120.47 -159.503 1296.21 -195.606 1424.88 -175.957C1557.15 -155.735 1644.91 -54.9053 1614.01 66.4174C1589.96 160.881 1546.98 263.057 1482.31 365.359C1417.17 468.39 1378.74 576.482 1415.47 655.515C1451.62 733.388 1551.33 784.209 1651.76 835.397C1654.55 836.818 1657.34 838.239 1660.12 839.66C1669.33 844.357 1678.54 849.023 1687.73 853.677C1773.78 897.283 1857.47 939.694 1917.39 993.908C1999.88 1068.53 2037.47 1167.05 2020.08 1276.1L2023.88 1275.56Z" fill="#E8DDB5" fill-opacity="0.45"/>
</g>
<g style="mix-blend-mode:multiply">
<path fill-rule="evenodd" clip-rule="evenodd" d="M2082.01 1250.35C2094.8 1138.58 2050.32 1038.21 1959.32 964.111C1901.87 917.281 1826.2 880.534 1749.18 843.131C1729.02 833.343 1708.78 823.509 1688.74 813.438L1687.3 814.507L1688.74 813.438C1586.07 761.853 1487.71 706.68 1459.35 624.039C1432.33 545.289 1476.35 442.785 1537.42 344.386C1600.42 242.873 1641.37 141.017 1656.14 47.0897C1673.95 -66.2543 1584.99 -162.284 1451.78 -179.806C1318.68 -197.313 1144.26 -155.82 968.946 -80.4263L968.94 -80.4237C868.733 -37.0958 784.417 15.6019 699.203 69.7502C695.142 72.3305 691.079 74.914 687.013 77.5001C605.694 129.213 522.821 181.915 423.659 229.004C261.101 306.181 79.6494 366.866 -89.4838 378.232C-203.926 385.937 -305.652 371.267 -407.49 353.893C-419.876 351.78 -432.264 349.626 -444.677 347.469C-534.246 331.901 -625.093 316.11 -725.654 313.564C-935.297 308.26 -1157.07 351.996 -1331.53 453.233L-1331.53 453.235C-1400.82 493.617 -1460.41 541.453 -1519.74 591.071C-1528.51 598.405 -1537.28 605.778 -1546.07 613.172C-1596.79 655.841 -1648.35 699.215 -1706.73 739.945C-1877.73 859.28 -2115.84 945.928 -2328.78 954.396C-2625.09 966.18 -2824.29 834.672 -2960.45 694.324L-2963.87 696.076C-2827.64 836.49 -2627.79 968.728 -2329.76 956.875C-2115.52 948.355 -1876.17 861.214 -1704.34 741.298C-1645.75 700.422 -1594 656.886 -1543.29 614.221C-1534.5 606.835 -1525.76 599.474 -1517.01 592.158C-1457.68 542.546 -1398.38 494.961 -1329.54 454.838C-1156.39 354.359 -935.916 310.76 -726.989 316.045C-626.801 318.583 -536.291 334.313 -446.691 349.884C-434.277 352.042 -421.879 354.197 -409.476 356.313C-307.635 373.687 -205.432 388.453 -90.3137 380.702C79.8986 369.264 262.216 308.226 425.195 230.849L424.427 229.926L425.195 230.849C524.714 183.59 607.87 130.708 689.132 79.0301C693.223 76.4282 697.31 73.8293 701.394 71.2342C786.631 17.071 870.578 -35.3804 970.267 -78.4839C1145.07 -153.656 1318.22 -194.69 1449.95 -177.362C1581.58 -160.049 1670.02 -64.9168 1652.34 47.632C1637.61 141.287 1596.77 242.88 1533.92 344.155C1472.78 442.665 1428.34 545.82 1455.6 625.263C1484.19 708.557 1583.25 764.024 1685.85 815.576C1705.97 825.684 1726.27 835.543 1746.45 845.346C1823.44 882.735 1898.8 919.334 1956.05 966L1957.69 965.056L1956.05 966C2046.65 1039.78 2090.93 1139.7 2078.19 1250.95L2082.01 1250.35Z" fill="#E8DDB5" fill-opacity="0.45"/>
</g>
<g style="mix-blend-mode:multiply">
<path fill-rule="evenodd" clip-rule="evenodd" d="M2140.04 1225.18C2148.11 1111.21 2096.93 1009.4 1997.84 936.165L1996.24 937.137L1997.84 936.164C1941.48 894.55 1870.36 861.925 1798.43 828.926C1770.25 815.999 1741.94 803.013 1714.35 789.408C1612.64 738.739 1518.84 679.804 1499.45 593.942C1481.55 514.719 1531.81 417.098 1588.97 323.152C1650.2 222.597 1689.86 121.066 1694.48 28.1134C1699.7 -76.7588 1613.04 -166.107 1476.8 -181.226C1340.66 -196.335 1168.79 -149.876 1003.62 -78.2516L1003.61 -78.2495C907.047 -36.2012 822.084 13.3782 736.553 63.8902C732.829 66.0892 729.105 68.29 725.378 70.492C643.459 118.895 560.528 167.898 465.725 211.907C297.992 289.767 110.786 351.367 -62.8468 360.225C-179.462 366.168 -281.869 348.309 -384.312 328.322C-393.122 326.603 -401.932 324.868 -410.751 323.132C-504.405 304.692 -599.104 286.047 -705.429 283.921C-914.568 279.151 -1144.69 334.777 -1317.06 443.287L-1315.98 444.036L-1317.07 443.289C-1385.61 486.553 -1443.28 536.526 -1500.62 587.703C-1506.44 592.9 -1512.26 598.109 -1518.08 603.325C-1569.67 649.514 -1621.86 696.24 -1682.44 739.7C-1852.67 861.852 -2094.29 948.203 -2308.69 955.519C-2610.94 965.83 -2810.23 829.679 -2954.19 688.012L-2957.59 689.791C-2813.6 831.482 -2613.67 968.369 -2309.71 958C-2094.01 950.639 -1851.11 863.801 -1679.99 741.013C-1619.19 697.386 -1566.8 650.488 -1515.24 604.322C-1509.41 599.101 -1503.59 593.89 -1497.77 588.694C-1440.43 537.51 -1383.02 487.787 -1314.89 444.785C-1143.74 337.041 -914.963 281.656 -706.751 286.404L-706.744 286.404C-600.85 288.52 -506.513 307.093 -412.792 325.544C-403.99 327.277 -395.193 329.009 -386.392 330.726C-283.97 350.709 -181.078 368.681 -63.7697 362.703C110.973 353.787 299.073 291.824 467.211 213.776C562.304 169.632 645.471 120.49 727.334 72.1195C731.086 69.9026 734.835 67.6871 738.583 65.4739C824.137 14.9483 908.797 -34.4451 1004.95 -76.3157C1169.72 -147.763 1340.32 -193.724 1475.06 -178.771C1609.71 -163.829 1695.85 -75.3414 1690.66 28.8215C1686.06 121.412 1646.54 222.621 1585.45 322.942C1528.31 416.872 1477.6 515.127 1495.66 595.028C1515.22 681.618 1609.74 740.87 1711.47 791.551L1711.48 791.553C1739.22 805.231 1767.61 818.258 1795.84 831.208C1867.69 864.167 1938.47 896.635 1994.64 938.109C2093.3 1011.03 2144.26 1112.4 2136.22 1225.86L2140.04 1225.18Z" fill="#E8DDB5" fill-opacity="0.45"/>
</g>
<g style="mix-blend-mode:multiply">
<path fill-rule="evenodd" clip-rule="evenodd" d="M2198.24 1200.05C2201.61 1083.91 2143.74 980.582 2036.49 908.285C1994.28 879.846 1944.97 856.212 1893.84 833.651C1877.96 826.643 1861.91 819.742 1845.84 812.832C1810.14 797.48 1774.34 782.089 1740.11 765.41C1639.07 715.884 1549.78 652.937 1539.72 563.879L1538.04 564.292L1539.72 563.879C1530.89 486.171 1584.48 396.267 1636.55 308.895C1637.93 306.592 1639.3 304.291 1640.67 301.993C1699.96 202.414 1739.4 100.714 1732.91 9.20267C1726.03 -87.7051 1641.2 -169.881 1501.86 -182.569C1362.59 -195.251 1193.37 -143.927 1038.31 -76.0409L1038.31 -76.0399C945.413 -35.2914 859.819 11.1392 773.973 58.0015C771.269 59.4774 768.565 60.9537 765.861 62.4304C682.662 107.856 599.001 153.535 507.833 194.826C334.88 273.161 141.987 335.974 -36.1326 342.245C-154.986 346.432 -258.123 325.484 -361.179 302.924C-367.359 301.572 -373.539 300.213 -379.722 298.853C-476.556 277.564 -574.142 256.109 -685.147 254.249C-894.081 250.444 -1132.32 317.569 -1302.55 433.364L-1301.42 434.041L-1302.56 433.365C-1370.34 479.539 -1426.09 531.669 -1481.43 584.415C-1484.86 587.683 -1488.28 590.953 -1491.71 594.225C-1543.66 643.795 -1595.87 693.625 -1658.09 739.527C-1827.52 864.54 -2072.59 950.323 -2288.55 956.713C-2596.65 965.242 -2796.15 824.784 -2947.93 681.758L-2951.3 683.564C-2799.53 826.577 -2599.38 967.773 -2289.6 959.196L-2289.59 959.196C-2072.35 952.768 -1825.96 866.507 -1655.59 740.8C-1593.12 694.712 -1540.71 644.698 -1488.81 595.174C-1485.37 591.884 -1481.92 588.596 -1478.47 585.311C-1423.12 532.546 -1367.61 480.665 -1300.22 434.754C-1131.11 319.728 -894.267 252.949 -686.446 256.734L-686.442 256.734C-575.922 258.585 -478.721 279.953 -381.79 301.262C-375.641 302.614 -369.494 303.966 -363.344 305.312C-260.331 327.862 -156.701 348.939 -37.1446 344.727C142.119 338.415 335.936 275.226 509.263 196.721C600.652 155.331 684.495 109.553 767.641 64.1551C770.37 62.665 773.099 61.1754 775.827 59.6863C861.696 12.8115 947.064 -33.4918 1039.67 -74.1123C1194.43 -141.867 1362.38 -192.654 1500.21 -180.104C1637.96 -167.56 1722.25 -86.1973 1729.09 10.0853C1735.55 101.137 1696.3 202.437 1637.14 301.804C1635.72 304.188 1634.29 306.575 1632.87 308.964C1580.91 396.128 1527.01 486.558 1535.9 564.819L1537.81 564.349L1535.9 564.819C1546.05 654.679 1636.09 717.978 1737.26 767.562L1737.26 767.563C1771.54 784.27 1807.43 799.702 1843.16 815.066C1859.22 821.97 1875.24 828.86 1891.07 835.845C1942.17 858.391 1991.31 881.955 2033.36 910.28C2140.14 982.267 2197.77 1085.16 2194.42 1200.79L2198.24 1200.05Z" fill="#E8DDB5" fill-opacity="0.45"/>
</g>
<g style="mix-blend-mode:multiply">
<path fill-rule="evenodd" clip-rule="evenodd" d="M2256.21 1174.85C2254.88 1056.47 2190.37 951.625 2074.97 880.269C2029.8 852.356 1977.56 829.681 1924.1 807.954C1912.44 803.218 1900.73 798.527 1889.02 793.837C1846.99 777.002 1804.98 760.176 1765.7 741.281C1665.31 692.98 1580.26 625.89 1579.82 533.732C1579.65 493.548 1595.38 451.574 1617.37 408.988C1631.76 381.103 1648.8 353.03 1665.78 325.035C1674.76 310.233 1683.73 295.453 1692.29 280.733C1749.63 182.142 1789.79 79.7099 1771.24 -9.79979C1752.72 -99.3445 1666.35 -173.957 1526.88 -183.971C1384.46 -194.188 1217.86 -137.961 1072.96 -73.8556C984.331 -34.6523 898.69 8.28723 813.135 51.1836L811.327 52.09C725.147 95.2998 639.032 138.44 549.881 177.73C371.572 256.312 173.061 320.511 -9.49816 324.201C-130.58 326.654 -234.461 302.633 -338.135 277.508C-342.159 276.532 -346.183 275.555 -350.208 274.578C-449.777 250.405 -549.763 226.131 -664.914 224.552C-873.509 221.696 -1119.94 300.356 -1288.03 423.432C-1355.05 472.495 -1408.86 526.769 -1462.18 581.075L-1466.8 585.774C-1518.61 638.553 -1570.32 691.225 -1633.73 739.301C-1802.31 867.106 -2051 952.726 -2268.4 957.806C-2582.58 965.155 -2782 819.801 -2941.64 675.45L-2944.98 677.281C-2785.41 821.576 -2585.33 967.679 -2269.47 960.291C-2050.8 955.181 -1800.74 869.088 -1631.17 740.534C-1567.49 692.251 -1515.59 639.382 -1463.84 586.67L-1459.13 581.877C-1405.78 527.54 -1352.2 473.516 -1285.54 424.717C-1118.49 302.401 -873.495 224.199 -666.19 227.037C-551.574 228.609 -451.995 252.783 -352.298 276.986C-348.326 277.95 -344.353 278.915 -340.38 279.878C-236.767 304.988 -132.388 329.153 -10.593 326.687C173.143 322.973 372.608 258.383 551.25 179.654C640.574 140.288 726.83 97.0756 812.988 53.877L814.723 53.0075C900.325 10.0869 985.851 -32.7949 1074.34 -71.9355C1219.05 -135.96 1384.38 -191.608 1525.32 -181.497C1663.24 -171.594 1749.04 -97.7232 1767.44 -8.73638C1785.87 80.2158 1745.99 182.152 1688.75 280.568C1680.24 295.194 1671.3 309.93 1662.33 324.713C1645.31 352.762 1628.19 380.978 1613.76 408.933C1591.7 451.663 1575.82 493.956 1575.99 534.521L1577.8 534.149L1575.99 534.521C1576.44 627.553 1662.25 695.037 1762.85 743.441C1802.22 762.378 1844.35 779.249 1886.39 796.09C1898.09 800.775 1909.78 805.457 1921.41 810.181C1974.85 831.899 2026.92 854.507 2071.9 882.31C2186.81 953.363 2251.06 1057.77 2252.39 1175.65L2256.21 1174.85Z" fill="#E8DDB5" fill-opacity="0.45"/>
</g>
</g>
<defs>
<clipPath id="clip0_416_31">
<rect width="1280" height="720" fill="white"/>
</clipPath>
</defs>
</svg>
