<svg width="509" height="502" viewBox="0 0 509 502" fill="none" xmlns="http://www.w3.org/2000/svg">
<g clip-path="url(#clip0_285_2)">
<path d="M52.9631 263.915L359.962 491.734H257.116L5.87452 308.813L52.9631 263.915Z" fill="#E8DDB5"/>
<path d="M5.87454 308.813C5.87454 308.813 128.096 0 288.47 0H507.265C507.265 162.027 375.918 294.03 213.94 294.03C51.9625 294.03 5.87454 308.813 5.87454 308.813Z" fill="#E8DDB5"/>
<path d="M80.3092 457.265C80.3092 479.425 62.3314 497.389 40.1546 497.389C17.9778 497.389 0 479.425 0 457.265C0 435.105 17.9778 417.141 40.1546 417.141C62.3314 417.141 80.3092 435.105 80.3092 457.265Z" fill="#E8DDB5"/>
</g>
<defs>
<clipPath id="clip0_285_2">
<rect width="508.02" height="501.71" fill="white"/>
</clipPath>
</defs>
</svg>
