<svg width="200" height="200" viewBox="0 0 200 200" fill="none" xmlns="http://www.w3.org/2000/svg">
<g clip-path="url(#clip0_110_4)">
<path d="M20.9696 106.494L142.522 196.696H101.801L2.32549 124.271L20.9696 106.494Z" fill="#E8DDB5"/>
<path d="M2.32617 124.271C2.32617 124.271 50.7182 2 114.216 2H200.846C200.846 66.1524 148.84 118.417 84.7071 118.417C20.5741 118.417 2.32617 124.271 2.32617 124.271Z" fill="#E8DDB5"/>
<path d="M31.7974 183.048C31.7974 191.822 24.6793 198.935 15.8987 198.935C7.1181 198.935 0 191.822 0 183.048C0 174.274 7.1181 167.162 15.8987 167.162C24.6793 167.162 31.7974 174.274 31.7974 183.048Z" fill="#E8DDB5"/>
</g>
<defs>
<clipPath id="clip0_110_4">
<rect width="200" height="200" fill="white"/>
</clipPath>
</defs>
</svg>
